{"glyphs":{"0":{"ha":1107,"x_min":69,"x_max":1038,"o":"m 603 824 q 828 772 729 824 q 983 631 928 721 q 1038 429 1038 540 q 953 208 1038 310 q 744 46 869 106 q 504 -14 619 -14 q 279 38 378 -14 q 125 179 181 89 q 69 381 69 269 q 153 602 69 500 q 363 764 238 704 q 603 824 488 824 m 522 651 q 369 447 369 651 q 425 240 369 322 q 585 158 481 158 q 738 364 738 158 q 682 570 738 489 q 522 651 626 651 z "},"1":{"ha":714,"x_min":56,"x_max":658,"o":"m 603 0 l 83 0 l 83 99 l 218 204 l 218 660 l 56 699 l 111 810 l 631 810 l 631 711 l 496 606 l 496 150 l 658 111 l 603 0 z "},"2":{"ha":958,"x_min":50,"x_max":901,"o":"m 901 -26 l 769 -1 l 63 -1 l 63 97 q 326 305 236 228 q 451 431 415 382 q 488 522 488 481 q 455 593 488 565 q 372 621 422 621 q 92 549 278 621 l 50 643 l 240 796 q 411 822 310 822 q 616 795 528 822 q 753 718 704 768 q 801 601 801 668 q 728 468 801 551 q 506 279 654 385 l 749 279 l 803 406 l 901 376 l 901 -26 z "},"3":{"ha":778,"x_min":19,"x_max":736,"o":"m 439 353 q 664 253 592 308 q 736 118 736 197 q 575 -146 736 -31 q 60 -365 414 -261 l 25 -243 q 276 -143 190 -186 q 396 -56 361 -100 q 431 53 431 -11 q 244 244 431 176 l 244 335 q 342 421 313 376 q 372 524 372 465 q 344 607 372 575 q 272 639 317 639 q 61 567 217 639 l 19 661 l 210 814 q 296 825 257 825 q 488 795 400 825 q 626 715 575 765 q 678 603 678 664 q 611 472 671 533 q 440 351 551 411 l 439 353 z "},"4":{"ha":1025,"x_min":42,"x_max":1046,"o":"m 833 57 l 833 -215 l 556 -297 l 556 57 l 42 57 l 42 156 l 556 768 l 833 850 l 833 211 l 1046 211 l 997 57 l 833 57 m 556 553 l 269 211 l 556 211 l 556 553 z "},"5":{"ha":869,"x_min":49,"x_max":788,"o":"m 244 488 q 577 365 460 425 q 741 241 694 306 q 788 89 788 176 q 687 -114 788 -28 q 437 -256 586 -200 q 83 -367 288 -312 l 49 -244 q 323 -151 231 -192 q 449 -71 415 -110 q 482 24 482 -32 q 452 106 482 71 q 337 177 422 140 q 83 261 251 214 l 192 810 l 600 810 l 654 936 l 751 908 l 751 506 l 619 531 l 251 531 l 243 486 l 244 488 z "},"6":{"ha":1088,"x_min":97,"x_max":1018,"o":"m 890 1114 q 599 898 707 1001 q 444 693 492 794 q 397 478 397 592 q 421 320 397 393 q 490 203 444 247 q 597 158 535 158 q 718 331 718 158 q 659 538 718 457 q 511 661 600 618 l 582 779 q 797 729 696 779 q 958 595 897 679 q 1018 414 1018 511 q 944 206 1018 306 q 753 47 871 107 q 511 -14 635 -14 q 300 42 394 -14 q 151 200 206 99 q 97 432 97 301 q 260 837 97 638 q 829 1226 424 1036 l 890 1114 z "},"7":{"ha":914,"x_min":83,"x_max":900,"o":"m 900 701 l 301 -367 l 189 -317 l 667 532 l 236 532 l 181 404 l 83 432 l 83 835 l 215 810 l 900 810 l 900 701 z "},"8":{"ha":1092,"x_min":67,"x_max":1019,"o":"m 714 686 q 874 585 814 628 q 977 483 935 542 q 1019 353 1019 425 q 945 192 1019 278 q 765 46 871 106 q 575 -14 660 -14 q 311 30 426 -14 q 131 149 196 74 q 67 317 67 225 q 133 456 67 386 q 350 621 199 525 q 196 751 251 685 q 140 901 140 817 q 210 1044 140 968 q 379 1174 279 1121 q 561 1226 479 1226 q 758 1192 672 1226 q 890 1101 843 1158 q 938 975 938 1043 q 887 851 933 915 q 715 686 840 788 l 714 686 m 557 1074 q 472 1043 503 1074 q 440 965 440 1013 q 485 851 440 903 q 614 746 531 800 q 656 835 647 801 q 665 910 665 868 q 635 1026 665 979 q 556 1074 604 1074 l 557 1074 m 585 139 q 685 183 647 139 q 722 289 722 228 q 685 390 722 343 q 594 473 649 436 q 446 565 540 510 q 385 469 400 508 q 369 383 369 431 q 399 262 369 318 q 478 172 429 206 q 585 139 528 139 z "},"9":{"ha":1088,"x_min":69,"x_max":990,"o":"m 576 824 q 788 767 693 824 q 936 610 882 711 q 990 378 990 508 q 928 128 990 249 q 706 -117 865 8 q 272 -367 547 -243 l 211 -254 q 495 -55 390 -149 q 645 132 600 39 q 690 333 690 225 q 667 488 690 415 q 599 606 644 561 q 490 651 554 651 q 369 479 369 651 q 428 272 369 353 q 576 149 488 192 l 506 31 q 291 81 392 31 q 130 215 190 131 q 69 396 69 299 q 143 603 69 504 q 335 763 217 703 q 576 824 453 824 z "}," ":{"ha":388,"x_min":0,"x_max":0,"o":""},"A":{"ha":1310,"x_min":0,"x_max":1324,"o":"m 1268 0 l 693 0 l 693 99 l 858 185 l 788 360 l 382 360 l 325 218 l 519 111 l 464 0 l 0 0 l 0 99 l 163 219 l 496 1047 l 793 1118 l 1179 176 l 1324 111 l 1268 0 m 582 864 l 433 492 l 733 492 l 582 864 z "},"Á":{"ha":1310,"x_min":0,"x_max":1324,"o":"m 1268 0 l 693 0 l 693 99 l 858 185 l 788 360 l 382 360 l 325 218 l 519 111 l 464 0 l 0 0 l 0 99 l 163 219 l 496 1047 l 793 1118 l 1179 176 l 1324 111 l 1268 0 m 582 864 l 433 492 l 733 492 l 582 864 m 993 1461 l 601 1261 l 507 1304 l 656 1576 l 953 1550 l 993 1461 z "},"Ă":{"ha":1310,"x_min":0,"x_max":1324,"o":"m 1268 0 l 693 0 l 693 99 l 858 185 l 788 360 l 382 360 l 325 218 l 519 111 l 464 0 l 0 0 l 0 99 l 163 219 l 496 1047 l 793 1118 l 1179 176 l 1324 111 l 1268 0 m 582 864 l 433 492 l 733 492 l 582 864 m 1019 1575 q 940 1399 1000 1478 q 799 1274 881 1319 q 638 1228 718 1228 q 438 1272 533 1228 q 296 1388 343 1315 l 535 1576 q 590 1468 550 1508 q 690 1428 629 1428 q 785 1494 764 1428 l 1019 1575 z "},"Â":{"ha":1310,"x_min":0,"x_max":1324,"o":"m 1268 0 l 693 0 l 693 99 l 858 185 l 788 360 l 382 360 l 325 218 l 519 111 l 464 0 l 0 0 l 0 99 l 163 219 l 496 1047 l 793 1118 l 1179 176 l 1324 111 l 1268 0 m 582 864 l 433 492 l 733 492 l 582 864 m 986 1282 l 689 1256 l 604 1413 l 344 1253 l 283 1354 l 635 1571 l 1026 1371 l 986 1282 z "},"Ä":{"ha":1310,"x_min":0,"x_max":1324,"o":"m 367 1247 q 265 1288 306 1247 q 224 1388 224 1328 q 253 1468 224 1431 q 326 1528 282 1506 q 411 1550 369 1550 q 514 1508 474 1550 q 554 1407 554 1467 q 525 1328 554 1365 q 452 1269 496 1292 q 367 1247 408 1247 m 881 1247 q 778 1288 819 1247 q 738 1388 738 1328 q 767 1468 738 1431 q 840 1528 796 1506 q 925 1550 883 1550 q 1028 1508 988 1550 q 1068 1407 1068 1467 q 1039 1328 1068 1365 q 966 1269 1010 1292 q 881 1247 922 1247 m 1268 0 l 693 0 l 693 99 l 858 185 l 788 360 l 382 360 l 325 218 l 519 111 l 464 0 l 0 0 l 0 99 l 163 219 l 496 1047 l 793 1118 l 1179 176 l 1324 111 l 1268 0 m 582 864 l 433 492 l 733 492 l 582 864 z "},"À":{"ha":1310,"x_min":0,"x_max":1324,"o":"m 1268 0 l 693 0 l 693 99 l 858 185 l 788 360 l 382 360 l 325 218 l 519 111 l 464 0 l 0 0 l 0 99 l 163 219 l 496 1047 l 793 1118 l 1179 176 l 1324 111 l 1268 0 m 582 864 l 433 492 l 733 492 l 582 864 m 692 1261 l 300 1461 l 340 1550 l 638 1576 l 786 1304 l 692 1261 z "},"Ā":{"ha":1310,"x_min":0,"x_max":1324,"o":"m 1268 0 l 693 0 l 693 99 l 858 185 l 788 360 l 382 360 l 325 218 l 519 111 l 464 0 l 0 0 l 0 99 l 163 219 l 496 1047 l 793 1118 l 1179 176 l 1324 111 l 1268 0 m 582 864 l 433 492 l 733 492 l 582 864 m 272 1468 l 1019 1468 l 1019 1336 l 272 1336 l 272 1468 z "},"Ą":{"ha":1310,"x_min":0,"x_max":1324,"o":"m 1222 -129 q 1238 -164 1222 -153 q 1290 -175 1254 -175 l 1290 -283 l 1186 -367 q 1012 -309 1072 -351 q 951 -203 951 -267 q 963 -143 951 -162 l 1140 0 l 693 0 l 693 99 l 858 185 l 788 360 l 382 360 l 325 218 l 519 111 l 464 0 l 0 0 l 0 99 l 163 219 l 496 1047 l 793 1118 l 1179 176 l 1324 111 l 1268 0 q 1222 -129 1222 -87 m 582 864 l 433 492 l 733 492 l 582 864 z "},"Å":{"ha":1310,"x_min":0,"x_max":1324,"o":"m 1268 0 l 693 0 l 693 99 l 858 185 l 788 360 l 382 360 l 325 218 l 519 111 l 464 0 l 0 0 l 0 99 l 163 219 l 496 1047 l 793 1118 l 1179 176 l 1324 111 l 1268 0 m 582 864 l 433 492 l 733 492 l 582 864 m 694 1578 q 801 1558 754 1578 q 876 1503 849 1538 q 903 1428 903 1469 q 855 1331 903 1376 q 735 1257 807 1285 q 596 1229 664 1229 q 490 1249 538 1229 q 415 1303 442 1269 q 388 1379 388 1338 q 435 1476 388 1431 q 555 1550 483 1522 q 694 1578 626 1578 m 614 1475 q 580 1464 592 1475 q 568 1432 568 1453 q 597 1360 568 1389 q 676 1332 625 1332 q 722 1376 722 1332 q 694 1447 722 1419 q 614 1475 665 1475 z "},"Ã":{"ha":1310,"x_min":0,"x_max":1324,"o":"m 1268 0 l 693 0 l 693 99 l 858 185 l 788 360 l 382 360 l 325 218 l 519 111 l 464 0 l 0 0 l 0 99 l 163 219 l 496 1047 l 793 1118 l 1179 176 l 1324 111 l 1268 0 m 582 864 l 433 492 l 733 492 l 582 864 m 632 1607 q 740 1509 701 1538 q 808 1481 778 1481 q 858 1497 832 1481 l 943 1550 l 1004 1449 l 654 1233 q 547 1332 585 1304 q 479 1360 508 1360 q 426 1342 458 1360 l 343 1290 l 282 1392 l 632 1607 z "},"Æ":{"ha":1571,"x_min":-1,"x_max":1501,"o":"m 1383 0 l 535 0 l 535 99 l 665 201 l 665 492 l 464 492 l 335 197 l 463 111 l 407 0 l -1 0 l -1 99 l 169 225 l 486 933 l 315 981 l 371 1092 l 1372 1092 l 1488 1117 l 1488 742 l 1390 700 l 1215 960 l 967 960 l 967 624 l 1046 624 l 1147 767 l 1246 767 l 1246 372 l 1135 317 l 1042 492 l 967 492 l 967 132 l 1203 132 l 1404 419 l 1501 378 l 1499 -25 l 1383 0 m 665 950 l 521 624 l 665 624 l 665 950 z "},"B":{"ha":1110,"x_min":26,"x_max":1094,"o":"m 888 594 q 1040 481 985 554 q 1094 319 1094 408 q 1015 155 1094 232 q 819 32 936 78 q 594 -14 701 -14 q 458 -7 525 -14 q 286 0 347 0 l 54 0 l 54 99 l 185 201 l 185 943 l 26 981 l 82 1092 l 285 1092 q 533 1100 411 1092 q 672 1106 628 1106 q 865 1069 782 1106 q 994 972 949 1033 q 1039 833 1039 910 q 998 705 1039 767 q 888 593 957 643 l 888 594 m 728 756 q 687 906 728 850 q 565 963 646 963 q 485 950 522 963 l 485 604 l 614 604 q 728 756 728 604 m 633 144 q 742 181 703 144 q 782 282 782 217 q 736 426 782 369 q 601 488 690 482 l 575 488 l 485 488 l 485 169 q 635 146 551 146 l 633 144 z "},"C":{"ha":1176,"x_min":69,"x_max":1135,"o":"m 722 1119 q 922 1099 808 1119 q 1089 1054 1036 1078 l 1089 743 l 911 743 q 791 888 860 842 q 642 933 722 933 q 517 888 574 933 q 428 764 461 843 q 396 588 396 685 q 429 387 396 478 q 531 242 463 296 q 699 188 599 188 q 1071 304 831 188 l 1135 201 l 879 3 q 752 -22 813 -17 q 621 -28 692 -28 q 333 43 458 -28 q 139 238 208 114 q 69 521 69 363 q 173 822 69 683 q 430 1040 276 960 q 722 1119 583 1119 z "},"Ć":{"ha":1176,"x_min":69,"x_max":1135,"o":"m 722 1119 q 922 1099 808 1119 q 1089 1054 1036 1078 l 1089 743 l 911 743 q 791 888 860 842 q 642 933 722 933 q 517 888 574 933 q 428 764 461 843 q 396 588 396 685 q 429 387 396 478 q 531 242 463 296 q 699 188 599 188 q 1071 304 831 188 l 1135 201 l 879 3 q 752 -22 813 -17 q 621 -28 692 -28 q 333 43 458 -28 q 139 238 208 114 q 69 521 69 363 q 173 822 69 683 q 430 1040 276 960 q 722 1119 583 1119 m 979 1461 l 588 1261 l 493 1304 l 642 1576 l 939 1550 l 979 1461 z "},"Č":{"ha":1176,"x_min":69,"x_max":1135,"o":"m 722 1119 q 922 1099 808 1119 q 1089 1054 1036 1078 l 1089 743 l 911 743 q 791 888 860 842 q 642 933 722 933 q 517 888 574 933 q 428 764 461 843 q 396 588 396 685 q 429 387 396 478 q 531 242 463 296 q 699 188 599 188 q 1071 304 831 188 l 1135 201 l 879 3 q 752 -22 813 -17 q 621 -28 692 -28 q 333 43 458 -28 q 139 238 208 114 q 69 521 69 363 q 173 822 69 683 q 430 1040 276 960 q 722 1119 583 1119 m 643 1261 l 251 1461 l 292 1550 l 589 1576 l 674 1419 l 933 1579 l 994 1478 l 643 1261 z "},"Ç":{"ha":1176,"x_min":69,"x_max":1135,"o":"m 878 1 q 757 -22 821 -15 q 688 -82 735 -43 q 790 -154 763 -122 q 817 -228 817 -186 q 738 -326 817 -292 q 494 -367 658 -360 l 494 -268 q 551 -238 535 -254 q 568 -197 568 -222 q 552 -150 568 -171 q 492 -99 536 -129 q 578 -26 550 -51 q 311 56 426 -17 q 133 249 196 128 q 69 521 69 369 q 173 822 69 683 q 430 1040 276 960 q 722 1119 583 1119 q 922 1099 808 1119 q 1089 1054 1036 1078 l 1089 743 l 911 743 q 791 888 860 842 q 642 933 722 933 q 517 888 574 933 q 428 764 461 843 q 396 588 396 685 q 429 387 396 478 q 531 242 463 296 q 699 188 599 188 q 1071 304 831 188 l 1135 201 l 879 3 l 878 1 z "},"Ċ":{"ha":1176,"x_min":69,"x_max":1135,"o":"m 722 1119 q 922 1099 808 1119 q 1089 1054 1036 1078 l 1089 743 l 911 743 q 791 888 860 842 q 642 933 722 933 q 517 888 574 933 q 428 764 461 843 q 396 588 396 685 q 429 387 396 478 q 531 242 463 296 q 699 188 599 188 q 1071 304 831 188 l 1135 201 l 879 3 q 752 -22 813 -17 q 621 -28 692 -28 q 333 43 458 -28 q 139 238 208 114 q 69 521 69 363 q 173 822 69 683 q 430 1040 276 960 q 722 1119 583 1119 m 653 1539 q 767 1496 722 1539 q 813 1389 813 1453 q 780 1306 813 1344 q 699 1243 747 1267 q 604 1219 650 1219 q 490 1263 536 1219 q 444 1368 444 1306 q 477 1452 444 1413 q 558 1515 510 1492 q 653 1539 607 1539 z "},"D":{"ha":1304,"x_min":28,"x_max":1235,"o":"m 681 1106 q 970 1037 844 1106 q 1165 846 1096 968 q 1235 569 1235 724 q 1131 277 1235 411 q 874 65 1028 143 q 582 -14 721 -14 q 458 -7 521 -14 q 301 0 358 0 l 56 0 l 56 99 l 186 201 l 186 933 l 28 981 l 83 1092 l 300 1092 q 549 1100 426 1092 q 681 1106 638 1106 m 621 131 q 766 179 700 131 q 870 313 832 228 q 908 504 908 399 q 872 734 908 631 q 759 899 835 838 q 572 961 683 961 q 486 938 526 961 l 486 153 q 621 131 546 131 z "},"Ð":{"ha":1304,"x_min":0,"x_max":1235,"o":"m 681 1106 q 970 1037 844 1106 q 1165 846 1096 968 q 1235 569 1235 724 q 1131 277 1235 411 q 874 65 1028 143 q 582 -14 721 -14 q 458 -7 521 -14 q 301 0 358 0 l 56 0 l 56 99 l 186 201 l 186 471 l 0 471 l 0 603 l 186 603 l 186 933 l 28 981 l 83 1092 l 300 1092 q 549 1100 426 1092 q 681 1106 638 1106 m 621 131 q 766 179 700 131 q 870 313 832 228 q 908 504 908 399 q 872 734 908 631 q 759 899 835 838 q 572 961 683 961 q 486 938 526 961 l 486 603 l 749 603 l 749 471 l 486 471 l 486 153 q 621 131 546 131 z "},"Ď":{"ha":1304,"x_min":28,"x_max":1235,"o":"m 681 1106 q 970 1037 844 1106 q 1165 846 1096 968 q 1235 569 1235 724 q 1131 277 1235 411 q 874 65 1028 143 q 582 -14 721 -14 q 458 -7 521 -14 q 301 0 358 0 l 56 0 l 56 99 l 186 201 l 186 933 l 28 981 l 83 1092 l 300 1092 q 549 1100 426 1092 q 681 1106 638 1106 m 621 131 q 766 179 700 131 q 870 313 832 228 q 908 504 908 399 q 872 734 908 631 q 759 899 835 838 q 572 961 683 961 q 486 938 526 961 l 486 153 q 621 131 546 131 m 601 1261 l 210 1461 l 250 1550 l 547 1576 l 632 1419 l 892 1579 l 953 1478 l 601 1261 z "},"Đ":{"ha":1304,"x_min":0,"x_max":1235,"o":"m 681 1106 q 970 1037 844 1106 q 1165 846 1096 968 q 1235 569 1235 724 q 1131 277 1235 411 q 874 65 1028 143 q 582 -14 721 -14 q 458 -7 521 -14 q 301 0 358 0 l 56 0 l 56 99 l 186 201 l 186 471 l 0 471 l 0 603 l 186 603 l 186 933 l 28 981 l 83 1092 l 300 1092 q 549 1100 426 1092 q 681 1106 638 1106 m 621 131 q 766 179 700 131 q 870 313 832 228 q 908 504 908 399 q 872 734 908 631 q 759 899 835 838 q 572 961 683 961 q 486 938 526 961 l 486 603 l 749 603 l 749 471 l 486 471 l 486 153 q 621 131 546 131 z "},"E":{"ha":1144,"x_min":28,"x_max":1075,"o":"m 960 0 l 56 0 l 56 99 l 186 201 l 186 938 l 28 981 l 83 1092 l 946 1092 l 1061 1117 l 1061 742 l 964 700 l 789 960 l 485 960 l 485 624 l 619 624 l 721 767 l 819 767 l 819 372 l 708 317 l 615 492 l 485 492 l 485 132 l 776 132 l 978 419 l 1075 378 l 1075 -25 l 960 0 z "},"É":{"ha":1144,"x_min":28,"x_max":1075,"o":"m 960 0 l 56 0 l 56 99 l 186 201 l 186 938 l 28 981 l 83 1092 l 946 1092 l 1061 1117 l 1061 742 l 964 700 l 789 960 l 485 960 l 485 624 l 619 624 l 721 767 l 819 767 l 819 372 l 708 317 l 615 492 l 485 492 l 485 132 l 776 132 l 978 419 l 1075 378 l 1075 -25 l 960 0 m 940 1461 l 549 1261 l 454 1304 l 603 1576 l 900 1550 l 940 1461 z "},"Ě":{"ha":1144,"x_min":28,"x_max":1075,"o":"m 960 0 l 56 0 l 56 99 l 186 201 l 186 938 l 28 981 l 83 1092 l 946 1092 l 1061 1117 l 1061 742 l 964 700 l 789 960 l 485 960 l 485 624 l 619 624 l 721 767 l 819 767 l 819 372 l 708 317 l 615 492 l 485 492 l 485 132 l 776 132 l 978 419 l 1075 378 l 1075 -25 l 960 0 m 604 1261 l 213 1461 l 253 1550 l 550 1576 l 635 1419 l 894 1579 l 956 1478 l 604 1261 z "},"Ê":{"ha":1144,"x_min":28,"x_max":1075,"o":"m 960 0 l 56 0 l 56 99 l 186 201 l 186 938 l 28 981 l 83 1092 l 946 1092 l 1061 1117 l 1061 742 l 964 700 l 789 960 l 485 960 l 485 624 l 619 624 l 721 767 l 819 767 l 819 372 l 708 317 l 615 492 l 485 492 l 485 132 l 776 132 l 978 419 l 1075 378 l 1075 -25 l 960 0 m 933 1282 l 636 1256 l 551 1413 l 292 1253 l 231 1354 l 582 1571 l 974 1371 l 933 1282 z "},"Ë":{"ha":1144,"x_min":28,"x_max":1075,"o":"m 314 1247 q 212 1288 253 1247 q 171 1388 171 1328 q 200 1468 171 1431 q 273 1528 229 1506 q 358 1550 317 1550 q 461 1508 421 1550 q 501 1407 501 1467 q 472 1328 501 1365 q 399 1269 443 1292 q 314 1247 356 1247 m 828 1247 q 726 1288 767 1247 q 685 1388 685 1328 q 714 1468 685 1431 q 787 1528 743 1506 q 872 1550 831 1550 q 975 1508 935 1550 q 1015 1407 1015 1467 q 986 1328 1015 1365 q 913 1269 957 1292 q 828 1247 869 1247 m 960 0 l 56 0 l 56 99 l 186 201 l 186 938 l 28 981 l 83 1092 l 946 1092 l 1061 1117 l 1061 742 l 964 700 l 789 960 l 485 960 l 485 624 l 619 624 l 721 767 l 819 767 l 819 372 l 708 317 l 615 492 l 485 492 l 485 132 l 776 132 l 978 419 l 1075 378 l 1075 -25 l 960 0 z "},"Ė":{"ha":1144,"x_min":28,"x_max":1075,"o":"m 960 0 l 56 0 l 56 99 l 186 201 l 186 938 l 28 981 l 83 1092 l 946 1092 l 1061 1117 l 1061 742 l 964 700 l 789 960 l 485 960 l 485 624 l 619 624 l 721 767 l 819 767 l 819 372 l 708 317 l 615 492 l 485 492 l 485 132 l 776 132 l 978 419 l 1075 378 l 1075 -25 l 960 0 m 614 1539 q 728 1496 683 1539 q 774 1389 774 1453 q 741 1306 774 1344 q 660 1243 708 1267 q 565 1219 611 1219 q 451 1263 497 1219 q 406 1368 406 1306 q 438 1452 406 1413 q 519 1515 471 1492 q 614 1539 568 1539 z "},"È":{"ha":1144,"x_min":28,"x_max":1075,"o":"m 960 0 l 56 0 l 56 99 l 186 201 l 186 938 l 28 981 l 83 1092 l 946 1092 l 1061 1117 l 1061 742 l 964 700 l 789 960 l 485 960 l 485 624 l 619 624 l 721 767 l 819 767 l 819 372 l 708 317 l 615 492 l 485 492 l 485 132 l 776 132 l 978 419 l 1075 378 l 1075 -25 l 960 0 m 639 1261 l 247 1461 l 288 1550 l 585 1576 l 733 1304 l 639 1261 z "},"Ē":{"ha":1144,"x_min":28,"x_max":1075,"o":"m 960 0 l 56 0 l 56 99 l 186 201 l 186 938 l 28 981 l 83 1092 l 946 1092 l 1061 1117 l 1061 742 l 964 700 l 789 960 l 485 960 l 485 624 l 619 624 l 721 767 l 819 767 l 819 372 l 708 317 l 615 492 l 485 492 l 485 132 l 776 132 l 978 419 l 1075 378 l 1075 -25 l 960 0 m 219 1468 l 967 1468 l 967 1336 l 219 1336 l 219 1468 z "},"Ę":{"ha":1144,"x_min":28,"x_max":1075,"o":"m 1003 -10 q 963 -129 963 -90 q 978 -164 963 -153 q 1031 -175 994 -175 l 1031 -283 l 926 -367 q 752 -309 813 -351 q 692 -203 692 -267 q 703 -143 692 -162 l 881 0 l 56 0 l 56 99 l 186 201 l 186 938 l 28 981 l 83 1092 l 946 1092 l 1061 1117 l 1061 742 l 964 700 l 789 960 l 485 960 l 485 624 l 619 624 l 721 767 l 819 767 l 819 372 l 708 317 l 615 492 l 485 492 l 485 132 l 776 132 l 978 419 l 1075 378 l 1075 -25 l 1003 -10 z "},"F":{"ha":1089,"x_min":28,"x_max":1061,"o":"m 1061 742 l 964 700 l 782 960 l 485 960 l 485 624 l 619 624 l 721 767 l 819 767 l 819 344 l 708 289 l 613 492 l 485 492 l 485 160 l 742 111 l 686 0 l 56 0 l 56 99 l 186 201 l 186 938 l 28 981 l 83 1092 l 946 1092 l 1061 1117 l 1061 742 z "},"G":{"ha":1333,"x_min":69,"x_max":1299,"o":"m 1167 258 l 1204 161 l 949 4 q 808 -21 875 -15 q 663 -26 740 -26 q 353 44 488 -26 q 144 240 218 115 q 69 522 69 364 q 180 823 69 685 q 453 1041 290 961 q 764 1121 617 1121 q 978 1100 856 1121 q 1158 1056 1101 1079 l 1158 689 l 981 689 q 848 876 924 817 q 683 935 772 935 q 538 890 604 935 q 434 765 472 844 q 396 589 396 686 q 433 374 396 471 q 549 219 471 278 q 740 161 626 161 l 783 161 q 868 164 838 161 l 868 401 l 640 453 l 696 564 l 1299 564 l 1299 465 l 1167 350 l 1167 258 z "},"Ğ":{"ha":1333,"x_min":69,"x_max":1299,"o":"m 1167 258 l 1204 161 l 949 4 q 808 -21 875 -15 q 663 -26 740 -26 q 353 44 488 -26 q 144 240 218 115 q 69 522 69 364 q 180 823 69 685 q 453 1041 290 961 q 764 1121 617 1121 q 978 1100 856 1121 q 1158 1056 1101 1079 l 1158 689 l 981 689 q 848 876 924 817 q 683 935 772 935 q 538 890 604 935 q 434 765 472 844 q 396 589 396 686 q 433 374 396 471 q 549 219 471 278 q 740 161 626 161 l 783 161 q 868 164 838 161 l 868 401 l 640 453 l 696 564 l 1299 564 l 1299 465 l 1167 350 l 1167 258 m 1068 1575 q 989 1399 1049 1478 q 848 1274 929 1319 q 686 1228 767 1228 q 487 1272 582 1228 q 344 1388 392 1315 l 583 1576 q 638 1468 599 1508 q 739 1428 678 1428 q 833 1494 813 1428 l 1068 1575 z "},"Ģ":{"ha":1333,"x_min":69,"x_max":1299,"o":"m 1167 258 l 1204 161 l 949 4 q 808 -21 875 -15 q 663 -26 740 -26 q 353 44 488 -26 q 144 240 218 115 q 69 522 69 364 q 180 823 69 685 q 453 1041 290 961 q 764 1121 617 1121 q 978 1100 856 1121 q 1158 1056 1101 1079 l 1158 689 l 981 689 q 848 876 924 817 q 683 935 772 935 q 538 890 604 935 q 434 765 472 844 q 396 589 396 686 q 433 374 396 471 q 549 219 471 278 q 740 161 626 161 l 783 161 q 868 164 838 161 l 868 401 l 640 453 l 696 564 l 1299 564 l 1299 465 l 1167 350 l 1167 258 m 911 -214 l 733 -422 l 583 -422 l 626 -292 l 496 -226 l 551 -115 l 911 -115 l 911 -214 z "},"Ġ":{"ha":1333,"x_min":69,"x_max":1299,"o":"m 1167 258 l 1204 161 l 949 4 q 808 -21 875 -15 q 663 -26 740 -26 q 353 44 488 -26 q 144 240 218 115 q 69 522 69 364 q 180 823 69 685 q 453 1041 290 961 q 764 1121 617 1121 q 978 1100 856 1121 q 1158 1056 1101 1079 l 1158 689 l 981 689 q 848 876 924 817 q 683 935 772 935 q 538 890 604 935 q 434 765 472 844 q 396 589 396 686 q 433 374 396 471 q 549 219 471 278 q 740 161 626 161 l 783 161 q 868 164 838 161 l 868 401 l 640 453 l 696 564 l 1299 564 l 1299 465 l 1167 350 l 1167 258 m 715 1539 q 830 1496 785 1539 q 875 1389 875 1453 q 842 1306 875 1344 q 761 1243 810 1267 q 667 1219 713 1219 q 553 1263 599 1219 q 507 1368 507 1306 q 540 1452 507 1413 q 621 1515 572 1492 q 715 1539 669 1539 z "},"H":{"ha":1394,"x_min":28,"x_max":1367,"o":"m 1311 0 l 778 0 l 778 99 l 908 213 l 908 478 l 485 478 l 485 153 l 644 111 l 589 0 l 56 0 l 56 99 l 186 213 l 186 938 l 28 979 l 83 1090 l 617 1090 l 617 992 l 485 876 l 485 608 l 908 608 l 908 938 l 750 979 l 806 1090 l 1339 1090 l 1339 992 l 1207 876 l 1207 153 l 1367 111 l 1311 0 z "},"Ħ":{"ha":1394,"x_min":0,"x_max":1393,"o":"m 1207 153 l 1367 111 l 1311 0 l 778 0 l 778 99 l 908 213 l 908 478 l 485 478 l 485 153 l 644 111 l 589 0 l 56 0 l 56 99 l 186 213 l 186 714 l 0 714 l 0 846 l 186 846 l 186 939 l 28 981 l 83 1092 l 617 1092 l 617 993 l 485 878 l 485 846 l 908 846 l 908 939 l 750 981 l 806 1092 l 1339 1092 l 1339 993 l 1207 878 l 1207 846 l 1393 846 l 1393 714 l 1207 714 l 1207 153 m 485 714 l 485 610 l 908 610 l 908 714 l 485 714 z "},"I":{"ha":672,"x_min":28,"x_max":644,"o":"m 589 0 l 56 0 l 56 99 l 186 213 l 186 938 l 28 979 l 83 1090 l 617 1090 l 617 992 l 485 876 l 485 153 l 644 111 l 589 0 z "},"Ĳ":{"ha":1289,"x_min":28,"x_max":1261,"o":"m 589 0 l 56 0 l 56 99 l 186 213 l 186 938 l 28 979 l 83 1090 l 617 1090 l 617 992 l 485 876 l 485 153 l 644 111 l 589 0 m 1129 138 q 1133 35 1129 82 q 1142 -28 1136 -11 l 799 -367 l 690 -283 q 802 -115 774 -185 q 831 57 831 -46 l 831 940 l 644 981 l 700 1092 l 1261 1092 l 1261 993 l 1129 890 l 1129 138 z "},"Í":{"ha":672,"x_min":28,"x_max":683,"o":"m 589 0 l 56 0 l 56 99 l 186 213 l 186 938 l 28 979 l 83 1090 l 617 1090 l 617 992 l 485 876 l 485 153 l 644 111 l 589 0 m 683 1461 l 292 1261 l 197 1304 l 346 1576 l 643 1550 l 683 1461 z "},"Î":{"ha":672,"x_min":-26,"x_max":717,"o":"m 589 0 l 56 0 l 56 99 l 186 213 l 186 938 l 28 979 l 83 1090 l 617 1090 l 617 992 l 485 876 l 485 153 l 644 111 l 589 0 m 676 1282 l 379 1256 l 294 1413 l 35 1253 l -26 1354 l 325 1571 l 717 1371 l 676 1282 z "},"Ï":{"ha":672,"x_min":-32,"x_max":711,"o":"m 281 1407 q 253 1331 281 1367 q 183 1275 225 1296 q 103 1254 142 1254 q 6 1292 44 1254 q -32 1388 -32 1331 q -4 1463 -32 1428 q 65 1520 24 1499 q 144 1542 106 1542 q 242 1503 204 1542 q 281 1407 281 1464 m 575 1542 q 673 1503 635 1542 q 711 1407 711 1464 q 683 1331 711 1367 q 614 1275 656 1296 q 533 1254 572 1254 q 437 1292 475 1254 q 399 1388 399 1331 q 426 1463 399 1428 q 495 1520 454 1499 q 575 1542 536 1542 m 644 113 l 589 1 l 56 1 l 56 100 l 186 214 l 186 939 l 28 981 l 83 1092 l 617 1092 l 617 993 l 485 878 l 485 154 l 644 113 z "},"İ":{"ha":672,"x_min":28,"x_max":644,"o":"m 589 0 l 56 0 l 56 99 l 186 213 l 186 938 l 28 979 l 83 1090 l 617 1090 l 617 992 l 485 876 l 485 153 l 644 111 l 589 0 m 357 1539 q 472 1496 426 1539 q 517 1389 517 1453 q 484 1306 517 1344 q 403 1243 451 1267 q 308 1219 354 1219 q 194 1263 240 1219 q 149 1368 149 1306 q 181 1452 149 1413 q 263 1515 214 1492 q 357 1539 311 1539 z "},"Ì":{"ha":672,"x_min":-10,"x_max":644,"o":"m 589 0 l 56 0 l 56 99 l 186 213 l 186 938 l 28 979 l 83 1090 l 617 1090 l 617 992 l 485 876 l 485 153 l 644 111 l 589 0 m 382 1261 l -10 1461 l 31 1550 l 328 1576 l 476 1304 l 382 1261 z "},"Ī":{"ha":672,"x_min":-37,"x_max":710,"o":"m 589 0 l 56 0 l 56 99 l 186 213 l 186 938 l 28 979 l 83 1090 l 617 1090 l 617 992 l 485 876 l 485 153 l 644 111 l 589 0 m -37 1468 l 710 1468 l 710 1336 l -37 1336 l -37 1468 z "},"Į":{"ha":672,"x_min":28,"x_max":644,"o":"m 543 -129 q 559 -164 543 -153 q 611 -175 575 -175 l 611 -283 l 507 -367 q 333 -309 393 -351 q 272 -203 272 -267 q 283 -143 272 -162 l 461 0 l 56 0 l 56 99 l 186 213 l 186 938 l 28 979 l 83 1090 l 617 1090 l 617 992 l 485 876 l 485 153 l 644 111 l 589 0 q 543 -129 543 -87 z "},"J":{"ha":617,"x_min":-28,"x_max":589,"o":"m 457 138 q 460 35 457 82 q 469 -28 464 -11 l 126 -367 l 18 -283 q 130 -115 101 -185 q 158 57 158 -46 l 158 940 l -28 981 l 28 1092 l 589 1092 l 589 993 l 457 890 l 457 138 z "},"K":{"ha":1292,"x_min":28,"x_max":1275,"o":"m 644 113 l 589 1 l 56 1 l 56 100 l 186 214 l 186 939 l 28 981 l 83 1092 l 617 1092 l 617 993 l 485 878 l 485 154 l 644 113 m 1219 1 l 899 1 l 524 549 l 910 890 l 747 982 l 803 1093 l 1246 1093 l 1246 994 l 819 618 l 1128 179 l 1275 113 l 1219 1 z "},"Ķ":{"ha":1292,"x_min":28,"x_max":1275,"o":"m 644 113 l 589 1 l 56 1 l 56 100 l 186 214 l 186 939 l 28 981 l 83 1092 l 617 1092 l 617 993 l 485 878 l 485 154 l 644 113 m 1219 1 l 899 1 l 524 549 l 910 890 l 747 982 l 803 1093 l 1246 1093 l 1246 994 l 819 618 l 1128 179 l 1275 113 l 1219 1 m 890 -214 l 713 -422 l 563 -422 l 606 -292 l 475 -226 l 531 -115 l 890 -115 l 890 -214 z "},"L":{"ha":1117,"x_min":28,"x_max":1089,"o":"m 974 -1 l 56 -1 l 56 97 l 186 200 l 186 943 l 28 981 l 83 1092 l 617 1092 l 617 993 l 485 890 l 485 132 l 771 132 l 992 447 l 1089 406 l 1089 -26 l 974 -1 z "},"Ĺ":{"ha":1117,"x_min":28,"x_max":1089,"o":"m 974 -1 l 56 -1 l 56 97 l 186 200 l 186 943 l 28 981 l 83 1092 l 617 1092 l 617 993 l 485 890 l 485 132 l 771 132 l 992 447 l 1089 406 l 1089 -26 l 974 -1 m 700 1461 l 308 1261 l 214 1304 l 363 1576 l 660 1550 l 700 1461 z "},"Ľ":{"ha":1117,"x_min":28,"x_max":1089,"o":"m 974 -1 l 56 -1 l 56 97 l 186 200 l 186 943 l 28 981 l 83 1092 l 617 1092 l 617 993 l 485 890 l 485 132 l 771 132 l 992 447 l 1089 406 l 1089 -26 l 974 -1 m 1042 833 l 890 672 l 781 756 q 806 850 797 806 l 725 904 l 725 1003 l 935 1092 l 1042 1092 l 1042 833 z "},"Ļ":{"ha":1117,"x_min":28,"x_max":1089,"o":"m 974 -1 l 56 -1 l 56 97 l 186 200 l 186 943 l 28 981 l 83 1092 l 617 1092 l 617 993 l 485 890 l 485 132 l 771 132 l 992 447 l 1089 406 l 1089 -26 l 974 -1 m 789 -214 l 611 -422 l 461 -422 l 504 -292 l 374 -226 l 429 -115 l 789 -115 l 789 -214 z "},"Ŀ":{"ha":1117,"x_min":28,"x_max":1089,"o":"m 974 -1 l 56 -1 l 56 97 l 186 200 l 186 943 l 28 981 l 83 1092 l 617 1092 l 617 993 l 485 890 l 485 132 l 771 132 l 992 447 l 1089 406 l 1089 -26 l 974 -1 m 869 875 q 984 832 939 875 q 1029 725 1029 789 q 997 642 1029 681 q 915 579 964 603 q 821 556 867 556 q 707 599 753 556 q 661 704 661 642 q 694 788 661 749 q 775 851 726 828 q 869 875 824 875 z "},"Ł":{"ha":1089,"x_min":0,"x_max":1089,"o":"m 974 -1 l 56 -1 l 56 97 l 186 200 l 186 364 l 0 217 l 0 296 l 186 443 l 186 943 l 28 981 l 83 1092 l 617 1092 l 617 993 l 485 890 l 485 619 l 772 846 l 772 767 l 485 540 l 485 132 l 771 132 l 992 447 l 1089 406 l 1089 -26 l 974 -1 z "},"M":{"ha":1633,"x_min":28,"x_max":1606,"o":"m 1550 -1 l 1017 -1 l 1017 97 l 1147 200 l 1147 803 l 818 -1 l 672 -1 l 332 811 l 332 167 l 492 110 l 436 -1 l 56 -1 l 56 97 l 186 200 l 186 921 l 28 981 l 83 1092 l 528 1092 l 826 378 l 1119 1092 l 1578 1092 l 1578 993 l 1446 890 l 1446 149 l 1606 110 l 1550 -1 z "},"N":{"ha":1269,"x_min":28,"x_max":1256,"o":"m 1124 879 l 1124 1 l 978 1 l 332 689 l 332 186 l 561 111 l 506 0 l 56 0 l 56 99 l 186 213 l 186 890 l 28 981 l 83 1092 l 349 1092 l 978 424 l 978 907 l 750 981 l 806 1092 l 1256 1092 l 1256 994 l 1124 879 z "},"Ń":{"ha":1269,"x_min":28,"x_max":1256,"o":"m 1124 879 l 1124 1 l 978 1 l 332 689 l 332 186 l 561 111 l 506 0 l 56 0 l 56 99 l 186 213 l 186 890 l 28 981 l 83 1092 l 349 1092 l 978 424 l 978 907 l 750 981 l 806 1092 l 1256 1092 l 1256 994 l 1124 879 m 989 1461 l 597 1261 l 503 1304 l 651 1576 l 949 1550 l 989 1461 z "},"Ň":{"ha":1269,"x_min":28,"x_max":1256,"o":"m 1124 879 l 1124 1 l 978 1 l 332 689 l 332 186 l 561 111 l 506 0 l 56 0 l 56 99 l 186 213 l 186 890 l 28 981 l 83 1092 l 349 1092 l 978 424 l 978 907 l 750 981 l 806 1092 l 1256 1092 l 1256 994 l 1124 879 m 653 1261 l 261 1461 l 301 1550 l 599 1576 l 683 1419 l 943 1579 l 1004 1478 l 653 1261 z "},"Ņ":{"ha":1269,"x_min":28,"x_max":1256,"o":"m 1124 879 l 1124 1 l 978 1 l 332 689 l 332 186 l 561 111 l 506 0 l 56 0 l 56 99 l 186 213 l 186 890 l 28 981 l 83 1092 l 349 1092 l 978 424 l 978 907 l 750 981 l 806 1092 l 1256 1092 l 1256 994 l 1124 879 m 844 -214 l 667 -422 l 517 -422 l 560 -292 l 429 -226 l 485 -115 l 844 -115 l 844 -214 z "},"Ŋ":{"ha":1269,"x_min":28,"x_max":1256,"o":"m 1124 139 q 1127 37 1124 83 q 1136 -26 1131 -10 l 793 -365 l 685 -282 q 808 -133 765 -196 q 866 -15 850 -71 q 879 107 882 40 l 332 689 l 332 186 l 561 111 l 506 0 l 56 0 l 56 99 l 186 213 l 186 890 l 28 981 l 83 1092 l 349 1092 l 978 424 l 978 907 l 750 981 l 806 1092 l 1256 1092 l 1256 993 l 1124 879 l 1124 139 z "},"Ñ":{"ha":1269,"x_min":28,"x_max":1256,"o":"m 1124 879 l 1124 1 l 978 1 l 332 689 l 332 186 l 561 111 l 506 0 l 56 0 l 56 99 l 186 213 l 186 890 l 28 981 l 83 1092 l 349 1092 l 978 424 l 978 907 l 750 981 l 806 1092 l 1256 1092 l 1256 994 l 1124 879 m 628 1607 q 735 1509 697 1538 q 804 1481 774 1481 q 854 1497 828 1481 l 939 1550 l 1000 1449 l 650 1233 q 542 1332 581 1304 q 475 1360 504 1360 q 422 1342 454 1360 l 339 1290 l 278 1392 l 628 1607 z "},"O":{"ha":1360,"x_min":69,"x_max":1290,"o":"m 729 1119 q 1024 1049 896 1119 q 1221 853 1151 978 q 1290 569 1290 728 q 1185 269 1290 407 q 925 52 1081 132 q 631 -28 769 -28 q 337 42 464 -28 q 140 238 210 113 q 69 521 69 363 q 174 822 69 683 q 435 1040 279 960 q 729 1119 590 1119 m 649 933 q 522 888 579 933 q 430 764 464 843 q 396 588 396 685 q 431 372 396 469 q 537 217 465 275 q 711 158 608 158 q 838 203 781 158 q 930 328 896 249 q 964 504 964 407 q 929 721 964 624 q 824 876 894 818 q 649 933 753 933 z "},"Ó":{"ha":1360,"x_min":69,"x_max":1290,"o":"m 729 1119 q 1024 1049 896 1119 q 1221 853 1151 978 q 1290 569 1290 728 q 1185 269 1290 407 q 925 52 1081 132 q 631 -28 769 -28 q 337 42 464 -28 q 140 238 210 113 q 69 521 69 363 q 174 822 69 683 q 435 1040 279 960 q 729 1119 590 1119 m 649 933 q 522 888 579 933 q 430 764 464 843 q 396 588 396 685 q 431 372 396 469 q 537 217 465 275 q 711 158 608 158 q 838 203 781 158 q 930 328 896 249 q 964 504 964 407 q 929 721 964 624 q 824 876 894 818 q 649 933 753 933 m 1028 1461 l 636 1261 l 542 1304 l 690 1576 l 988 1550 l 1028 1461 z "},"Ô":{"ha":1360,"x_min":69,"x_max":1290,"o":"m 729 1119 q 1024 1049 896 1119 q 1221 853 1151 978 q 1290 569 1290 728 q 1185 269 1290 407 q 925 52 1081 132 q 631 -28 769 -28 q 337 42 464 -28 q 140 238 210 113 q 69 521 69 363 q 174 822 69 683 q 435 1040 279 960 q 729 1119 590 1119 m 649 933 q 522 888 579 933 q 430 764 464 843 q 396 588 396 685 q 431 372 396 469 q 537 217 465 275 q 711 158 608 158 q 838 203 781 158 q 930 328 896 249 q 964 504 964 407 q 929 721 964 624 q 824 876 894 818 q 649 933 753 933 m 1021 1282 l 724 1256 l 639 1413 l 379 1253 l 318 1354 l 669 1571 l 1061 1371 l 1021 1282 z "},"Ö":{"ha":1360,"x_min":69,"x_max":1290,"o":"m 446 1550 q 549 1508 508 1550 q 589 1407 589 1467 q 560 1328 589 1365 q 487 1269 531 1292 q 401 1247 443 1247 q 299 1288 340 1247 q 258 1388 258 1328 q 288 1468 258 1431 q 360 1528 317 1506 q 446 1550 404 1550 m 960 1550 q 1063 1508 1022 1550 q 1103 1407 1103 1467 q 1074 1328 1103 1365 q 1001 1269 1044 1292 q 915 1247 957 1247 q 813 1288 854 1247 q 772 1388 772 1328 q 801 1468 772 1431 q 874 1528 831 1506 q 960 1550 918 1550 m 729 1119 q 1024 1049 896 1119 q 1221 853 1151 978 q 1290 569 1290 728 q 1185 269 1290 407 q 925 52 1081 132 q 631 -28 769 -28 q 337 42 464 -28 q 140 238 210 113 q 69 521 69 363 q 174 822 69 683 q 435 1040 279 960 q 729 1119 590 1119 m 649 933 q 522 888 579 933 q 430 764 464 843 q 396 588 396 685 q 431 372 396 469 q 537 217 465 275 q 711 158 608 158 q 838 203 781 158 q 930 328 896 249 q 964 504 964 407 q 929 721 964 624 q 824 876 894 818 q 649 933 753 933 z "},"Ò":{"ha":1360,"x_min":69,"x_max":1290,"o":"m 729 1119 q 1024 1049 896 1119 q 1221 853 1151 978 q 1290 569 1290 728 q 1185 269 1290 407 q 925 52 1081 132 q 631 -28 769 -28 q 337 42 464 -28 q 140 238 210 113 q 69 521 69 363 q 174 822 69 683 q 435 1040 279 960 q 729 1119 590 1119 m 649 933 q 522 888 579 933 q 430 764 464 843 q 396 588 396 685 q 431 372 396 469 q 537 217 465 275 q 711 158 608 158 q 838 203 781 158 q 930 328 896 249 q 964 504 964 407 q 929 721 964 624 q 824 876 894 818 q 649 933 753 933 m 726 1261 l 335 1461 l 375 1550 l 672 1576 l 821 1304 l 726 1261 z "},"Ő":{"ha":1360,"x_min":69,"x_max":1290,"o":"m 729 1119 q 1024 1049 896 1119 q 1221 853 1151 978 q 1290 569 1290 728 q 1185 269 1290 407 q 925 52 1081 132 q 631 -28 769 -28 q 337 42 464 -28 q 140 238 210 113 q 69 521 69 363 q 174 822 69 683 q 435 1040 279 960 q 729 1119 590 1119 m 649 933 q 522 888 579 933 q 430 764 464 843 q 396 588 396 685 q 431 372 396 469 q 537 217 465 275 q 711 158 608 158 q 838 203 781 158 q 930 328 896 249 q 964 504 964 407 q 929 721 964 624 q 824 876 894 818 q 649 933 753 933 m 736 1461 l 442 1261 l 347 1304 l 440 1576 l 696 1550 l 736 1461 m 1208 1461 l 914 1261 l 819 1304 l 913 1576 l 1168 1550 l 1208 1461 z "},"Ō":{"ha":1360,"x_min":69,"x_max":1290,"o":"m 729 1119 q 1024 1049 896 1119 q 1221 853 1151 978 q 1290 569 1290 728 q 1185 269 1290 407 q 925 52 1081 132 q 631 -28 769 -28 q 337 42 464 -28 q 140 238 210 113 q 69 521 69 363 q 174 822 69 683 q 435 1040 279 960 q 729 1119 590 1119 m 649 933 q 522 888 579 933 q 430 764 464 843 q 396 588 396 685 q 431 372 396 469 q 537 217 465 275 q 711 158 608 158 q 838 203 781 158 q 930 328 896 249 q 964 504 964 407 q 929 721 964 624 q 824 876 894 818 q 649 933 753 933 m 307 1468 l 1054 1468 l 1054 1336 l 307 1336 l 307 1468 z "},"Ø":{"ha":1360,"x_min":69,"x_max":1290,"o":"m 1035 1042 q 1223 849 1156 972 q 1290 569 1290 725 q 1185 269 1290 407 q 925 52 1081 132 q 631 -28 769 -28 q 435 1 525 -28 l 306 -222 l 204 -164 l 326 49 q 137 242 204 119 q 69 521 69 365 q 174 822 69 683 q 435 1040 279 960 q 729 1119 590 1119 q 928 1090 839 1119 l 1056 1313 l 1157 1254 l 1035 1043 l 1035 1042 m 397 586 q 415 426 397 501 q 469 293 433 350 l 811 885 q 649 932 743 932 q 522 887 579 932 q 430 763 464 842 q 396 586 396 683 l 397 586 m 714 154 q 841 199 783 154 q 933 324 899 244 q 967 500 967 403 q 949 660 967 585 q 894 793 931 736 l 554 203 q 713 157 622 157 l 714 154 z "},"Õ":{"ha":1360,"x_min":69,"x_max":1290,"o":"m 729 1119 q 1024 1049 896 1119 q 1221 853 1151 978 q 1290 569 1290 728 q 1185 269 1290 407 q 925 52 1081 132 q 631 -28 769 -28 q 337 42 464 -28 q 140 238 210 113 q 69 521 69 363 q 174 822 69 683 q 435 1040 279 960 q 729 1119 590 1119 m 649 933 q 522 888 579 933 q 430 764 464 843 q 396 588 396 685 q 431 372 396 469 q 537 217 465 275 q 711 158 608 158 q 838 203 781 158 q 930 328 896 249 q 964 504 964 407 q 929 721 964 624 q 824 876 894 818 q 649 933 753 933 m 667 1607 q 774 1509 736 1538 q 843 1481 813 1481 q 893 1497 867 1481 l 978 1550 l 1039 1449 l 689 1233 q 581 1332 619 1304 q 514 1360 543 1360 q 461 1342 493 1360 l 378 1290 l 317 1392 l 667 1607 z "},"Œ":{"ha":1722,"x_min":69,"x_max":1653,"o":"m 1538 0 l 1004 0 q 756 -8 878 0 q 624 -14 667 -14 q 334 55 460 -14 q 139 246 208 124 q 69 522 69 368 q 173 815 69 681 q 430 1027 276 949 q 722 1106 583 1106 q 846 1099 783 1106 q 1003 1092 947 1092 l 1524 1092 l 1639 1117 l 1639 742 l 1542 700 l 1367 960 l 1118 960 l 1118 624 l 1201 624 l 1313 767 l 1411 767 l 1411 372 l 1300 317 l 1197 492 l 1118 492 l 1118 132 l 1354 132 l 1556 419 l 1653 378 l 1653 -25 l 1538 0 m 396 588 q 433 358 396 461 q 545 192 469 254 q 732 131 621 131 q 818 154 778 131 l 818 939 q 683 961 758 961 q 538 913 604 961 q 434 778 472 864 q 396 588 396 693 z "},"P":{"ha":1110,"x_min":28,"x_max":1096,"o":"m 635 546 q 733 597 697 546 q 769 739 769 649 q 723 898 769 836 q 586 960 676 960 q 485 928 532 960 l 485 160 l 742 111 l 686 0 l 56 0 l 56 99 l 186 201 l 186 933 l 28 981 l 83 1092 l 356 1092 q 586 1100 472 1092 q 708 1106 669 1106 q 910 1063 822 1106 q 1047 944 999 1019 q 1096 778 1096 869 q 1016 588 1096 678 q 815 448 936 499 q 581 403 693 397 l 522 436 l 578 547 l 635 547 l 635 546 z "},"Þ":{"ha":1082,"x_min":26,"x_max":1068,"o":"m 633 394 q 712 431 683 394 q 740 532 740 467 q 700 651 740 604 q 585 697 660 697 q 483 665 531 697 l 483 154 l 643 113 l 588 1 l 54 1 l 54 100 l 185 214 l 185 939 l 26 981 l 82 1092 l 615 1092 l 615 993 l 483 878 l 483 831 q 540 833 517 832 q 582 836 564 835 q 708 842 668 842 q 896 806 814 842 q 1023 707 978 769 q 1068 569 1068 644 q 992 408 1068 485 q 802 288 917 332 q 581 250 688 244 l 522 283 l 578 394 l 633 394 z "},"Q":{"ha":1360,"x_min":69,"x_max":1497,"o":"m 1497 -264 q 1101 -367 1208 -367 q 959 -267 1056 -367 q 736 -17 863 -168 q 631 -28 678 -28 q 337 42 464 -28 q 140 238 210 113 q 69 521 69 363 q 174 822 69 683 q 435 1040 279 960 q 729 1119 590 1119 q 1024 1049 896 1119 q 1221 853 1151 978 q 1290 569 1290 728 q 1188 272 1290 408 q 929 54 1085 136 q 1137 -85 1040 -24 q 1254 -146 1233 -146 l 1442 -146 l 1497 -264 m 396 588 q 431 372 396 469 q 537 217 465 275 q 711 158 608 158 q 838 203 781 158 q 930 328 896 249 q 964 504 964 407 q 929 721 964 624 q 824 876 894 818 q 649 933 753 933 q 522 888 579 933 q 430 764 464 843 q 396 588 396 685 z "},"R":{"ha":1208,"x_min":28,"x_max":1222,"o":"m 1167 0 l 839 0 l 594 472 l 536 506 l 578 589 l 635 589 q 733 634 697 589 q 769 761 769 679 q 723 906 769 851 q 586 961 676 961 q 485 929 532 961 l 485 154 l 644 113 l 589 1 l 56 1 l 56 100 l 186 214 l 186 939 l 28 981 l 83 1092 l 356 1092 q 586 1100 472 1092 q 708 1106 669 1106 q 910 1067 822 1106 q 1047 963 999 1029 q 1096 813 1096 896 q 1013 638 1096 718 q 807 511 931 557 l 931 478 l 1090 171 l 1222 111 l 1167 0 z "},"Ŕ":{"ha":1208,"x_min":28,"x_max":1222,"o":"m 1167 0 l 839 0 l 594 472 l 536 506 l 578 589 l 635 589 q 733 634 697 589 q 769 761 769 679 q 723 906 769 851 q 586 961 676 961 q 485 929 532 961 l 485 154 l 644 113 l 589 1 l 56 1 l 56 100 l 186 214 l 186 939 l 28 981 l 83 1092 l 356 1092 q 586 1100 472 1092 q 708 1106 669 1106 q 910 1067 822 1106 q 1047 963 999 1029 q 1096 813 1096 896 q 1013 638 1096 718 q 807 511 931 557 l 931 478 l 1090 171 l 1222 111 l 1167 0 m 931 1461 l 539 1261 l 444 1304 l 593 1576 l 890 1550 l 931 1461 z "},"Ř":{"ha":1208,"x_min":28,"x_max":1222,"o":"m 1167 0 l 839 0 l 594 472 l 536 506 l 578 589 l 635 589 q 733 634 697 589 q 769 761 769 679 q 723 906 769 851 q 586 961 676 961 q 485 929 532 961 l 485 154 l 644 113 l 589 1 l 56 1 l 56 100 l 186 214 l 186 939 l 28 981 l 83 1092 l 356 1092 q 586 1100 472 1092 q 708 1106 669 1106 q 910 1067 822 1106 q 1047 963 999 1029 q 1096 813 1096 896 q 1013 638 1096 718 q 807 511 931 557 l 931 478 l 1090 171 l 1222 111 l 1167 0 m 594 1261 l 203 1461 l 243 1550 l 540 1576 l 625 1419 l 885 1579 l 946 1478 l 594 1261 z "},"Ŗ":{"ha":1208,"x_min":28,"x_max":1222,"o":"m 1167 0 l 839 0 l 594 472 l 536 506 l 578 589 l 635 589 q 733 634 697 589 q 769 761 769 679 q 723 906 769 851 q 586 961 676 961 q 485 929 532 961 l 485 154 l 644 113 l 589 1 l 56 1 l 56 100 l 186 214 l 186 939 l 28 981 l 83 1092 l 356 1092 q 586 1100 472 1092 q 708 1106 669 1106 q 910 1067 822 1106 q 1047 963 999 1029 q 1096 813 1096 896 q 1013 638 1096 718 q 807 511 931 557 l 931 478 l 1090 171 l 1222 111 l 1167 0 m 856 -214 l 678 -422 l 528 -422 l 571 -292 l 440 -226 l 496 -115 l 856 -115 l 856 -214 z "},"S":{"ha":972,"x_min":49,"x_max":931,"o":"m 614 218 q 582 296 614 258 q 503 365 550 333 q 372 446 456 397 q 207 549 269 506 q 100 651 144 593 q 56 781 56 710 q 123 930 56 850 q 288 1065 190 1010 q 467 1119 385 1119 q 697 1099 565 1119 q 889 1054 828 1078 l 889 729 l 711 729 q 595 903 660 840 q 461 967 531 967 q 396 940 419 967 q 372 872 372 914 q 405 788 372 828 q 487 716 438 749 q 621 635 536 683 q 783 535 721 578 q 888 436 844 493 q 931 310 931 379 q 859 160 931 240 q 685 26 788 81 q 497 -29 582 -29 q 253 -8 394 -29 q 49 36 111 13 l 49 361 l 226 361 q 356 186 282 249 q 504 124 429 124 q 584 151 554 124 q 614 218 614 179 z "},"Ś":{"ha":972,"x_min":49,"x_max":931,"o":"m 614 218 q 582 296 614 258 q 503 365 550 333 q 372 446 456 397 q 207 549 269 506 q 100 651 144 593 q 56 781 56 710 q 123 930 56 850 q 288 1065 190 1010 q 467 1119 385 1119 q 697 1099 565 1119 q 889 1054 828 1078 l 889 729 l 711 729 q 595 903 660 840 q 461 967 531 967 q 396 940 419 967 q 372 872 372 914 q 405 788 372 828 q 487 716 438 749 q 621 635 536 683 q 783 535 721 578 q 888 436 844 493 q 931 310 931 379 q 859 160 931 240 q 685 26 788 81 q 497 -29 582 -29 q 253 -8 394 -29 q 49 36 111 13 l 49 361 l 226 361 q 356 186 282 249 q 504 124 429 124 q 584 151 554 124 q 614 218 614 179 m 819 1461 l 428 1261 l 333 1304 l 482 1576 l 779 1550 l 819 1461 z "},"Š":{"ha":972,"x_min":49,"x_max":931,"o":"m 614 218 q 582 296 614 258 q 503 365 550 333 q 372 446 456 397 q 207 549 269 506 q 100 651 144 593 q 56 781 56 710 q 123 930 56 850 q 288 1065 190 1010 q 467 1119 385 1119 q 697 1099 565 1119 q 889 1054 828 1078 l 889 729 l 711 729 q 595 903 660 840 q 461 967 531 967 q 396 940 419 967 q 372 872 372 914 q 405 788 372 828 q 487 716 438 749 q 621 635 536 683 q 783 535 721 578 q 888 436 844 493 q 931 310 931 379 q 859 160 931 240 q 685 26 788 81 q 497 -29 582 -29 q 253 -8 394 -29 q 49 36 111 13 l 49 361 l 226 361 q 356 186 282 249 q 504 124 429 124 q 584 151 554 124 q 614 218 614 179 m 483 1261 l 92 1461 l 132 1550 l 429 1576 l 514 1419 l 774 1579 l 835 1478 l 483 1261 z "},"Ş":{"ha":972,"x_min":49,"x_max":932,"o":"m 932 308 q 852 151 932 235 q 665 15 772 67 q 558 -82 622 -28 q 660 -154 633 -122 q 688 -228 688 -186 q 608 -326 688 -292 q 365 -367 529 -360 l 365 -268 q 422 -238 406 -254 q 439 -197 439 -222 q 423 -150 439 -171 q 363 -99 407 -129 l 446 -28 q 222 -3 342 -22 q 49 36 103 15 l 49 361 l 226 361 q 356 186 282 249 q 504 124 429 124 q 584 151 554 124 q 614 218 614 179 q 582 296 614 258 q 503 365 550 333 q 372 446 456 397 q 207 549 269 506 q 100 651 144 593 q 56 781 56 710 q 123 930 56 850 q 288 1065 190 1010 q 467 1119 385 1119 q 697 1099 565 1119 q 889 1054 828 1078 l 889 729 l 711 729 q 595 903 660 840 q 461 967 531 967 q 396 940 419 967 q 372 872 372 914 q 405 788 372 828 q 487 716 438 749 q 621 635 536 683 q 783 535 721 578 q 888 436 844 493 q 931 310 931 379 l 932 308 z "},"Ș":{"ha":972,"x_min":49,"x_max":931,"o":"m 614 218 q 582 296 614 258 q 503 365 550 333 q 372 446 456 397 q 207 549 269 506 q 100 651 144 593 q 56 781 56 710 q 123 930 56 850 q 288 1065 190 1010 q 467 1119 385 1119 q 697 1099 565 1119 q 889 1054 828 1078 l 889 729 l 711 729 q 595 903 660 840 q 461 967 531 967 q 396 940 419 967 q 372 872 372 914 q 405 788 372 828 q 487 716 438 749 q 621 635 536 683 q 783 535 721 578 q 888 436 844 493 q 931 310 931 379 q 859 160 931 240 q 685 26 788 81 q 497 -29 582 -29 q 253 -8 394 -29 q 49 36 111 13 l 49 361 l 226 361 q 356 186 282 249 q 504 124 429 124 q 584 151 554 124 q 614 218 614 179 m 696 -214 l 518 -422 l 368 -422 l 411 -292 l 281 -226 l 336 -115 l 696 -115 l 696 -214 z "},"ẞ":{"ha":1318,"x_min":28,"x_max":1276,"o":"m 953 722 l 1276 722 l 1276 614 l 914 278 l 1113 278 l 1168 406 l 1265 378 l 1265 -25 l 1133 0 l 546 0 l 546 108 l 908 444 l 557 444 l 557 553 l 907 851 q 797 890 869 863 q 665 937 721 921 q 546 953 608 953 q 481 926 504 953 q 457 858 457 900 l 457 0 l 28 0 l 28 99 l 158 213 l 158 781 q 226 930 158 850 q 390 1065 293 1010 q 569 1119 488 1119 q 817 1108 644 1119 q 963 1099 835 1107 q 1276 1092 1090 1092 l 1276 983 l 953 722 z "},"T":{"ha":1183,"x_min":42,"x_max":1142,"o":"m 1142 714 l 1044 672 l 843 960 l 739 960 l 739 149 l 899 111 l 843 0 l 310 0 l 310 99 l 440 201 l 440 960 l 340 960 l 139 672 l 42 714 l 42 1117 l 157 1092 l 1026 1092 l 1142 1117 l 1142 714 z "},"Ŧ":{"ha":1183,"x_min":42,"x_max":1142,"o":"m 1142 714 l 1044 672 l 843 960 l 739 960 l 739 610 l 1007 610 l 1007 478 l 739 478 l 739 149 l 899 111 l 843 0 l 310 0 l 310 99 l 440 201 l 440 478 l 176 478 l 176 610 l 440 610 l 440 960 l 340 960 l 139 672 l 42 714 l 42 1117 l 157 1092 l 1026 1092 l 1142 1117 l 1142 714 z "},"Ť":{"ha":1183,"x_min":42,"x_max":1142,"o":"m 1142 714 l 1044 672 l 843 960 l 739 960 l 739 149 l 899 111 l 843 0 l 310 0 l 310 99 l 440 201 l 440 960 l 340 960 l 139 672 l 42 714 l 42 1117 l 157 1092 l 1026 1092 l 1142 1117 l 1142 714 m 603 1261 l 211 1461 l 251 1550 l 549 1576 l 633 1419 l 893 1579 l 954 1478 l 603 1261 z "},"Ţ":{"ha":1183,"x_min":42,"x_max":1142,"o":"m 1142 715 l 1044 674 l 843 961 l 739 961 l 739 176 l 815 132 l 899 113 l 843 1 l 733 1 q 642 -81 703 -28 q 744 -153 717 -121 q 771 -226 771 -185 q 692 -324 771 -290 q 449 -365 613 -358 l 449 -267 q 506 -237 489 -253 q 522 -196 522 -221 q 506 -149 522 -169 q 446 -97 490 -128 q 561 0 524 -33 l 310 0 l 310 99 l 440 201 l 440 960 l 340 960 l 139 672 l 42 714 l 42 1117 l 157 1092 l 1026 1092 l 1142 1118 l 1142 715 z "},"Ț":{"ha":1183,"x_min":42,"x_max":1142,"o":"m 1142 714 l 1044 672 l 843 960 l 739 960 l 739 149 l 899 111 l 843 0 l 310 0 l 310 99 l 440 201 l 440 960 l 340 960 l 139 672 l 42 714 l 42 1117 l 157 1092 l 1026 1092 l 1142 1117 l 1142 714 m 781 -214 l 603 -422 l 453 -422 l 496 -292 l 365 -226 l 421 -115 l 781 -115 l 781 -214 z "},"U":{"ha":1247,"x_min":-14,"x_max":1233,"o":"m 1101 890 l 1101 431 q 1027 181 1101 285 q 843 24 953 76 q 629 -28 733 -28 q 378 27 489 -28 q 206 178 268 82 q 144 396 144 275 l 144 943 l -14 981 l 42 1092 l 575 1092 l 575 993 l 443 890 l 443 435 q 513 231 443 304 q 724 158 582 158 q 831 190 778 158 q 920 281 885 221 q 956 421 956 340 l 956 922 l 783 981 l 839 1092 l 1233 1092 l 1233 993 l 1101 890 z "},"Ú":{"ha":1247,"x_min":-14,"x_max":1233,"o":"m 1101 890 l 1101 431 q 1027 181 1101 285 q 843 24 953 76 q 629 -28 733 -28 q 378 27 489 -28 q 206 178 268 82 q 144 396 144 275 l 144 943 l -14 981 l 42 1092 l 575 1092 l 575 993 l 443 890 l 443 435 q 513 231 443 304 q 724 158 582 158 q 831 190 778 158 q 920 281 885 221 q 956 421 956 340 l 956 922 l 783 981 l 839 1092 l 1233 1092 l 1233 993 l 1101 890 m 989 1461 l 597 1261 l 503 1304 l 651 1576 l 949 1550 l 989 1461 z "},"Û":{"ha":1247,"x_min":-14,"x_max":1233,"o":"m 1101 890 l 1101 431 q 1027 181 1101 285 q 843 24 953 76 q 629 -28 733 -28 q 378 27 489 -28 q 206 178 268 82 q 144 396 144 275 l 144 943 l -14 981 l 42 1092 l 575 1092 l 575 993 l 443 890 l 443 435 q 513 231 443 304 q 724 158 582 158 q 831 190 778 158 q 920 281 885 221 q 956 421 956 340 l 956 922 l 783 981 l 839 1092 l 1233 1092 l 1233 993 l 1101 890 m 982 1282 l 685 1256 l 600 1413 l 340 1253 l 279 1354 l 631 1571 l 1022 1371 l 982 1282 z "},"Ü":{"ha":1247,"x_min":-14,"x_max":1233,"o":"m 363 1247 q 260 1288 301 1247 q 219 1388 219 1328 q 249 1468 219 1431 q 322 1528 278 1506 q 407 1550 365 1550 q 510 1508 469 1550 q 550 1407 550 1467 q 521 1328 550 1365 q 448 1269 492 1292 q 363 1247 404 1247 m 876 1247 q 774 1288 815 1247 q 733 1388 733 1328 q 763 1468 733 1431 q 835 1528 792 1506 q 921 1550 879 1550 q 1024 1508 983 1550 q 1064 1407 1064 1467 q 1035 1328 1064 1365 q 962 1269 1006 1292 q 876 1247 918 1247 m 1101 890 l 1101 431 q 1027 181 1101 285 q 843 24 953 76 q 629 -28 733 -28 q 378 27 489 -28 q 206 178 268 82 q 144 396 144 275 l 144 943 l -14 981 l 42 1092 l 575 1092 l 575 993 l 443 890 l 443 435 q 513 231 443 304 q 724 158 582 158 q 831 190 778 158 q 920 281 885 221 q 956 421 956 340 l 956 922 l 783 981 l 839 1092 l 1233 1092 l 1233 993 l 1101 890 z "},"Ù":{"ha":1247,"x_min":-14,"x_max":1233,"o":"m 1101 890 l 1101 431 q 1027 181 1101 285 q 843 24 953 76 q 629 -28 733 -28 q 378 27 489 -28 q 206 178 268 82 q 144 396 144 275 l 144 943 l -14 981 l 42 1092 l 575 1092 l 575 993 l 443 890 l 443 435 q 513 231 443 304 q 724 158 582 158 q 831 190 778 158 q 920 281 885 221 q 956 421 956 340 l 956 922 l 783 981 l 839 1092 l 1233 1092 l 1233 993 l 1101 890 m 688 1261 l 296 1461 l 336 1550 l 633 1576 l 782 1304 l 688 1261 z "},"Ű":{"ha":1247,"x_min":-14,"x_max":1233,"o":"m 1101 890 l 1101 431 q 1027 181 1101 285 q 843 24 953 76 q 629 -28 733 -28 q 378 27 489 -28 q 206 178 268 82 q 144 396 144 275 l 144 943 l -14 981 l 42 1092 l 575 1092 l 575 993 l 443 890 l 443 435 q 513 231 443 304 q 724 158 582 158 q 831 190 778 158 q 920 281 885 221 q 956 421 956 340 l 956 922 l 783 981 l 839 1092 l 1233 1092 l 1233 993 l 1101 890 m 697 1461 l 403 1261 l 308 1304 l 401 1576 l 657 1550 l 697 1461 m 1169 1461 l 875 1261 l 781 1304 l 874 1576 l 1129 1550 l 1169 1461 z "},"Ū":{"ha":1247,"x_min":-14,"x_max":1233,"o":"m 1101 890 l 1101 431 q 1027 181 1101 285 q 843 24 953 76 q 629 -28 733 -28 q 378 27 489 -28 q 206 178 268 82 q 144 396 144 275 l 144 943 l -14 981 l 42 1092 l 575 1092 l 575 993 l 443 890 l 443 435 q 513 231 443 304 q 724 158 582 158 q 831 190 778 158 q 920 281 885 221 q 956 421 956 340 l 956 922 l 783 981 l 839 1092 l 1233 1092 l 1233 993 l 1101 890 m 268 1468 l 1015 1468 l 1015 1336 l 268 1336 l 268 1468 z "},"Ų":{"ha":1247,"x_min":-14,"x_max":1233,"o":"m 1101 889 l 1101 429 q 976 118 1101 246 q 839 -49 871 3 q 807 -125 807 -101 q 832 -164 807 -153 q 917 -175 857 -175 l 917 -283 l 813 -367 q 640 -310 701 -351 q 578 -206 578 -268 q 589 -143 578 -168 l 718 -18 q 629 -28 675 -28 q 378 27 489 -28 q 206 178 268 82 q 144 396 144 275 l 144 943 l -14 981 l 42 1092 l 575 1092 l 575 993 l 443 890 l 443 435 q 513 231 443 304 q 724 158 582 158 q 831 190 778 158 q 920 281 885 221 q 956 421 956 340 l 956 922 l 783 981 l 839 1092 l 1233 1092 l 1233 992 l 1101 889 z "},"Ů":{"ha":1247,"x_min":-14,"x_max":1233,"o":"m 1101 890 l 1101 431 q 1027 181 1101 285 q 843 24 953 76 q 629 -28 733 -28 q 378 27 489 -28 q 206 178 268 82 q 144 396 144 275 l 144 943 l -14 981 l 42 1092 l 575 1092 l 575 993 l 443 890 l 443 435 q 513 231 443 304 q 724 158 582 158 q 831 190 778 158 q 920 281 885 221 q 956 421 956 340 l 956 922 l 783 981 l 839 1092 l 1233 1092 l 1233 993 l 1101 890 m 690 1578 q 797 1558 750 1578 q 872 1503 844 1538 q 899 1428 899 1469 q 851 1331 899 1376 q 731 1257 803 1285 q 592 1229 660 1229 q 485 1249 533 1229 q 410 1303 438 1269 q 383 1379 383 1338 q 431 1476 383 1431 q 551 1550 479 1522 q 690 1578 622 1578 m 610 1475 q 576 1464 588 1475 q 564 1432 564 1453 q 592 1360 564 1389 q 672 1332 621 1332 q 718 1376 718 1332 q 690 1447 718 1419 q 610 1475 661 1475 z "},"V":{"ha":1310,"x_min":-14,"x_max":1310,"o":"m 1147 872 l 814 44 l 517 -26 l 131 915 l -14 981 l 42 1092 l 617 1092 l 617 993 l 451 907 l 726 228 l 985 874 l 790 981 l 846 1092 l 1310 1092 l 1310 993 l 1147 872 z "},"W":{"ha":1851,"x_min":-14,"x_max":1851,"o":"m 1697 881 l 1404 46 l 1107 -25 l 925 475 l 800 46 l 503 -25 l 129 917 l -14 982 l 42 1093 l 533 1093 l 533 994 l 438 925 l 704 239 l 843 701 l 764 919 l 639 981 l 694 1092 l 1228 1092 l 1228 993 l 1081 911 l 1317 235 l 1536 869 l 1332 981 l 1388 1092 l 1851 1092 l 1851 994 l 1697 881 z "},"Ẃ":{"ha":1851,"x_min":-14,"x_max":1851,"o":"m 1697 881 l 1404 46 l 1107 -25 l 925 475 l 800 46 l 503 -25 l 129 917 l -14 982 l 42 1093 l 533 1093 l 533 994 l 438 925 l 704 239 l 843 701 l 764 919 l 639 981 l 694 1092 l 1228 1092 l 1228 993 l 1081 911 l 1317 235 l 1536 869 l 1332 981 l 1388 1092 l 1851 1092 l 1851 994 l 1697 881 m 1313 1461 l 921 1261 l 826 1304 l 975 1576 l 1272 1550 l 1313 1461 z "},"Ŵ":{"ha":1851,"x_min":-14,"x_max":1851,"o":"m 1697 881 l 1404 46 l 1107 -25 l 925 475 l 800 46 l 503 -25 l 129 917 l -14 982 l 42 1093 l 533 1093 l 533 994 l 438 925 l 704 239 l 843 701 l 764 919 l 639 981 l 694 1092 l 1228 1092 l 1228 993 l 1081 911 l 1317 235 l 1536 869 l 1332 981 l 1388 1092 l 1851 1092 l 1851 994 l 1697 881 m 1306 1282 l 1008 1256 l 924 1413 l 664 1253 l 603 1354 l 954 1571 l 1346 1371 l 1306 1282 z "},"Ẅ":{"ha":1851,"x_min":-14,"x_max":1851,"o":"m 686 1247 q 584 1288 625 1247 q 543 1388 543 1328 q 572 1468 543 1431 q 645 1528 601 1506 q 731 1550 689 1550 q 833 1508 793 1550 q 874 1407 874 1467 q 844 1328 874 1365 q 772 1269 815 1292 q 686 1247 728 1247 m 1200 1247 q 1098 1288 1139 1247 q 1057 1388 1057 1328 q 1086 1468 1057 1431 q 1159 1528 1115 1506 q 1244 1550 1203 1550 q 1347 1508 1307 1550 q 1388 1407 1388 1467 q 1358 1328 1388 1365 q 1285 1269 1329 1292 q 1200 1247 1242 1247 m 1697 881 l 1404 46 l 1107 -25 l 925 475 l 800 46 l 503 -25 l 129 917 l -14 982 l 42 1093 l 533 1093 l 533 994 l 438 925 l 704 239 l 843 701 l 764 919 l 639 981 l 694 1092 l 1228 1092 l 1228 993 l 1081 911 l 1317 235 l 1536 869 l 1332 981 l 1388 1092 l 1851 1092 l 1851 994 l 1697 881 z "},"Ẁ":{"ha":1851,"x_min":-14,"x_max":1851,"o":"m 1697 881 l 1404 46 l 1107 -25 l 925 475 l 800 46 l 503 -25 l 129 917 l -14 982 l 42 1093 l 533 1093 l 533 994 l 438 925 l 704 239 l 843 701 l 764 919 l 639 981 l 694 1092 l 1228 1092 l 1228 993 l 1081 911 l 1317 235 l 1536 869 l 1332 981 l 1388 1092 l 1851 1092 l 1851 994 l 1697 881 m 1011 1261 l 619 1461 l 660 1550 l 957 1576 l 1106 1304 l 1011 1261 z "},"X":{"ha":1240,"x_min":0,"x_max":1239,"o":"m 1183 0 l 664 0 l 664 99 l 772 165 l 568 399 l 367 199 l 519 111 l 464 0 l 0 0 l 0 99 l 181 225 l 469 510 l 101 922 l 0 981 l 56 1092 l 575 1092 l 575 993 l 460 935 l 667 699 l 849 892 l 694 981 l 750 1092 l 1214 1092 l 1214 993 l 1049 878 l 769 585 l 1156 151 l 1239 111 l 1183 0 z "},"Y":{"ha":1213,"x_min":-15,"x_max":1213,"o":"m 750 147 l 910 108 l 854 -3 l 335 -3 l 335 96 l 465 199 l 465 346 l 83 935 l -15 979 l 13 1090 l 518 1090 l 518 992 l 428 922 l 660 569 l 886 879 l 693 981 l 749 1092 l 1213 1092 l 1213 993 l 1054 868 l 750 443 l 750 147 z "},"Ý":{"ha":1213,"x_min":-15,"x_max":1213,"o":"m 750 147 l 910 108 l 854 -3 l 335 -3 l 335 96 l 465 199 l 465 346 l 83 935 l -15 979 l 13 1090 l 518 1090 l 518 992 l 428 922 l 660 569 l 886 879 l 693 981 l 749 1092 l 1213 1092 l 1213 993 l 1054 868 l 750 443 l 750 147 m 961 1461 l 569 1261 l 475 1304 l 624 1576 l 921 1550 l 961 1461 z "},"Ŷ":{"ha":1213,"x_min":-15,"x_max":1213,"o":"m 750 147 l 910 108 l 854 -3 l 335 -3 l 335 96 l 465 199 l 465 346 l 83 935 l -15 979 l 13 1090 l 518 1090 l 518 992 l 428 922 l 660 569 l 886 879 l 693 981 l 749 1092 l 1213 1092 l 1213 993 l 1054 868 l 750 443 l 750 147 m 954 1282 l 657 1256 l 572 1413 l 313 1253 l 251 1354 l 603 1571 l 994 1371 l 954 1282 z "},"Ÿ":{"ha":1213,"x_min":-15,"x_max":1213,"o":"m 335 1247 q 233 1288 274 1247 q 192 1388 192 1328 q 221 1468 192 1431 q 294 1528 250 1506 q 379 1550 338 1550 q 482 1508 442 1550 q 522 1407 522 1467 q 493 1328 522 1365 q 420 1269 464 1292 q 335 1247 376 1247 m 849 1247 q 747 1288 788 1247 q 706 1388 706 1328 q 735 1468 706 1431 q 808 1528 764 1506 q 893 1550 851 1550 q 996 1508 956 1550 q 1036 1407 1036 1467 q 1007 1328 1036 1365 q 934 1269 978 1292 q 849 1247 890 1247 m 750 147 l 910 108 l 854 -3 l 335 -3 l 335 96 l 465 199 l 465 346 l 83 935 l -15 979 l 13 1090 l 518 1090 l 518 992 l 428 922 l 660 569 l 886 879 l 693 981 l 749 1092 l 1213 1092 l 1213 993 l 1054 868 l 750 443 l 750 147 z "},"Ỳ":{"ha":1213,"x_min":-15,"x_max":1213,"o":"m 750 147 l 910 108 l 854 -3 l 335 -3 l 335 96 l 465 199 l 465 346 l 83 935 l -15 979 l 13 1090 l 518 1090 l 518 992 l 428 922 l 660 569 l 886 879 l 693 981 l 749 1092 l 1213 1092 l 1213 993 l 1054 868 l 750 443 l 750 147 m 660 1261 l 268 1461 l 308 1550 l 606 1576 l 754 1304 l 660 1261 z "},"Z":{"ha":1097,"x_min":39,"x_max":1050,"o":"m 751 132 l 938 433 l 1035 392 l 1035 -25 l 919 0 l 39 0 l 39 132 l 694 960 l 349 960 l 181 686 l 83 728 l 83 1117 l 199 1092 l 1050 1092 l 1050 960 l 393 132 l 751 132 z "},"Ź":{"ha":1097,"x_min":39,"x_max":1050,"o":"m 751 132 l 938 433 l 1035 392 l 1035 -25 l 919 0 l 39 0 l 39 132 l 694 960 l 349 960 l 181 686 l 83 728 l 83 1117 l 199 1092 l 1050 1092 l 1050 960 l 393 132 l 751 132 m 896 1461 l 504 1261 l 410 1304 l 558 1576 l 856 1550 l 896 1461 z "},"Ž":{"ha":1097,"x_min":39,"x_max":1050,"o":"m 751 132 l 938 433 l 1035 392 l 1035 -25 l 919 0 l 39 0 l 39 132 l 694 960 l 349 960 l 181 686 l 83 728 l 83 1117 l 199 1092 l 1050 1092 l 1050 960 l 393 132 l 751 132 m 560 1261 l 168 1461 l 208 1550 l 506 1576 l 590 1419 l 850 1579 l 911 1478 l 560 1261 z "},"Ż":{"ha":1097,"x_min":39,"x_max":1050,"o":"m 751 132 l 938 433 l 1035 392 l 1035 -25 l 919 0 l 39 0 l 39 132 l 694 960 l 349 960 l 181 686 l 83 728 l 83 1117 l 199 1092 l 1050 1092 l 1050 960 l 393 132 l 751 132 m 569 1539 q 684 1496 639 1539 q 729 1389 729 1453 q 697 1306 729 1344 q 615 1243 664 1267 q 521 1219 567 1219 q 407 1263 453 1219 q 361 1368 361 1306 q 394 1452 361 1413 q 475 1515 426 1492 q 569 1539 524 1539 z "},"a":{"ha":960,"x_min":54,"x_max":951,"o":"m 896 0 l 549 0 l 549 121 l 392 -3 q 322 -14 364 -14 q 117 55 181 -14 q 54 221 54 124 q 86 330 54 276 q 179 429 118 383 l 549 429 q 507 522 544 490 q 413 553 469 553 q 132 494 317 553 l 90 589 l 281 742 q 464 768 357 768 q 732 692 636 768 q 828 471 828 617 l 828 160 l 951 111 l 896 0 m 407 215 q 549 263 468 215 l 549 317 l 338 317 q 328 295 331 304 q 325 272 325 286 q 347 231 325 246 q 408 215 368 215 l 407 215 z "},"á":{"ha":960,"x_min":54,"x_max":951,"o":"m 896 0 l 549 0 l 549 121 l 392 -3 q 322 -14 364 -14 q 117 55 181 -14 q 54 221 54 124 q 86 330 54 276 q 179 429 118 383 l 549 429 q 507 522 544 490 q 413 553 469 553 q 132 494 317 553 l 90 589 l 281 742 q 464 768 357 768 q 732 692 636 768 q 828 471 828 617 l 828 160 l 951 111 l 896 0 m 407 215 q 549 263 468 215 l 549 317 l 338 317 q 328 295 331 304 q 325 272 325 286 q 347 231 325 246 q 408 215 368 215 l 407 215 m 799 1124 l 407 924 l 313 967 l 461 1239 l 758 1213 l 799 1124 z "},"ă":{"ha":960,"x_min":54,"x_max":951,"o":"m 896 0 l 549 0 l 549 121 l 392 -3 q 322 -14 364 -14 q 117 55 181 -14 q 54 221 54 124 q 86 330 54 276 q 179 429 118 383 l 549 429 q 507 522 544 490 q 413 553 469 553 q 132 494 317 553 l 90 589 l 281 742 q 464 768 357 768 q 732 692 636 768 q 828 471 828 617 l 828 160 l 951 111 l 896 0 m 407 215 q 549 263 468 215 l 549 317 l 338 317 q 328 295 331 304 q 325 272 325 286 q 347 231 325 246 q 408 215 368 215 l 407 215 m 825 1238 q 746 1061 806 1140 q 605 936 686 982 q 443 890 524 890 q 244 934 339 890 q 101 1050 149 978 l 340 1239 q 395 1131 356 1171 q 496 1090 435 1090 q 590 1157 569 1090 l 825 1238 z "},"â":{"ha":960,"x_min":54,"x_max":951,"o":"m 896 0 l 549 0 l 549 121 l 392 -3 q 322 -14 364 -14 q 117 55 181 -14 q 54 221 54 124 q 86 330 54 276 q 179 429 118 383 l 549 429 q 507 522 544 490 q 413 553 469 553 q 132 494 317 553 l 90 589 l 281 742 q 464 768 357 768 q 732 692 636 768 q 828 471 828 617 l 828 160 l 951 111 l 896 0 m 407 215 q 549 263 468 215 l 549 317 l 338 317 q 328 295 331 304 q 325 272 325 286 q 347 231 325 246 q 408 215 368 215 l 407 215 m 792 944 l 494 918 l 410 1075 l 150 915 l 89 1017 l 440 1233 l 832 1033 l 792 944 z "},"ä":{"ha":960,"x_min":54,"x_max":951,"o":"m 218 917 q 122 955 160 917 q 83 1050 83 993 q 111 1126 83 1090 q 180 1183 139 1161 q 260 1204 221 1204 q 358 1165 319 1204 q 396 1069 396 1126 q 368 994 396 1029 q 299 938 340 958 q 218 917 257 917 m 649 917 q 552 955 590 917 q 514 1050 514 993 q 542 1126 514 1090 q 610 1183 569 1161 q 690 1204 651 1204 q 788 1165 750 1204 q 826 1069 826 1126 q 799 994 826 1029 q 729 938 771 958 q 649 917 688 917 m 896 0 l 549 0 l 549 121 l 392 -3 q 322 -14 364 -14 q 117 55 181 -14 q 54 221 54 124 q 86 330 54 276 q 179 429 118 383 l 549 429 q 507 522 544 490 q 413 553 469 553 q 132 494 317 553 l 90 589 l 281 742 q 464 768 357 768 q 732 692 636 768 q 828 471 828 617 l 828 160 l 951 111 l 896 0 m 407 215 q 549 263 468 215 l 549 317 l 338 317 q 328 295 331 304 q 325 272 325 286 q 347 231 325 246 q 408 215 368 215 l 407 215 z "},"à":{"ha":960,"x_min":54,"x_max":951,"o":"m 896 0 l 549 0 l 549 121 l 392 -3 q 322 -14 364 -14 q 117 55 181 -14 q 54 221 54 124 q 86 330 54 276 q 179 429 118 383 l 549 429 q 507 522 544 490 q 413 553 469 553 q 132 494 317 553 l 90 589 l 281 742 q 464 768 357 768 q 732 692 636 768 q 828 471 828 617 l 828 160 l 951 111 l 896 0 m 407 215 q 549 263 468 215 l 549 317 l 338 317 q 328 295 331 304 q 325 272 325 286 q 347 231 325 246 q 408 215 368 215 l 407 215 m 497 924 l 106 1124 l 146 1213 l 443 1239 l 592 967 l 497 924 z "},"ā":{"ha":960,"x_min":54,"x_max":951,"o":"m 896 0 l 549 0 l 549 121 l 392 -3 q 322 -14 364 -14 q 117 55 181 -14 q 54 221 54 124 q 86 330 54 276 q 179 429 118 383 l 549 429 q 507 522 544 490 q 413 553 469 553 q 132 494 317 553 l 90 589 l 281 742 q 464 768 357 768 q 732 692 636 768 q 828 471 828 617 l 828 160 l 951 111 l 896 0 m 407 215 q 549 263 468 215 l 549 317 l 338 317 q 328 295 331 304 q 325 272 325 286 q 347 231 325 246 q 408 215 368 215 l 407 215 m 106 1131 l 797 1131 l 797 1018 l 106 1018 l 106 1131 z "},"ą":{"ha":960,"x_min":54,"x_max":953,"o":"m 850 -129 q 866 -164 850 -153 q 918 -175 882 -175 l 918 -283 l 814 -367 q 640 -309 700 -351 q 579 -203 579 -267 q 590 -143 579 -162 l 768 0 l 549 0 l 549 121 l 392 -3 q 322 -14 364 -14 q 117 55 181 -14 q 54 221 54 124 q 86 330 54 276 q 179 429 118 383 l 549 429 q 507 522 544 490 q 413 553 469 553 q 132 494 317 553 l 90 589 l 281 742 q 464 768 357 768 q 732 692 636 768 q 828 471 828 617 l 828 160 l 953 111 l 897 0 q 851 -129 851 -87 l 850 -129 m 407 215 q 549 263 468 215 l 549 317 l 338 317 q 328 295 331 304 q 325 272 325 286 q 347 231 325 246 q 408 215 368 215 l 407 215 z "},"å":{"ha":960,"x_min":54,"x_max":951,"o":"m 896 0 l 549 0 l 549 121 l 392 -3 q 322 -14 364 -14 q 117 55 181 -14 q 54 221 54 124 q 86 330 54 276 q 179 429 118 383 l 549 429 q 507 522 544 490 q 413 553 469 553 q 132 494 317 553 l 90 589 l 281 742 q 464 768 357 768 q 732 692 636 768 q 828 471 828 617 l 828 160 l 951 111 l 896 0 m 407 215 q 549 263 468 215 l 549 317 l 338 317 q 328 295 331 304 q 325 272 325 286 q 347 231 325 246 q 408 215 368 215 l 407 215 m 500 1240 q 607 1220 560 1240 q 681 1166 654 1200 q 708 1090 708 1132 q 660 993 708 1039 q 541 919 613 947 q 401 892 469 892 q 295 912 343 892 q 220 966 247 932 q 193 1042 193 1000 q 241 1139 193 1093 q 360 1213 289 1185 q 500 1240 432 1240 m 419 1138 q 385 1126 397 1138 q 374 1094 374 1115 q 402 1023 374 1051 q 482 994 431 994 q 528 1039 528 994 q 499 1110 528 1082 q 419 1138 471 1138 z "},"ã":{"ha":960,"x_min":54,"x_max":951,"o":"m 896 0 l 549 0 l 549 121 l 392 -3 q 322 -14 364 -14 q 117 55 181 -14 q 54 221 54 124 q 86 330 54 276 q 179 429 118 383 l 549 429 q 507 522 544 490 q 413 553 469 553 q 132 494 317 553 l 90 589 l 281 742 q 464 768 357 768 q 732 692 636 768 q 828 471 828 617 l 828 160 l 951 111 l 896 0 m 407 215 q 549 263 468 215 l 549 317 l 338 317 q 328 295 331 304 q 325 272 325 286 q 347 231 325 246 q 408 215 368 215 l 407 215 m 438 1269 q 545 1172 507 1200 q 614 1143 583 1143 q 664 1160 638 1143 l 749 1213 l 810 1111 l 460 896 q 352 994 390 967 q 285 1022 314 1022 q 232 1004 264 1022 l 149 953 l 88 1054 l 438 1269 z "},"æ":{"ha":1342,"x_min":56,"x_max":1276,"o":"m 967 767 q 1196 651 1115 767 q 1272 324 1276 536 l 808 324 q 859 223 824 260 q 949 186 894 186 q 1229 258 1043 186 l 1271 164 l 1081 11 q 868 -15 992 -15 q 719 17 788 -15 q 603 108 650 50 l 463 -3 q 324 -14 407 -14 q 119 55 182 -14 q 56 221 56 124 q 88 330 56 276 q 181 429 119 383 l 522 429 q 484 522 518 490 q 399 553 450 553 q 132 494 307 553 l 90 589 l 281 742 q 450 768 350 768 q 713 679 625 768 q 839 744 772 721 q 967 768 906 768 l 967 767 m 890 581 q 824 545 846 581 q 799 436 801 510 l 1001 436 q 969 545 994 510 q 892 581 943 581 l 890 581 m 421 185 q 544 208 475 185 q 521 315 525 261 l 338 315 q 328 294 331 303 q 325 271 325 285 q 351 208 325 231 q 422 186 376 186 l 421 185 z "},"b":{"ha":1035,"x_min":7,"x_max":965,"o":"m 646 769 q 810 722 738 769 q 924 590 883 674 q 965 403 965 506 q 892 196 965 292 q 707 44 818 100 q 492 -12 596 -12 q 306 63 383 -12 l 239 0 l 131 0 l 131 910 l 7 990 l 7 1089 l 300 1213 l 408 1213 l 408 647 l 544 757 q 646 768 589 768 l 646 769 m 571 174 q 672 338 672 174 q 642 495 672 435 q 550 556 611 556 q 408 525 475 556 l 408 310 q 451 213 408 251 q 572 174 494 174 l 571 174 z "},"c":{"ha":907,"x_min":69,"x_max":847,"o":"m 515 768 q 678 752 585 768 q 813 717 771 736 l 813 433 l 704 433 q 588 543 653 504 q 453 582 524 582 q 386 540 411 582 q 361 419 361 497 q 403 253 361 319 q 525 188 446 188 q 806 260 619 188 l 847 165 l 657 13 q 444 -14 568 -14 q 251 34 336 -14 q 117 166 165 82 q 69 353 69 250 q 139 560 69 464 q 313 712 208 656 q 515 768 418 768 z "},"ć":{"ha":907,"x_min":69,"x_max":847,"o":"m 515 768 q 678 752 585 768 q 813 717 771 736 l 813 433 l 704 433 q 588 543 653 504 q 453 582 524 582 q 386 540 411 582 q 361 419 361 497 q 403 253 361 319 q 525 188 446 188 q 806 260 619 188 l 847 165 l 657 13 q 444 -14 568 -14 q 251 34 336 -14 q 117 166 165 82 q 69 353 69 250 q 139 560 69 464 q 313 712 208 656 q 515 768 418 768 m 815 1124 l 424 924 l 329 967 l 478 1239 l 775 1213 l 815 1124 z "},"č":{"ha":907,"x_min":69,"x_max":847,"o":"m 515 768 q 678 752 585 768 q 813 717 771 736 l 813 433 l 704 433 q 588 543 653 504 q 453 582 524 582 q 386 540 411 582 q 361 419 361 497 q 403 253 361 319 q 525 188 446 188 q 806 260 619 188 l 847 165 l 657 13 q 444 -14 568 -14 q 251 34 336 -14 q 117 166 165 82 q 69 353 69 250 q 139 560 69 464 q 313 712 208 656 q 515 768 418 768 m 479 924 l 88 1124 l 128 1213 l 425 1239 l 510 1082 l 769 1242 l 831 1140 l 479 924 z "},"ç":{"ha":907,"x_min":68,"x_max":846,"o":"m 556 -82 q 658 -154 631 -122 q 685 -228 685 -186 q 606 -326 685 -292 q 363 -367 526 -360 l 363 -268 q 419 -238 403 -254 q 436 -197 436 -222 q 420 -150 436 -171 q 360 -99 404 -129 q 460 -14 426 -43 l 443 -14 q 249 34 335 -14 q 116 166 164 82 q 68 353 68 250 q 138 560 68 464 q 312 712 207 656 q 514 768 417 768 q 676 752 583 768 q 811 717 769 736 l 811 433 l 703 433 q 587 543 651 504 q 451 582 522 582 q 385 540 410 582 q 360 419 360 497 q 402 253 360 319 q 524 188 444 188 q 804 260 618 188 l 846 165 l 679 31 q 557 -82 640 -10 l 556 -82 z "},"ċ":{"ha":907,"x_min":69,"x_max":847,"o":"m 515 768 q 678 752 585 768 q 813 717 771 736 l 813 433 l 704 433 q 588 543 653 504 q 453 582 524 582 q 386 540 411 582 q 361 419 361 497 q 403 253 361 319 q 525 188 446 188 q 806 260 619 188 l 847 165 l 657 13 q 444 -14 568 -14 q 251 34 336 -14 q 117 166 165 82 q 69 353 69 250 q 139 560 69 464 q 313 712 208 656 q 515 768 418 768 m 489 1201 q 603 1158 558 1201 q 649 1051 649 1115 q 616 968 649 1007 q 535 906 583 929 q 440 882 486 882 q 326 925 372 882 q 281 1031 281 968 q 313 1115 281 1075 q 394 1178 346 1154 q 489 1201 443 1201 z "},"d":{"ha":1035,"x_min":69,"x_max":1028,"o":"m 972 0 l 625 0 l 625 106 l 490 -3 q 389 -14 446 -14 q 224 34 297 -14 q 110 166 151 82 q 69 353 69 250 q 143 560 69 464 q 328 712 217 656 q 543 768 439 768 q 625 749 586 768 l 625 910 l 501 990 l 501 1089 l 794 1213 l 903 1213 l 903 150 l 1028 111 l 972 0 m 485 214 q 626 244 560 214 l 626 478 q 576 553 618 524 q 463 582 535 582 q 361 418 361 582 q 392 271 361 328 q 483 214 422 214 l 485 214 z "},"ð":{"ha":932,"x_min":29,"x_max":904,"o":"m 608 1039 q 825 772 746 919 q 904 478 904 624 q 836 237 904 350 q 655 56 768 124 q 415 -12 542 -12 q 219 35 307 -12 q 82 167 132 83 q 32 354 32 250 q 99 544 32 450 q 272 701 165 639 q 492 768 379 763 q 363 906 438 844 l 79 754 l 53 806 l 310 943 q 29 1063 188 1025 l 29 1161 l 304 1226 q 563 1078 440 1171 l 842 1226 l 869 1175 l 611 1038 l 608 1039 m 494 172 q 577 225 551 172 q 603 397 603 278 q 578 583 603 496 l 432 583 q 356 542 382 583 q 331 421 331 500 q 375 240 331 307 q 494 174 419 174 l 494 172 z "},"ď":{"ha":1035,"x_min":69,"x_max":1293,"o":"m 972 0 l 625 0 l 625 106 l 490 -3 q 389 -14 446 -14 q 224 34 297 -14 q 110 166 151 82 q 69 353 69 250 q 143 560 69 464 q 328 712 217 656 q 543 768 439 768 q 625 749 586 768 l 625 910 l 501 990 l 501 1089 l 794 1213 l 903 1213 l 903 150 l 1028 111 l 972 0 m 485 214 q 626 244 560 214 l 626 478 q 576 553 618 524 q 463 582 535 582 q 361 418 361 582 q 392 271 361 328 q 483 214 422 214 l 485 214 m 1293 954 l 1142 793 l 1032 876 q 1057 971 1049 926 l 976 1025 l 976 1124 l 1186 1213 l 1293 1213 l 1293 954 z "},"đ":{"ha":1035,"x_min":69,"x_max":1035,"o":"m 903 149 l 1028 110 l 972 -1 l 625 -1 l 625 104 l 490 -4 q 389 -15 446 -15 q 224 33 297 -15 q 110 165 151 81 q 69 351 69 249 q 143 558 69 463 q 328 710 217 654 q 543 767 439 767 q 625 747 586 767 l 625 896 l 343 896 l 343 1008 l 625 1008 l 625 1156 l 794 1226 l 903 1226 l 903 1008 l 1035 1008 l 1035 896 l 903 894 l 903 149 m 485 213 q 626 243 560 213 l 626 476 q 576 551 618 522 q 463 581 535 581 q 361 417 361 581 q 392 269 361 326 q 483 213 422 213 l 485 213 z "},"e":{"ha":932,"x_min":69,"x_max":865,"o":"m 542 768 q 781 653 696 768 q 861 325 865 538 l 371 325 q 426 224 388 261 q 525 188 465 188 q 819 260 624 188 l 861 165 l 671 13 q 444 -14 576 -14 q 251 34 336 -14 q 117 166 165 82 q 69 353 69 250 q 143 560 69 464 q 328 712 217 656 q 543 768 439 768 l 542 768 m 468 582 q 390 547 417 582 q 361 438 364 511 l 590 438 q 554 547 583 511 q 467 582 525 582 l 468 582 z "},"é":{"ha":932,"x_min":69,"x_max":865,"o":"m 542 768 q 781 653 696 768 q 861 325 865 538 l 371 325 q 426 224 388 261 q 525 188 465 188 q 819 260 624 188 l 861 165 l 671 13 q 444 -14 576 -14 q 251 34 336 -14 q 117 166 165 82 q 69 353 69 250 q 143 560 69 464 q 328 712 217 656 q 543 768 439 768 l 542 768 m 468 582 q 390 547 417 582 q 361 438 364 511 l 590 438 q 554 547 583 511 q 467 582 525 582 l 468 582 m 822 1124 l 431 924 l 336 967 l 485 1239 l 782 1213 l 822 1124 z "},"ě":{"ha":932,"x_min":69,"x_max":865,"o":"m 542 768 q 781 653 696 768 q 861 325 865 538 l 371 325 q 426 224 388 261 q 525 188 465 188 q 819 260 624 188 l 861 165 l 671 13 q 444 -14 576 -14 q 251 34 336 -14 q 117 166 165 82 q 69 353 69 250 q 143 560 69 464 q 328 712 217 656 q 543 768 439 768 l 542 768 m 468 582 q 390 547 417 582 q 361 438 364 511 l 590 438 q 554 547 583 511 q 467 582 525 582 l 468 582 m 486 924 l 94 1124 l 135 1213 l 432 1239 l 517 1082 l 776 1242 l 838 1140 l 486 924 z "},"ê":{"ha":932,"x_min":69,"x_max":865,"o":"m 542 768 q 781 653 696 768 q 861 325 865 538 l 371 325 q 426 224 388 261 q 525 188 465 188 q 819 260 624 188 l 861 165 l 671 13 q 444 -14 576 -14 q 251 34 336 -14 q 117 166 165 82 q 69 353 69 250 q 143 560 69 464 q 328 712 217 656 q 543 768 439 768 l 542 768 m 468 582 q 390 547 417 582 q 361 438 364 511 l 590 438 q 554 547 583 511 q 467 582 525 582 l 468 582 m 815 944 l 518 918 l 433 1075 l 174 915 l 113 1017 l 464 1233 l 856 1033 l 815 944 z "},"ë":{"ha":932,"x_min":69,"x_max":865,"o":"m 242 917 q 145 955 183 917 q 107 1050 107 993 q 135 1126 107 1090 q 203 1183 163 1161 q 283 1204 244 1204 q 381 1165 343 1204 q 419 1069 419 1126 q 392 994 419 1029 q 322 938 364 958 q 242 917 281 917 m 672 917 q 576 955 614 917 q 538 1050 538 993 q 565 1126 538 1090 q 634 1183 593 1161 q 714 1204 675 1204 q 812 1165 774 1204 q 850 1069 850 1126 q 822 994 850 1029 q 753 938 794 958 q 672 917 711 917 m 542 768 q 781 653 696 768 q 861 325 865 538 l 371 325 q 426 224 388 261 q 525 188 465 188 q 819 260 624 188 l 861 165 l 671 13 q 444 -14 576 -14 q 251 34 336 -14 q 117 166 165 82 q 69 353 69 250 q 143 560 69 464 q 328 712 217 656 q 543 768 439 768 l 542 768 m 468 582 q 390 547 417 582 q 361 438 364 511 l 590 438 q 554 547 583 511 q 467 582 525 582 l 468 582 z "},"ė":{"ha":932,"x_min":69,"x_max":865,"o":"m 542 768 q 781 653 696 768 q 861 325 865 538 l 371 325 q 426 224 388 261 q 525 188 465 188 q 819 260 624 188 l 861 165 l 671 13 q 444 -14 576 -14 q 251 34 336 -14 q 117 166 165 82 q 69 353 69 250 q 143 560 69 464 q 328 712 217 656 q 543 768 439 768 l 542 768 m 468 582 q 390 547 417 582 q 361 438 364 511 l 590 438 q 554 547 583 511 q 467 582 525 582 l 468 582 m 496 1201 q 610 1158 565 1201 q 656 1051 656 1115 q 623 968 656 1007 q 542 906 590 929 q 447 882 493 882 q 333 925 379 882 q 288 1031 288 968 q 320 1115 288 1075 q 401 1178 353 1154 q 496 1201 450 1201 z "},"è":{"ha":932,"x_min":69,"x_max":865,"o":"m 542 768 q 781 653 696 768 q 861 325 865 538 l 371 325 q 426 224 388 261 q 525 188 465 188 q 819 260 624 188 l 861 165 l 671 13 q 444 -14 576 -14 q 251 34 336 -14 q 117 166 165 82 q 69 353 69 250 q 143 560 69 464 q 328 712 217 656 q 543 768 439 768 l 542 768 m 468 582 q 390 547 417 582 q 361 438 364 511 l 590 438 q 554 547 583 511 q 467 582 525 582 l 468 582 m 521 924 l 129 1124 l 169 1213 l 467 1239 l 615 967 l 521 924 z "},"ē":{"ha":932,"x_min":69,"x_max":865,"o":"m 542 768 q 781 653 696 768 q 861 325 865 538 l 371 325 q 426 224 388 261 q 525 188 465 188 q 819 260 624 188 l 861 165 l 671 13 q 444 -14 576 -14 q 251 34 336 -14 q 117 166 165 82 q 69 353 69 250 q 143 560 69 464 q 328 712 217 656 q 543 768 439 768 l 542 768 m 468 582 q 390 547 417 582 q 361 438 364 511 l 590 438 q 554 547 583 511 q 467 582 525 582 l 468 582 m 129 1131 l 821 1131 l 821 1018 l 129 1018 l 129 1131 z "},"ę":{"ha":932,"x_min":69,"x_max":867,"o":"m 543 768 q 782 653 697 768 q 863 325 867 538 l 372 325 q 428 224 389 261 q 526 188 467 188 q 821 260 625 188 l 863 165 l 693 29 q 585 -125 585 -61 q 610 -164 585 -153 q 694 -175 635 -175 l 694 -283 l 590 -367 q 417 -310 479 -351 q 356 -206 356 -268 q 367 -143 356 -168 l 500 -12 q 444 -14 481 -14 q 251 34 336 -14 q 117 166 165 82 q 69 353 69 250 q 143 560 69 464 q 328 712 217 656 q 543 768 439 768 m 469 582 q 392 547 418 582 q 363 438 365 511 l 592 438 q 556 547 585 511 q 468 582 526 582 l 469 582 z "},"f":{"ha":719,"x_min":35,"x_max":831,"o":"m 603 1226 q 728 1210 657 1226 q 831 1175 799 1194 l 831 906 l 722 906 q 640 1008 689 971 q 542 1046 592 1046 q 474 1010 499 1046 q 450 911 450 975 l 450 713 l 674 713 l 674 600 l 450 600 l 450 165 l 672 111 l 617 0 l 49 0 l 49 99 l 172 207 l 172 600 l 35 600 l 35 713 l 172 713 l 172 811 q 240 1018 172 922 q 409 1170 308 1114 q 603 1226 510 1226 z "},"g":{"ha":889,"x_min":35,"x_max":906,"o":"m 772 601 q 789 522 789 564 q 719 363 789 440 q 542 243 649 286 q 506 158 506 199 q 533 123 506 140 q 622 75 560 106 q 765 -5 714 32 q 815 -90 815 -42 q 758 -202 815 -135 q 617 -319 701 -269 q 453 -368 533 -368 q 240 -342 363 -368 q 36 -289 118 -315 l 36 -19 l 144 -19 q 269 -155 206 -108 q 415 -201 333 -201 q 482 -188 456 -201 q 508 -160 508 -175 q 475 -108 508 -131 q 374 -54 442 -85 q 255 11 296 -18 q 214 81 214 40 q 269 149 214 114 q 401 210 325 183 q 364 208 389 208 q 198 242 274 208 q 78 333 122 276 q 35 454 35 390 q 97 607 35 535 q 258 724 160 679 q 458 768 357 768 q 668 713 576 768 l 903 713 l 906 601 l 772 601 m 308 524 q 347 432 308 468 q 446 396 385 396 q 499 412 481 396 q 518 458 518 428 q 480 550 518 517 q 379 583 442 583 q 308 524 308 583 z "},"ğ":{"ha":889,"x_min":35,"x_max":906,"o":"m 772 601 q 789 522 789 564 q 719 363 789 440 q 542 243 649 286 q 506 158 506 199 q 533 123 506 140 q 622 75 560 106 q 765 -5 714 32 q 815 -90 815 -42 q 758 -202 815 -135 q 617 -319 701 -269 q 453 -368 533 -368 q 240 -342 363 -368 q 36 -289 118 -315 l 36 -19 l 144 -19 q 269 -155 206 -108 q 415 -201 333 -201 q 482 -188 456 -201 q 508 -160 508 -175 q 475 -108 508 -131 q 374 -54 442 -85 q 255 11 296 -18 q 214 81 214 40 q 269 149 214 114 q 401 210 325 183 q 364 208 389 208 q 198 242 274 208 q 78 333 122 276 q 35 454 35 390 q 97 607 35 535 q 258 724 160 679 q 458 768 357 768 q 668 713 576 768 l 903 713 l 906 601 l 772 601 m 308 524 q 347 432 308 468 q 446 396 385 396 q 499 412 481 396 q 518 458 518 428 q 480 550 518 517 q 379 583 442 583 q 308 524 308 583 m 797 1238 q 718 1061 778 1140 q 577 936 658 982 q 415 890 496 890 q 216 934 311 890 q 74 1050 121 978 l 313 1239 q 367 1131 328 1171 q 468 1090 407 1090 q 563 1157 542 1090 l 797 1238 z "},"ģ":{"ha":889,"x_min":35,"x_max":906,"o":"m 772 601 q 789 522 789 564 q 719 363 789 440 q 542 243 649 286 q 506 158 506 199 q 533 123 506 140 q 622 75 560 106 q 765 -5 714 32 q 815 -90 815 -42 q 758 -202 815 -135 q 617 -319 701 -269 q 453 -368 533 -368 q 240 -342 363 -368 q 36 -289 118 -315 l 36 -19 l 144 -19 q 269 -155 206 -108 q 415 -201 333 -201 q 482 -188 456 -201 q 508 -160 508 -175 q 475 -108 508 -131 q 374 -54 442 -85 q 255 11 296 -18 q 214 81 214 40 q 269 149 214 114 q 401 210 325 183 q 364 208 389 208 q 198 242 274 208 q 78 333 122 276 q 35 454 35 390 q 97 607 35 535 q 258 724 160 679 q 458 768 357 768 q 668 713 576 768 l 903 713 l 906 601 l 772 601 m 308 524 q 347 432 308 468 q 446 396 385 396 q 499 412 481 396 q 518 458 518 428 q 480 550 518 517 q 379 583 442 583 q 308 524 308 583 m 221 1074 l 399 1282 l 549 1282 l 506 1151 l 636 1086 l 581 975 l 221 975 l 221 1074 z "},"ġ":{"ha":889,"x_min":35,"x_max":906,"o":"m 772 601 q 789 522 789 564 q 719 363 789 440 q 542 243 649 286 q 506 158 506 199 q 533 123 506 140 q 622 75 560 106 q 765 -5 714 32 q 815 -90 815 -42 q 758 -202 815 -135 q 617 -319 701 -269 q 453 -368 533 -368 q 240 -342 363 -368 q 36 -289 118 -315 l 36 -19 l 144 -19 q 269 -155 206 -108 q 415 -201 333 -201 q 482 -188 456 -201 q 508 -160 508 -175 q 475 -108 508 -131 q 374 -54 442 -85 q 255 11 296 -18 q 214 81 214 40 q 269 149 214 114 q 401 210 325 183 q 364 208 389 208 q 198 242 274 208 q 78 333 122 276 q 35 454 35 390 q 97 607 35 535 q 258 724 160 679 q 458 768 357 768 q 668 713 576 768 l 903 713 l 906 601 l 772 601 m 308 524 q 347 432 308 468 q 446 396 385 396 q 499 412 481 396 q 518 458 518 428 q 480 550 518 517 q 379 583 442 583 q 308 524 308 583 m 444 1201 q 559 1158 514 1201 q 604 1051 604 1115 q 572 968 604 1007 q 490 906 539 929 q 396 882 442 882 q 282 925 328 882 q 236 1031 236 968 q 269 1115 236 1075 q 350 1178 301 1154 q 444 1201 399 1201 z "},"h":{"ha":1026,"x_min":21,"x_max":1019,"o":"m 964 1 l 617 1 l 617 431 q 599 515 617 490 q 539 540 582 540 q 422 511 479 540 l 422 150 l 547 111 l 492 0 l 21 0 l 21 99 l 144 207 l 144 910 l 21 990 l 21 1089 l 314 1213 l 422 1213 l 422 649 l 557 757 q 647 768 594 768 q 828 710 761 768 q 894 554 894 653 l 894 150 l 1019 113 l 964 1 z "},"ħ":{"ha":1026,"x_min":0,"x_max":1019,"o":"m 964 1 l 617 1 l 617 431 q 599 515 617 490 q 539 540 582 540 q 422 511 479 540 l 422 150 l 547 111 l 492 0 l 21 0 l 21 99 l 144 207 l 144 896 l 0 896 l 0 1008 l 144 1008 l 144 1156 l 314 1226 l 422 1226 l 422 1008 l 692 1008 l 692 896 l 422 896 l 422 649 l 557 757 q 647 768 594 768 q 828 710 761 768 q 894 554 894 653 l 894 150 l 1019 113 l 964 1 z "},"i":{"ha":582,"x_min":49,"x_max":575,"o":"m 519 0 l 49 0 l 49 99 l 172 207 l 172 478 l 49 558 l 49 657 l 342 781 l 450 781 l 450 150 l 575 111 l 519 0 m 313 1201 q 427 1158 382 1201 q 472 1051 472 1115 q 440 968 472 1007 q 358 906 407 929 q 264 882 310 882 q 150 925 196 882 q 104 1031 104 968 q 137 1115 104 1075 q 218 1178 169 1154 q 313 1201 267 1201 z "},"ı":{"ha":582,"x_min":49,"x_max":575,"o":"m 519 0 l 49 0 l 49 99 l 172 207 l 172 478 l 49 558 l 49 657 l 342 781 l 450 781 l 450 150 l 575 111 l 519 0 z "},"í":{"ha":582,"x_min":49,"x_max":639,"o":"m 519 0 l 49 0 l 49 99 l 172 207 l 172 478 l 49 558 l 49 657 l 342 781 l 450 781 l 450 150 l 575 111 l 519 0 m 639 1124 l 247 924 l 153 967 l 301 1239 l 599 1213 l 639 1124 z "},"î":{"ha":582,"x_min":-71,"x_max":672,"o":"m 519 0 l 49 0 l 49 99 l 172 207 l 172 478 l 49 558 l 49 657 l 342 781 l 450 781 l 450 150 l 575 111 l 519 0 m 632 944 l 335 918 l 250 1075 l -10 915 l -71 1017 l 281 1233 l 672 1033 l 632 944 z "},"ï":{"ha":582,"x_min":-76,"x_max":667,"o":"m 236 1069 q 208 994 236 1029 q 139 938 181 958 q 58 917 97 917 q -38 955 0 917 q -76 1050 -76 993 q -49 1126 -76 1090 q 20 1183 -21 1161 q 100 1204 61 1204 q 198 1165 160 1204 q 236 1069 236 1126 m 531 1204 q 628 1165 590 1204 q 667 1069 667 1126 q 639 994 667 1029 q 569 938 611 958 q 489 917 528 917 q 392 955 431 917 q 354 1050 354 993 q 382 1126 354 1090 q 451 1183 410 1161 q 531 1204 492 1204 m 575 111 l 519 0 l 49 0 l 49 99 l 172 207 l 172 478 l 49 558 l 49 657 l 342 781 l 450 781 l 450 150 l 575 111 z "},"ì":{"ha":582,"x_min":-54,"x_max":575,"o":"m 519 0 l 49 0 l 49 99 l 172 207 l 172 478 l 49 558 l 49 657 l 342 781 l 450 781 l 450 150 l 575 111 l 519 0 m 338 924 l -54 1124 l -14 1213 l 283 1239 l 432 967 l 338 924 z "},"ĳ":{"ha":1124,"x_min":49,"x_max":1022,"o":"m 264 882 q 150 925 196 882 q 104 1031 104 968 q 137 1115 104 1075 q 218 1178 169 1154 q 313 1201 267 1201 q 427 1158 382 1201 q 472 1051 472 1115 q 440 968 472 1007 q 358 906 407 929 q 264 882 310 882 m 814 865 q 700 908 746 865 q 654 1014 654 951 q 687 1098 654 1058 q 768 1161 719 1138 q 863 1185 817 1185 q 977 1142 932 1185 q 1022 1035 1022 1099 q 990 951 1022 990 q 908 889 957 913 q 814 865 860 865 m 575 111 l 519 0 l 49 0 l 49 99 l 172 207 l 172 478 l 49 558 l 49 657 l 342 781 l 450 781 l 450 150 l 575 111 m 1000 138 q 1003 35 1000 82 q 1013 -28 1007 -11 l 690 -367 l 582 -283 q 694 -115 665 -185 q 722 57 722 -46 l 722 507 l 599 593 l 599 692 l 892 781 l 1000 781 l 1000 138 z "},"ī":{"ha":582,"x_min":-54,"x_max":638,"o":"m 519 0 l 49 0 l 49 99 l 172 207 l 172 478 l 49 558 l 49 657 l 342 781 l 450 781 l 450 150 l 575 111 l 519 0 m -54 1131 l 638 1131 l 638 1018 l -54 1018 l -54 1131 z "},"į":{"ha":582,"x_min":49,"x_max":575,"o":"m 264 882 q 150 925 196 882 q 104 1031 104 968 q 137 1115 104 1075 q 218 1178 169 1154 q 313 1201 267 1201 q 427 1158 382 1201 q 472 1051 472 1115 q 440 968 472 1007 q 358 906 407 929 q 264 882 310 882 m 474 -129 q 490 -164 474 -153 q 542 -175 506 -175 l 542 -283 l 438 -367 q 263 -309 324 -351 q 203 -203 203 -267 q 214 -143 203 -162 l 392 0 l 49 0 l 49 99 l 172 207 l 172 478 l 49 558 l 49 657 l 342 781 l 450 781 l 450 150 l 575 111 l 519 0 q 474 -129 474 -87 z "},"j":{"ha":542,"x_min":0,"x_max":440,"o":"m 418 138 q 422 35 418 82 q 431 -28 425 -11 l 108 -367 l 0 -283 q 112 -115 83 -185 q 140 57 140 -46 l 140 507 l 17 593 l 17 692 l 310 781 l 418 781 l 418 138 m 281 1185 q 395 1142 350 1185 q 440 1035 440 1099 q 408 951 440 990 q 326 889 375 913 q 232 865 278 865 q 118 908 164 865 q 72 1014 72 951 q 105 1098 72 1058 q 186 1161 138 1138 q 281 1185 235 1185 z "},"ȷ":{"ha":542,"x_min":0,"x_max":431,"o":"m 418 138 q 422 35 418 82 q 431 -28 425 -11 l 108 -367 l 0 -283 q 112 -115 83 -185 q 140 57 140 -46 l 140 507 l 17 593 l 17 692 l 310 781 l 418 781 l 418 138 z "},"k":{"ha":1054,"x_min":21,"x_max":1049,"o":"m 547 111 l 492 0 l 21 0 l 21 99 l 144 207 l 144 910 l 21 990 l 21 1089 l 314 1213 l 422 1213 l 422 150 l 547 111 m 993 0 l 675 0 l 469 375 l 703 554 l 513 643 l 568 754 l 1011 754 l 1011 656 l 744 443 l 907 165 l 1049 111 l 993 0 z "},"ķ":{"ha":1054,"x_min":21,"x_max":1049,"o":"m 547 111 l 492 0 l 21 0 l 21 99 l 144 207 l 144 910 l 21 990 l 21 1089 l 314 1213 l 422 1213 l 422 150 l 547 111 m 993 0 l 675 0 l 469 375 l 703 554 l 513 643 l 568 754 l 1011 754 l 1011 656 l 744 443 l 907 165 l 1049 111 l 993 0 m 765 -214 l 588 -422 l 438 -422 l 481 -292 l 350 -226 l 406 -115 l 765 -115 l 765 -214 z "},"l":{"ha":554,"x_min":21,"x_max":547,"o":"m 492 0 l 21 0 l 21 99 l 144 207 l 144 910 l 21 990 l 21 1089 l 314 1213 l 422 1213 l 422 150 l 547 111 l 492 0 z "},"ĺ":{"ha":554,"x_min":21,"x_max":625,"o":"m 492 0 l 21 0 l 21 99 l 144 207 l 144 910 l 21 990 l 21 1089 l 314 1213 l 422 1213 l 422 150 l 547 111 l 492 0 m 625 1513 l 233 1313 l 139 1356 l 288 1628 l 585 1601 l 625 1513 z "},"ľ":{"ha":554,"x_min":21,"x_max":813,"o":"m 492 0 l 21 0 l 21 99 l 144 207 l 144 910 l 21 990 l 21 1089 l 314 1213 l 422 1213 l 422 150 l 547 111 l 492 0 m 813 954 l 661 793 l 551 876 q 576 971 568 926 l 496 1025 l 496 1124 l 706 1213 l 813 1213 l 813 954 z "},"ļ":{"ha":554,"x_min":21,"x_max":547,"o":"m 492 0 l 21 0 l 21 99 l 144 207 l 144 910 l 21 990 l 21 1089 l 314 1213 l 422 1213 l 422 150 l 547 111 l 492 0 m 481 -214 l 303 -422 l 153 -422 l 196 -292 l 65 -226 l 121 -115 l 481 -115 l 481 -214 z "},"ŀ":{"ha":801,"x_min":21,"x_max":865,"o":"m 492 0 l 21 0 l 21 99 l 144 207 l 144 910 l 21 990 l 21 1089 l 314 1213 l 422 1213 l 422 150 l 547 111 l 492 0 m 706 738 q 820 694 775 738 q 865 588 865 651 q 833 504 865 543 q 751 442 800 465 q 657 418 703 418 q 543 461 589 418 q 497 567 497 504 q 530 651 497 611 q 611 714 563 690 q 706 738 660 738 z "},"ł":{"ha":554,"x_min":-56,"x_max":610,"o":"m 422 150 l 547 111 l 492 0 l 21 0 l 21 99 l 144 207 l 144 475 l -56 304 l -56 436 l 144 614 l 144 910 l 21 990 l 21 1089 l 314 1213 l 422 1213 l 422 779 l 610 947 l 610 801 l 422 635 l 422 150 z "},"m":{"ha":1471,"x_min":49,"x_max":1467,"o":"m 1411 0 l 1064 0 l 1064 457 q 1050 521 1064 503 q 1000 539 1036 539 q 896 511 947 539 l 896 147 l 1007 111 l 951 0 l 618 0 l 618 457 q 604 521 618 503 q 554 539 590 539 q 450 511 501 539 l 450 147 l 561 111 l 506 0 l 49 0 l 49 99 l 172 207 l 172 478 l 49 558 l 49 657 l 369 781 l 428 631 l 585 757 q 661 768 615 768 q 800 734 743 768 q 881 638 857 700 l 1029 757 q 1106 768 1060 768 q 1276 710 1213 768 q 1339 554 1339 653 l 1339 150 l 1467 111 l 1411 0 z "},"n":{"ha":1054,"x_min":49,"x_max":1047,"o":"m 992 1 l 644 1 l 644 431 q 627 515 644 490 q 567 540 610 540 q 450 511 507 540 l 450 150 l 575 111 l 519 0 l 49 0 l 49 99 l 172 207 l 172 478 l 49 558 l 49 657 l 369 781 l 428 631 l 585 757 q 675 768 622 768 q 856 710 789 768 q 922 554 922 653 l 922 150 l 1047 113 l 992 1 z "},"ń":{"ha":1054,"x_min":49,"x_max":1047,"o":"m 992 1 l 644 1 l 644 431 q 627 515 644 490 q 567 540 610 540 q 450 511 507 540 l 450 150 l 575 111 l 519 0 l 49 0 l 49 99 l 172 207 l 172 478 l 49 558 l 49 657 l 369 781 l 428 631 l 585 757 q 675 768 622 768 q 856 710 789 768 q 922 554 922 653 l 922 150 l 1047 113 l 992 1 m 861 1124 l 469 924 l 375 967 l 524 1239 l 821 1213 l 861 1124 z "},"ň":{"ha":1054,"x_min":49,"x_max":1047,"o":"m 992 1 l 644 1 l 644 431 q 627 515 644 490 q 567 540 610 540 q 450 511 507 540 l 450 150 l 575 111 l 519 0 l 49 0 l 49 99 l 172 207 l 172 478 l 49 558 l 49 657 l 369 781 l 428 631 l 585 757 q 675 768 622 768 q 856 710 789 768 q 922 554 922 653 l 922 150 l 1047 113 l 992 1 m 525 924 l 133 1124 l 174 1213 l 471 1239 l 556 1082 l 815 1242 l 876 1140 l 525 924 z "},"ņ":{"ha":1054,"x_min":49,"x_max":1047,"o":"m 992 1 l 644 1 l 644 431 q 627 515 644 490 q 567 540 610 540 q 450 511 507 540 l 450 150 l 575 111 l 519 0 l 49 0 l 49 99 l 172 207 l 172 478 l 49 558 l 49 657 l 369 781 l 428 631 l 585 757 q 675 768 622 768 q 856 710 789 768 q 922 554 922 653 l 922 150 l 1047 113 l 992 1 m 772 -214 l 594 -422 l 444 -422 l 488 -292 l 357 -226 l 413 -115 l 772 -115 l 772 -214 z "},"ŋ":{"ha":1046,"x_min":49,"x_max":935,"o":"m 922 139 q 926 37 922 83 q 935 -26 929 -10 l 613 -365 l 504 -282 q 616 -114 588 -183 q 644 58 644 -44 l 644 431 q 627 515 644 490 q 567 540 610 540 q 450 511 507 540 l 450 150 l 575 111 l 519 0 l 49 0 l 49 99 l 172 207 l 172 478 l 49 558 l 49 657 l 369 781 l 428 631 l 585 757 q 675 768 622 768 q 856 710 789 768 q 922 554 922 653 l 922 139 z "},"ñ":{"ha":1054,"x_min":49,"x_max":1047,"o":"m 992 1 l 644 1 l 644 431 q 627 515 644 490 q 567 540 610 540 q 450 511 507 540 l 450 150 l 575 111 l 519 0 l 49 0 l 49 99 l 172 207 l 172 478 l 49 558 l 49 657 l 369 781 l 428 631 l 585 757 q 675 768 622 768 q 856 710 789 768 q 922 554 922 653 l 922 150 l 1047 113 l 992 1 m 500 1269 q 608 1172 569 1200 q 676 1143 646 1143 q 726 1160 700 1143 l 811 1213 l 872 1111 l 522 896 q 415 994 453 967 q 347 1022 376 1022 q 294 1004 326 1022 l 211 953 l 150 1054 l 500 1269 z "},"o":{"ha":988,"x_min":69,"x_max":918,"o":"m 543 768 q 737 720 651 768 q 870 588 822 672 q 918 401 918 504 q 844 194 918 290 q 660 42 771 99 q 444 -14 549 -14 q 251 34 336 -14 q 117 166 165 82 q 69 353 69 250 q 143 560 69 464 q 328 712 217 656 q 543 768 439 768 m 463 582 q 394 541 418 582 q 369 419 369 500 q 410 242 369 311 q 525 172 451 172 q 594 214 569 172 q 618 336 618 256 q 577 513 618 444 q 463 582 536 582 z "},"ó":{"ha":988,"x_min":69,"x_max":918,"o":"m 543 768 q 737 720 651 768 q 870 588 822 672 q 918 401 918 504 q 844 194 918 290 q 660 42 771 99 q 444 -14 549 -14 q 251 34 336 -14 q 117 166 165 82 q 69 353 69 250 q 143 560 69 464 q 328 712 217 656 q 543 768 439 768 m 463 582 q 394 541 418 582 q 369 419 369 500 q 410 242 369 311 q 525 172 451 172 q 594 214 569 172 q 618 336 618 256 q 577 513 618 444 q 463 582 536 582 m 842 1124 l 450 924 l 356 967 l 504 1239 l 801 1213 l 842 1124 z "},"ô":{"ha":988,"x_min":69,"x_max":918,"o":"m 543 768 q 737 720 651 768 q 870 588 822 672 q 918 401 918 504 q 844 194 918 290 q 660 42 771 99 q 444 -14 549 -14 q 251 34 336 -14 q 117 166 165 82 q 69 353 69 250 q 143 560 69 464 q 328 712 217 656 q 543 768 439 768 m 463 582 q 394 541 418 582 q 369 419 369 500 q 410 242 369 311 q 525 172 451 172 q 594 214 569 172 q 618 336 618 256 q 577 513 618 444 q 463 582 536 582 m 835 944 l 538 918 l 453 1075 l 193 915 l 132 1017 l 483 1233 l 875 1033 l 835 944 z "},"ö":{"ha":988,"x_min":69,"x_max":918,"o":"m 303 1204 q 401 1165 363 1204 q 439 1069 439 1126 q 411 994 439 1029 q 342 938 383 958 q 261 917 300 917 q 165 955 203 917 q 126 1050 126 993 q 154 1126 126 1090 q 223 1183 182 1161 q 303 1204 264 1204 m 733 1204 q 831 1165 793 1204 q 869 1069 869 1126 q 842 994 869 1029 q 772 938 814 958 q 692 917 731 917 q 595 955 633 917 q 557 1050 557 993 q 585 1126 557 1090 q 653 1183 613 1161 q 733 1204 694 1204 m 543 768 q 737 720 651 768 q 870 588 822 672 q 918 401 918 504 q 844 194 918 290 q 660 42 771 99 q 444 -14 549 -14 q 251 34 336 -14 q 117 166 165 82 q 69 353 69 250 q 143 560 69 464 q 328 712 217 656 q 543 768 439 768 m 463 582 q 394 541 418 582 q 369 419 369 500 q 410 242 369 311 q 525 172 451 172 q 594 214 569 172 q 618 336 618 256 q 577 513 618 444 q 463 582 536 582 z "},"ò":{"ha":988,"x_min":69,"x_max":918,"o":"m 543 768 q 737 720 651 768 q 870 588 822 672 q 918 401 918 504 q 844 194 918 290 q 660 42 771 99 q 444 -14 549 -14 q 251 34 336 -14 q 117 166 165 82 q 69 353 69 250 q 143 560 69 464 q 328 712 217 656 q 543 768 439 768 m 463 582 q 394 541 418 582 q 369 419 369 500 q 410 242 369 311 q 525 172 451 172 q 594 214 569 172 q 618 336 618 256 q 577 513 618 444 q 463 582 536 582 m 540 924 l 149 1124 l 189 1213 l 486 1239 l 635 967 l 540 924 z "},"ő":{"ha":988,"x_min":69,"x_max":1050,"o":"m 543 768 q 737 720 651 768 q 870 588 822 672 q 918 401 918 504 q 844 194 918 290 q 660 42 771 99 q 444 -14 549 -14 q 251 34 336 -14 q 117 166 165 82 q 69 353 69 250 q 143 560 69 464 q 328 712 217 656 q 543 768 439 768 m 463 582 q 394 541 418 582 q 369 419 369 500 q 410 242 369 311 q 525 172 451 172 q 594 214 569 172 q 618 336 618 256 q 577 513 618 444 q 463 582 536 582 m 606 1124 l 269 924 l 175 967 l 282 1239 l 565 1213 l 606 1124 m 1050 1124 l 714 924 l 619 967 l 726 1239 l 1010 1213 l 1050 1124 z "},"ō":{"ha":988,"x_min":69,"x_max":918,"o":"m 543 768 q 737 720 651 768 q 870 588 822 672 q 918 401 918 504 q 844 194 918 290 q 660 42 771 99 q 444 -14 549 -14 q 251 34 336 -14 q 117 166 165 82 q 69 353 69 250 q 143 560 69 464 q 328 712 217 656 q 543 768 439 768 m 463 582 q 394 541 418 582 q 369 419 369 500 q 410 242 369 311 q 525 172 451 172 q 594 214 569 172 q 618 336 618 256 q 577 513 618 444 q 463 582 536 582 m 149 1131 l 840 1131 l 840 1018 l 149 1018 l 149 1131 z "},"ø":{"ha":988,"x_min":71,"x_max":921,"o":"m 753 713 q 876 582 832 664 q 921 401 921 500 q 847 194 921 290 q 663 42 774 99 q 447 -14 551 -14 q 342 -1 392 -14 l 217 -217 l 119 -161 l 238 43 q 115 173 160 92 q 71 353 71 254 q 144 560 71 464 q 329 712 218 656 q 544 768 440 768 q 647 756 600 768 l 772 972 l 869 917 l 751 711 l 753 713 m 371 421 q 386 303 371 357 l 536 561 q 464 583 503 583 q 395 542 419 583 q 371 421 371 501 m 526 174 q 595 215 571 174 q 619 338 619 257 q 604 456 619 401 l 454 196 q 526 174 488 174 z "},"õ":{"ha":988,"x_min":69,"x_max":918,"o":"m 543 768 q 737 720 651 768 q 870 588 822 672 q 918 401 918 504 q 844 194 918 290 q 660 42 771 99 q 444 -14 549 -14 q 251 34 336 -14 q 117 166 165 82 q 69 353 69 250 q 143 560 69 464 q 328 712 217 656 q 543 768 439 768 m 463 582 q 394 541 418 582 q 369 419 369 500 q 410 242 369 311 q 525 172 451 172 q 594 214 569 172 q 618 336 618 256 q 577 513 618 444 q 463 582 536 582 m 481 1269 q 588 1172 550 1200 q 657 1143 626 1143 q 707 1160 681 1143 l 792 1213 l 853 1111 l 503 896 q 395 994 433 967 q 328 1022 357 1022 q 275 1004 307 1022 l 192 953 l 131 1054 l 481 1269 z "},"œ":{"ha":1419,"x_min":68,"x_max":1351,"o":"m 1042 768 q 1271 653 1190 768 q 1347 325 1351 538 l 883 325 q 934 224 899 261 q 1024 188 969 188 q 1304 260 1118 188 l 1346 165 l 1156 13 q 943 -14 1067 -14 q 806 13 869 -14 q 696 90 743 40 q 564 14 635 42 q 429 -14 493 -14 q 243 34 325 -14 q 115 166 161 82 q 68 353 68 250 q 140 560 68 464 q 319 712 211 656 q 528 768 428 768 q 661 741 600 768 q 767 664 722 714 q 903 740 831 713 q 1044 768 976 768 l 1042 768 m 508 172 q 567 214 546 172 q 588 336 588 256 q 550 513 588 444 q 446 582 513 582 q 388 541 408 582 q 367 419 367 500 q 404 242 367 311 q 508 172 442 172 m 965 582 q 899 547 921 582 q 874 438 876 511 l 1076 438 q 1044 547 1069 511 q 967 582 1018 582 l 965 582 z "},"p":{"ha":1076,"x_min":49,"x_max":1007,"o":"m 532 -14 q 450 7 488 -14 l 450 -187 l 672 -242 l 617 -353 l 49 -353 l 49 -254 l 172 -146 l 172 478 l 49 558 l 49 657 l 369 781 l 428 629 l 586 757 q 688 768 631 768 q 852 720 779 768 q 966 588 925 672 q 1007 401 1007 504 q 933 194 1007 290 q 749 42 860 99 q 533 -14 638 -14 l 532 -14 m 590 540 q 449 510 515 540 l 449 308 q 492 211 449 250 q 613 172 535 172 q 714 336 714 172 q 683 483 714 426 q 592 540 653 540 l 590 540 z "},"þ":{"ha":1049,"x_min":21,"x_max":979,"o":"m 504 -14 q 422 7 460 -14 l 422 -187 l 644 -242 l 589 -353 l 21 -353 l 21 -254 l 144 -146 l 144 910 l 21 990 l 21 1089 l 314 1213 l 422 1213 l 422 647 l 558 757 q 660 768 603 768 q 824 720 751 768 q 938 588 897 672 q 979 401 979 504 q 906 194 979 290 q 721 42 832 99 q 506 -14 610 -14 l 504 -14 m 563 540 q 421 510 488 540 l 421 308 q 464 211 421 250 q 585 172 507 172 q 686 336 686 172 q 656 483 686 426 q 564 540 625 540 l 563 540 z "},"q":{"ha":1035,"x_min":71,"x_max":1043,"o":"m 988 -351 l 406 -351 l 406 -253 l 626 -161 l 626 101 l 497 -1 q 390 -12 453 -12 q 226 35 299 -12 q 112 165 153 83 q 71 346 71 247 q 136 556 71 458 q 299 712 201 654 q 489 769 397 769 q 719 703 619 769 l 794 765 l 903 765 l 903 -210 l 1043 -240 l 988 -351 m 490 218 q 628 246 564 218 l 628 469 q 577 551 619 518 q 464 583 535 583 q 388 539 414 583 q 363 413 363 494 q 396 272 363 328 q 489 217 429 217 l 490 218 z "},"r":{"ha":832,"x_min":49,"x_max":840,"o":"m 525 539 q 450 514 486 539 l 450 165 l 672 111 l 617 0 l 49 0 l 49 99 l 172 207 l 172 478 l 49 558 l 49 657 l 369 781 l 425 636 l 543 757 q 606 768 568 768 q 757 731 696 768 q 840 626 818 693 l 683 429 l 575 429 q 564 514 575 489 q 525 539 553 539 z "},"ŕ":{"ha":832,"x_min":49,"x_max":840,"o":"m 525 539 q 450 514 486 539 l 450 165 l 672 111 l 617 0 l 49 0 l 49 99 l 172 207 l 172 478 l 49 558 l 49 657 l 369 781 l 425 636 l 543 757 q 606 768 568 768 q 757 731 696 768 q 840 626 818 693 l 683 429 l 575 429 q 564 514 575 489 q 525 539 553 539 m 806 1124 l 414 924 l 319 967 l 468 1239 l 765 1213 l 806 1124 z "},"ř":{"ha":832,"x_min":49,"x_max":840,"o":"m 525 539 q 450 514 486 539 l 450 165 l 672 111 l 617 0 l 49 0 l 49 99 l 172 207 l 172 478 l 49 558 l 49 657 l 369 781 l 425 636 l 543 757 q 606 768 568 768 q 757 731 696 768 q 840 626 818 693 l 683 429 l 575 429 q 564 514 575 489 q 525 539 553 539 m 469 924 l 78 1124 l 118 1213 l 415 1239 l 500 1082 l 760 1242 l 821 1140 l 469 924 z "},"ŗ":{"ha":832,"x_min":49,"x_max":840,"o":"m 525 539 q 450 514 486 539 l 450 165 l 672 111 l 617 0 l 49 0 l 49 99 l 172 207 l 172 478 l 49 558 l 49 657 l 369 781 l 425 636 l 543 757 q 606 768 568 768 q 757 731 696 768 q 840 626 818 693 l 683 429 l 575 429 q 564 514 575 489 q 525 539 553 539 m 519 -214 l 342 -422 l 192 -422 l 235 -292 l 104 -226 l 160 -115 l 519 -115 l 519 -214 z "},"s":{"ha":776,"x_min":63,"x_max":736,"o":"m 426 192 q 395 234 426 211 q 296 297 364 257 q 125 413 186 361 q 64 526 64 464 q 115 633 64 576 q 241 729 167 690 q 378 768 315 768 q 556 752 454 768 q 703 717 657 736 l 703 475 l 594 475 q 513 567 561 533 q 414 601 464 601 q 384 590 394 601 q 374 563 374 579 q 406 516 374 540 q 510 450 439 492 q 676 339 617 389 q 736 228 736 289 q 683 120 736 176 q 554 25 631 64 q 414 -14 478 -14 q 222 2 333 -14 q 63 38 111 18 l 63 293 l 171 293 q 267 190 210 228 q 379 153 324 153 q 413 164 400 153 q 426 192 426 175 z "},"ś":{"ha":776,"x_min":63,"x_max":750,"o":"m 426 192 q 395 234 426 211 q 296 297 364 257 q 125 413 186 361 q 64 526 64 464 q 115 633 64 576 q 241 729 167 690 q 378 768 315 768 q 556 752 454 768 q 703 717 657 736 l 703 475 l 594 475 q 513 567 561 533 q 414 601 464 601 q 384 590 394 601 q 374 563 374 579 q 406 516 374 540 q 510 450 439 492 q 676 339 617 389 q 736 228 736 289 q 683 120 736 176 q 554 25 631 64 q 414 -14 478 -14 q 222 2 333 -14 q 63 38 111 18 l 63 293 l 171 293 q 267 190 210 228 q 379 153 324 153 q 413 164 400 153 q 426 192 426 175 m 750 1124 l 358 924 l 264 967 l 413 1239 l 710 1213 l 750 1124 z "},"š":{"ha":776,"x_min":22,"x_max":765,"o":"m 426 192 q 395 234 426 211 q 296 297 364 257 q 125 413 186 361 q 64 526 64 464 q 115 633 64 576 q 241 729 167 690 q 378 768 315 768 q 556 752 454 768 q 703 717 657 736 l 703 475 l 594 475 q 513 567 561 533 q 414 601 464 601 q 384 590 394 601 q 374 563 374 579 q 406 516 374 540 q 510 450 439 492 q 676 339 617 389 q 736 228 736 289 q 683 120 736 176 q 554 25 631 64 q 414 -14 478 -14 q 222 2 333 -14 q 63 38 111 18 l 63 293 l 171 293 q 267 190 210 228 q 379 153 324 153 q 413 164 400 153 q 426 192 426 175 m 414 924 l 22 1124 l 63 1213 l 360 1239 l 444 1082 l 704 1242 l 765 1140 l 414 924 z "},"ş":{"ha":776,"x_min":63,"x_max":736,"o":"m 615 63 q 464 -81 558 0 q 566 -153 539 -121 q 593 -226 593 -185 q 514 -324 593 -290 q 271 -365 435 -358 l 271 -267 q 328 -237 311 -253 q 344 -196 344 -221 q 328 -149 344 -169 q 268 -97 313 -128 q 368 -12 335 -42 q 194 6 286 -8 q 63 38 103 21 l 63 293 l 171 293 q 267 190 210 228 q 379 153 324 153 q 413 164 400 153 q 426 192 426 175 q 395 234 426 211 q 296 297 364 257 q 125 413 186 361 q 64 526 64 464 q 115 633 64 576 q 241 729 167 690 q 378 768 315 768 q 556 752 454 768 q 703 717 657 736 l 703 475 l 594 475 q 513 567 561 533 q 414 601 464 601 q 384 590 394 601 q 374 563 374 579 q 406 516 374 540 q 510 450 439 492 q 676 339 617 389 q 736 228 736 289 q 703 145 736 189 q 615 63 669 101 z "},"ș":{"ha":776,"x_min":63,"x_max":736,"o":"m 426 192 q 395 234 426 211 q 296 297 364 257 q 125 413 186 361 q 64 526 64 464 q 115 633 64 576 q 241 729 167 690 q 378 768 315 768 q 556 752 454 768 q 703 717 657 736 l 703 475 l 594 475 q 513 567 561 533 q 414 601 464 601 q 384 590 394 601 q 374 563 374 579 q 406 516 374 540 q 510 450 439 492 q 676 339 617 389 q 736 228 736 289 q 683 120 736 176 q 554 25 631 64 q 414 -14 478 -14 q 222 2 333 -14 q 63 38 111 18 l 63 293 l 171 293 q 267 190 210 228 q 379 153 324 153 q 413 164 400 153 q 426 192 426 175 m 603 -214 l 425 -422 l 275 -422 l 318 -292 l 188 -226 l 243 -115 l 603 -115 l 603 -214 z "},"ß":{"ha":1165,"x_min":35,"x_max":1125,"o":"m 824 671 q 857 583 824 621 q 961 489 890 544 q 1083 377 1040 428 q 1125 256 1125 326 q 1072 136 1125 200 q 942 29 1019 72 q 803 -14 865 -14 q 663 -2 743 -14 q 549 24 582 10 l 549 279 l 657 279 q 727 186 685 219 q 810 153 769 153 q 844 164 831 153 q 857 192 857 175 q 831 239 857 214 q 753 304 806 264 q 614 429 664 374 q 564 554 564 485 q 584 640 564 603 q 644 729 604 678 q 692 799 676 771 q 708 860 708 828 q 689 942 708 896 q 639 1022 669 989 q 578 1054 608 1054 q 502 1011 528 1054 q 476 886 476 968 l 476 0 l 75 0 l 75 99 l 199 196 l 199 600 l 35 600 l 35 713 l 199 713 l 199 819 q 275 1020 199 926 q 466 1170 351 1114 q 686 1226 581 1226 q 819 1191 742 1226 q 952 1101 896 1156 q 1008 993 1008 1047 q 983 903 1008 943 q 908 814 957 864 q 844 738 865 768 q 824 671 824 707 z "},"ſ":{"ha":719,"x_min":35,"x_max":831,"o":"m 603 1226 q 728 1210 657 1226 q 831 1175 799 1194 l 831 906 l 722 906 q 640 1008 689 971 q 542 1046 592 1046 q 474 1010 499 1046 q 450 911 450 975 l 450 165 l 672 111 l 617 0 l 49 0 l 49 99 l 172 207 l 172 600 l 35 600 l 35 713 l 172 713 l 172 811 q 240 1018 172 922 q 409 1170 308 1114 q 603 1226 510 1226 z "},"t":{"ha":715,"x_min":0,"x_max":701,"o":"m 561 -3 q 428 -14 504 -14 q 217 47 283 -14 q 150 233 150 107 l 150 600 l 0 600 l 0 685 l 319 1019 l 428 1019 l 428 713 l 678 713 l 678 600 l 428 600 l 428 258 q 536 174 428 174 q 591 180 564 174 q 660 203 618 186 l 701 108 l 561 -3 z "},"ŧ":{"ha":715,"x_min":0,"x_max":701,"o":"m 561 -3 q 428 -14 504 -14 q 217 47 283 -14 q 150 233 150 107 l 150 600 l 0 600 l 0 685 l 319 1019 l 428 1019 l 428 713 l 678 713 l 678 600 l 428 600 l 428 258 q 536 174 428 174 q 591 180 564 174 q 660 203 618 186 l 701 108 l 561 -3 m 339 522 l 339 522 l 339 522 l 339 522 l 339 522 z "},"ť":{"ha":715,"x_min":0,"x_max":818,"o":"m 561 -3 q 428 -14 504 -14 q 217 47 283 -14 q 150 233 150 107 l 150 600 l 0 600 l 0 685 l 319 1019 l 428 1019 l 428 713 l 678 713 l 678 600 l 428 600 l 428 258 q 536 174 428 174 q 591 180 564 174 q 660 203 618 186 l 701 108 l 561 -3 m 818 954 l 667 793 l 557 876 q 582 971 574 926 l 501 1025 l 501 1124 l 711 1213 l 818 1213 l 818 954 z "},"ţ":{"ha":715,"x_min":1,"x_max":701,"o":"m 469 -82 q 572 -154 544 -122 q 599 -228 599 -186 q 519 -326 599 -292 q 276 -367 440 -360 l 276 -268 q 333 -238 317 -254 q 350 -197 350 -222 q 334 -150 350 -171 q 274 -99 318 -129 l 376 -11 q 206 59 260 -1 q 151 235 151 119 l 151 601 l 1 601 l 1 686 l 321 1021 l 429 1021 l 429 714 l 679 714 l 679 601 l 429 601 l 429 260 q 538 175 429 175 q 564 176 556 175 l 565 175 q 660 203 601 179 l 701 108 l 561 -3 l 557 -3 q 469 -82 513 -44 z "},"ț":{"ha":715,"x_min":0,"x_max":701,"o":"m 561 -3 q 428 -14 504 -14 q 217 47 283 -14 q 150 233 150 107 l 150 600 l 0 600 l 0 685 l 319 1019 l 428 1019 l 428 713 l 678 713 l 678 600 l 428 600 l 428 258 q 536 174 428 174 q 591 180 564 174 q 660 203 618 186 l 701 108 l 561 -3 m 608 -214 l 431 -422 l 281 -422 l 324 -292 l 193 -226 l 249 -115 l 608 -115 l 608 -214 z "},"u":{"ha":1014,"x_min":8,"x_max":1007,"o":"m 951 0 l 604 0 l 604 104 l 469 -4 q 379 -15 432 -15 q 199 42 265 -15 q 132 199 132 100 l 132 475 l 8 546 l 8 644 l 301 768 l 410 768 l 410 324 q 427 239 410 264 q 488 214 444 214 q 604 243 547 214 l 604 475 l 481 546 l 481 644 l 774 768 l 882 768 l 882 150 l 1007 111 l 951 0 z "},"ú":{"ha":1014,"x_min":8,"x_max":1007,"o":"m 951 0 l 604 0 l 604 104 l 469 -4 q 379 -15 432 -15 q 199 42 265 -15 q 132 199 132 100 l 132 475 l 8 546 l 8 644 l 301 768 l 410 768 l 410 324 q 427 239 410 264 q 488 214 444 214 q 604 243 547 214 l 604 475 l 481 546 l 481 644 l 774 768 l 882 768 l 882 150 l 1007 111 l 951 0 m 868 1124 l 476 924 l 382 967 l 531 1239 l 828 1213 l 868 1124 z "},"û":{"ha":1014,"x_min":8,"x_max":1007,"o":"m 951 0 l 604 0 l 604 104 l 469 -4 q 379 -15 432 -15 q 199 42 265 -15 q 132 199 132 100 l 132 475 l 8 546 l 8 644 l 301 768 l 410 768 l 410 324 q 427 239 410 264 q 488 214 444 214 q 604 243 547 214 l 604 475 l 481 546 l 481 644 l 774 768 l 882 768 l 882 150 l 1007 111 l 951 0 m 861 944 l 564 918 l 479 1075 l 219 915 l 158 1017 l 510 1233 l 901 1033 l 861 944 z "},"ü":{"ha":1014,"x_min":8,"x_max":1007,"o":"m 288 917 q 191 955 229 917 q 153 1050 153 993 q 181 1126 153 1090 q 249 1183 208 1161 q 329 1204 290 1204 q 427 1165 389 1204 q 465 1069 465 1126 q 438 994 465 1029 q 368 938 410 958 q 288 917 326 917 m 718 917 q 622 955 660 917 q 583 1050 583 993 q 611 1126 583 1090 q 680 1183 639 1161 q 760 1204 721 1204 q 858 1165 819 1204 q 896 1069 896 1126 q 868 994 896 1029 q 799 938 840 958 q 718 917 757 917 m 951 0 l 604 0 l 604 104 l 469 -4 q 379 -15 432 -15 q 199 42 265 -15 q 132 199 132 100 l 132 475 l 8 546 l 8 644 l 301 768 l 410 768 l 410 324 q 427 239 410 264 q 488 214 444 214 q 604 243 547 214 l 604 475 l 481 546 l 481 644 l 774 768 l 882 768 l 882 150 l 1007 111 l 951 0 z "},"ù":{"ha":1014,"x_min":8,"x_max":1007,"o":"m 951 0 l 604 0 l 604 104 l 469 -4 q 379 -15 432 -15 q 199 42 265 -15 q 132 199 132 100 l 132 475 l 8 546 l 8 644 l 301 768 l 410 768 l 410 324 q 427 239 410 264 q 488 214 444 214 q 604 243 547 214 l 604 475 l 481 546 l 481 644 l 774 768 l 882 768 l 882 150 l 1007 111 l 951 0 m 567 924 l 175 1124 l 215 1213 l 513 1239 l 661 967 l 567 924 z "},"ű":{"ha":1014,"x_min":8,"x_max":1076,"o":"m 951 0 l 604 0 l 604 104 l 469 -4 q 379 -15 432 -15 q 199 42 265 -15 q 132 199 132 100 l 132 475 l 8 546 l 8 644 l 301 768 l 410 768 l 410 324 q 427 239 410 264 q 488 214 444 214 q 604 243 547 214 l 604 475 l 481 546 l 481 644 l 774 768 l 882 768 l 882 150 l 1007 111 l 951 0 m 632 1124 l 296 924 l 201 967 l 308 1239 l 592 1213 l 632 1124 m 1076 1124 l 740 924 l 646 967 l 753 1239 l 1036 1213 l 1076 1124 z "},"ū":{"ha":1014,"x_min":8,"x_max":1007,"o":"m 951 0 l 604 0 l 604 104 l 469 -4 q 379 -15 432 -15 q 199 42 265 -15 q 132 199 132 100 l 132 475 l 8 546 l 8 644 l 301 768 l 410 768 l 410 324 q 427 239 410 264 q 488 214 444 214 q 604 243 547 214 l 604 475 l 481 546 l 481 644 l 774 768 l 882 768 l 882 150 l 1007 111 l 951 0 m 175 1131 l 867 1131 l 867 1018 l 175 1018 l 175 1131 z "},"ų":{"ha":1014,"x_min":8,"x_max":1007,"o":"m 906 -129 q 922 -164 906 -153 q 974 -175 938 -175 l 974 -283 l 869 -367 q 695 -309 756 -351 q 635 -203 635 -267 q 646 -143 635 -162 l 824 0 l 604 0 l 604 104 l 469 -4 q 379 -15 432 -15 q 199 42 265 -15 q 132 199 132 100 l 132 475 l 8 546 l 8 644 l 301 768 l 410 768 l 410 324 q 427 239 410 264 q 488 214 444 214 q 604 243 547 214 l 604 475 l 481 546 l 481 644 l 774 768 l 882 768 l 882 150 l 1007 111 l 951 0 q 906 -129 906 -87 z "},"ů":{"ha":1014,"x_min":8,"x_max":1007,"o":"m 951 0 l 604 0 l 604 104 l 469 -4 q 379 -15 432 -15 q 199 42 265 -15 q 132 199 132 100 l 132 475 l 8 546 l 8 644 l 301 768 l 410 768 l 410 324 q 427 239 410 264 q 488 214 444 214 q 604 243 547 214 l 604 475 l 481 546 l 481 644 l 774 768 l 882 768 l 882 150 l 1007 111 l 951 0 m 569 1240 q 676 1220 629 1240 q 751 1166 724 1200 q 778 1090 778 1132 q 730 993 778 1039 q 610 919 682 947 q 471 892 539 892 q 365 912 413 892 q 290 966 317 932 q 263 1042 263 1000 q 310 1139 263 1093 q 430 1213 358 1185 q 569 1240 501 1240 m 489 1138 q 455 1126 467 1138 q 443 1094 443 1115 q 472 1023 443 1051 q 551 994 500 994 q 597 1039 597 994 q 569 1110 597 1082 q 489 1138 540 1138 z "},"v":{"ha":929,"x_min":-14,"x_max":901,"o":"m 901 656 l 542 0 l 325 0 l 126 483 l -14 565 l -14 664 l 335 781 l 388 571 l 529 229 l 679 510 l 472 643 l 528 754 l 901 754 l 901 656 z "},"w":{"ha":1374,"x_min":-14,"x_max":1346,"o":"m 1346 654 l 1014 -1 l 797 -1 l 688 264 l 542 -1 l 325 -1 l 126 482 l -14 564 l -14 663 l 335 779 l 388 569 l 529 228 l 626 413 l 597 483 l 457 565 l 457 664 l 806 781 l 858 571 l 999 235 l 1129 506 l 917 643 l 972 754 l 1346 753 l 1346 654 z "},"ẃ":{"ha":1374,"x_min":-14,"x_max":1346,"o":"m 1346 654 l 1014 -1 l 797 -1 l 688 264 l 542 -1 l 325 -1 l 126 482 l -14 564 l -14 663 l 335 779 l 388 569 l 529 228 l 626 413 l 597 483 l 457 565 l 457 664 l 806 781 l 858 571 l 999 235 l 1129 506 l 917 643 l 972 754 l 1346 753 l 1346 654 m 1028 1124 l 636 924 l 542 967 l 690 1239 l 988 1213 l 1028 1124 z "},"ŵ":{"ha":1374,"x_min":-14,"x_max":1346,"o":"m 1346 654 l 1014 -1 l 797 -1 l 688 264 l 542 -1 l 325 -1 l 126 482 l -14 564 l -14 663 l 335 779 l 388 569 l 529 228 l 626 413 l 597 483 l 457 565 l 457 664 l 806 781 l 858 571 l 999 235 l 1129 506 l 917 643 l 972 754 l 1346 753 l 1346 654 m 1021 944 l 724 918 l 639 1075 l 379 915 l 318 1017 l 669 1233 l 1061 1033 l 1021 944 z "},"ẅ":{"ha":1374,"x_min":-14,"x_max":1346,"o":"m 447 917 q 351 955 389 917 q 313 1050 313 993 q 340 1126 313 1090 q 409 1183 368 1161 q 489 1204 450 1204 q 587 1165 549 1204 q 625 1069 625 1126 q 597 994 625 1029 q 528 938 569 958 q 447 917 486 917 m 878 917 q 781 955 819 917 q 743 1050 743 993 q 771 1126 743 1090 q 840 1183 799 1161 q 919 1204 881 1204 q 1017 1165 979 1204 q 1056 1069 1056 1126 q 1028 994 1056 1029 q 958 938 1000 958 q 878 917 917 917 m 1346 654 l 1014 -1 l 797 -1 l 688 264 l 542 -1 l 325 -1 l 126 482 l -14 564 l -14 663 l 335 779 l 388 569 l 529 228 l 626 413 l 597 483 l 457 565 l 457 664 l 806 781 l 858 571 l 999 235 l 1129 506 l 917 643 l 972 754 l 1346 753 l 1346 654 z "},"ẁ":{"ha":1374,"x_min":-14,"x_max":1346,"o":"m 1346 654 l 1014 -1 l 797 -1 l 688 264 l 542 -1 l 325 -1 l 126 482 l -14 564 l -14 663 l 335 779 l 388 569 l 529 228 l 626 413 l 597 483 l 457 565 l 457 664 l 806 781 l 858 571 l 999 235 l 1129 506 l 917 643 l 972 754 l 1346 753 l 1346 654 m 726 924 l 335 1124 l 375 1213 l 672 1239 l 821 967 l 726 924 z "},"x":{"ha":956,"x_min":14,"x_max":942,"o":"m 886 0 l 582 0 l 399 258 l 297 167 l 418 110 l 363 -1 l 31 -1 l 31 97 l 328 354 l 157 576 l 14 643 l 69 754 l 374 754 l 564 500 l 660 588 l 539 643 l 594 754 l 926 754 l 926 656 l 629 399 l 781 201 l 942 111 l 886 0 z "},"y":{"ha":929,"x_min":-14,"x_max":901,"o":"m 901 656 l 542 0 l 193 -367 l 85 -283 q 223 -73 182 -161 q 274 124 264 15 l 126 483 l -14 565 l -14 664 l 335 781 l 388 571 l 529 229 l 679 510 l 472 643 l 528 754 l 901 754 l 901 656 z "},"ý":{"ha":929,"x_min":-14,"x_max":901,"o":"m 901 656 l 542 0 l 193 -367 l 85 -283 q 223 -73 182 -161 q 274 124 264 15 l 126 483 l -14 565 l -14 664 l 335 781 l 388 571 l 529 229 l 679 510 l 472 643 l 528 754 l 901 754 l 901 656 m 806 1124 l 414 924 l 319 967 l 468 1239 l 765 1213 l 806 1124 z "},"ŷ":{"ha":929,"x_min":-14,"x_max":901,"o":"m 901 656 l 542 0 l 193 -367 l 85 -283 q 223 -73 182 -161 q 274 124 264 15 l 126 483 l -14 565 l -14 664 l 335 781 l 388 571 l 529 229 l 679 510 l 472 643 l 528 754 l 901 754 l 901 656 m 799 944 l 501 918 l 417 1075 l 157 915 l 96 1017 l 447 1233 l 839 1033 l 799 944 z "},"ÿ":{"ha":929,"x_min":-14,"x_max":901,"o":"m 225 917 q 128 955 167 917 q 90 1050 90 993 q 118 1126 90 1090 q 187 1183 146 1161 q 267 1204 228 1204 q 365 1165 326 1204 q 403 1069 403 1126 q 375 994 403 1029 q 306 938 347 958 q 225 917 264 917 m 656 917 q 559 955 597 917 q 521 1050 521 993 q 549 1126 521 1090 q 617 1183 576 1161 q 697 1204 658 1204 q 795 1165 757 1204 q 833 1069 833 1126 q 806 994 833 1029 q 736 938 778 958 q 656 917 694 917 m 901 656 l 542 0 l 193 -367 l 85 -283 q 223 -73 182 -161 q 274 124 264 15 l 126 483 l -14 565 l -14 664 l 335 781 l 388 571 l 529 229 l 679 510 l 472 643 l 528 754 l 901 754 l 901 656 z "},"ỳ":{"ha":929,"x_min":-14,"x_max":901,"o":"m 901 656 l 542 0 l 193 -367 l 85 -283 q 223 -73 182 -161 q 274 124 264 15 l 126 483 l -14 565 l -14 664 l 335 781 l 388 571 l 529 229 l 679 510 l 472 643 l 528 754 l 901 754 l 901 656 m 504 924 l 113 1124 l 153 1213 l 450 1239 l 599 967 l 504 924 z "},"z":{"ha":925,"x_min":85,"x_max":842,"o":"m 679 278 l 735 406 l 832 378 l 832 -25 l 700 0 l 85 0 l 85 108 l 478 476 l 244 476 l 192 363 l 94 390 l 94 779 l 226 754 l 842 754 l 842 646 l 450 278 l 679 278 z "},"ź":{"ha":925,"x_min":85,"x_max":842,"o":"m 679 278 l 735 406 l 832 378 l 832 -25 l 700 0 l 85 0 l 85 108 l 478 476 l 244 476 l 192 363 l 94 390 l 94 779 l 226 754 l 842 754 l 842 646 l 450 278 l 679 278 m 821 1124 l 429 924 l 335 967 l 483 1239 l 781 1213 l 821 1124 z "},"ž":{"ha":925,"x_min":85,"x_max":842,"o":"m 679 278 l 735 406 l 832 378 l 832 -25 l 700 0 l 85 0 l 85 108 l 478 476 l 244 476 l 192 363 l 94 390 l 94 779 l 226 754 l 842 754 l 842 646 l 450 278 l 679 278 m 485 924 l 93 1124 l 133 1213 l 431 1239 l 515 1082 l 775 1242 l 836 1140 l 485 924 z "},"ż":{"ha":925,"x_min":85,"x_max":842,"o":"m 679 278 l 735 406 l 832 378 l 832 -25 l 700 0 l 85 0 l 85 108 l 478 476 l 244 476 l 192 363 l 94 390 l 94 779 l 226 754 l 842 754 l 842 646 l 450 278 l 679 278 m 494 1201 q 609 1158 564 1201 q 654 1051 654 1115 q 622 968 654 1007 q 540 906 589 929 q 446 882 492 882 q 332 925 378 882 q 286 1031 286 968 q 319 1115 286 1075 q 400 1178 351 1154 q 494 1201 449 1201 z "},"ﬁ":{"ha":1164,"x_min":35,"x_max":1157,"o":"m 1101 0 l 754 0 l 754 508 l 639 600 l 450 600 l 450 165 l 672 111 l 617 0 l 49 0 l 49 99 l 172 207 l 172 600 l 35 600 l 35 713 l 172 713 l 172 811 q 240 1018 172 922 q 409 1170 308 1114 q 603 1226 510 1226 q 818 1217 710 1226 q 969 1186 926 1207 q 1031 1132 1008 1168 q 1054 1051 1054 1096 q 1022 968 1054 1007 q 940 906 989 929 q 846 882 892 882 q 767 904 803 882 q 699 968 732 926 q 631 1031 663 1015 q 542 1046 599 1046 q 474 1010 499 1046 q 450 911 450 975 l 450 713 l 658 713 l 924 781 l 1032 781 l 1032 150 l 1157 111 l 1101 0 z "},"ﬂ":{"ha":1164,"x_min":35,"x_max":1156,"o":"m 1100 0 l 753 0 l 753 921 q 657 1013 714 979 q 542 1046 600 1046 q 474 1010 499 1046 q 450 911 450 975 l 450 713 l 674 713 l 674 600 l 450 600 l 450 165 l 672 111 l 617 0 l 49 0 l 49 99 l 172 207 l 172 600 l 35 600 l 35 713 l 172 713 l 172 811 q 240 1018 172 922 q 409 1170 308 1114 q 603 1226 510 1226 q 794 1222 686 1226 q 951 1213 903 1218 l 1032 1213 l 1032 150 l 1156 111 l 1100 0 z "},"ª":{"ha":825,"x_min":54,"x_max":818,"o":"m 770 576 l 475 576 l 475 667 l 341 574 q 282 566 318 566 q 108 618 162 566 q 54 742 54 669 q 82 824 54 784 q 161 898 109 864 l 475 898 q 439 968 471 944 q 359 991 407 991 q 120 947 277 991 l 85 1018 l 247 1133 q 403 1152 312 1152 q 630 1096 549 1152 q 712 930 712 1039 l 712 696 l 817 660 l 770 576 m 354 738 q 475 773 406 738 l 475 814 l 295 814 q 287 798 289 805 q 285 781 285 791 q 303 749 285 761 q 355 738 321 738 l 354 738 z "},"º":{"ha":860,"x_min":68,"x_max":790,"o":"m 471 1152 q 636 1116 563 1152 q 749 1018 709 1081 q 790 877 790 955 q 727 722 790 794 q 570 608 665 650 q 387 566 476 566 q 223 602 295 566 q 109 701 150 638 q 69 841 69 764 q 131 996 69 924 q 288 1110 194 1068 q 471 1152 383 1152 m 403 1013 q 344 982 365 1013 q 324 891 324 951 q 359 758 324 810 q 456 706 393 706 q 514 737 494 706 q 535 828 535 768 q 500 961 535 910 q 403 1013 465 1013 z "},"Δ":{"ha":1215,"x_min":56,"x_max":1160,"o":"m 1160 0 l 56 0 l 56 100 l 438 1049 l 735 1119 l 1160 82 l 1160 0 m 524 865 l 231 132 l 821 132 l 524 865 z "},"Ω":{"ha":1374,"x_min":69,"x_max":1304,"o":"m 1276 324 l 1276 -24 l 1161 1 l 735 1 l 735 494 q 858 522 801 497 q 946 585 914 546 q 978 672 978 625 q 896 861 978 788 q 656 935 814 935 q 525 910 585 935 q 431 845 465 886 q 396 756 396 804 q 458 584 396 658 q 639 494 521 510 l 639 1 l 213 1 l 97 -24 l 97 324 l 194 365 l 363 133 l 396 133 l 396 336 q 158 473 247 379 q 69 688 69 567 q 175 903 69 803 q 438 1061 281 1003 q 736 1119 594 1119 q 1033 1069 904 1119 q 1233 932 1163 1019 q 1304 736 1304 844 q 1212 536 1304 629 q 978 383 1119 443 l 978 132 l 1011 132 l 1179 365 l 1276 324 z "},"μ":{"ha":981,"x_min":28,"x_max":939,"o":"m 858 251 q 881 168 858 214 q 939 82 903 122 l 689 -14 l 581 -14 l 581 104 l 446 -4 q 386 -14 414 -12 l 386 -87 q 408 -170 385 -124 q 467 -257 431 -217 l 217 -353 l 108 -353 l 108 503 q 86 586 108 540 q 28 672 64 632 l 278 768 l 386 768 l 386 324 q 403 239 386 264 q 464 214 421 214 q 581 243 524 214 l 581 503 q 558 586 581 540 q 500 672 536 632 l 750 768 l 858 768 l 858 251 z "},"π":{"ha":1092,"x_min":0,"x_max":1050,"o":"m 908 251 q 931 169 908 215 q 989 82 953 122 l 767 -14 l 658 -14 l 658 475 l 517 475 l 517 0 l 186 0 l 186 96 q 244 183 222 136 q 267 265 267 229 l 267 475 l 253 475 q 161 462 204 475 q 72 421 118 449 l 0 585 l 214 754 l 1050 754 l 1050 475 l 908 475 l 908 251 z "},"ॲ":{"ha":1560,"x_min":81,"x_max":1872,"o":"m 1475 853 l 1475 -17 l 1367 -17 l 1128 108 l 1197 199 l 1197 413 q 1113 376 1156 386 q 1010 367 1069 367 q 956 369 992 367 q 888 275 942 321 q 760 201 835 229 q 613 172 686 172 q 465 183 546 172 l 81 386 l 150 476 l 238 432 q 474 383 335 383 q 561 397 518 383 q 632 433 604 411 q 660 478 660 456 q 626 540 660 510 q 511 610 593 569 l 511 718 q 571 771 549 738 q 593 843 593 804 q 581 883 593 871 q 542 894 569 894 q 440 855 492 894 q 347 747 388 815 l 104 875 l 104 983 q 259 1068 156 1033 q 458 1103 363 1103 q 666 1053 565 1103 q 829 922 767 1003 q 892 757 892 842 q 861 665 892 710 q 776 586 831 621 l 793 578 q 894 549 860 549 q 1058 615 975 549 q 1197 789 1140 681 l 1197 856 l 1172 856 l 929 983 l 929 1092 l 1490 1092 l 1733 964 l 1733 853 l 1475 853 m 1136 1633 q 1126 1556 1126 1600 q 1167 1484 1126 1506 q 1289 1463 1207 1463 q 1458 1508 1388 1463 q 1572 1631 1528 1554 l 1622 1703 l 1872 1565 q 1785 1426 1851 1488 q 1615 1331 1718 1365 q 1386 1296 1513 1296 q 1121 1342 1251 1296 q 908 1460 990 1388 q 826 1608 826 1532 q 835 1671 826 1640 l 904 1761 l 1136 1633 z "},"ऄ":{"ha":1560,"x_min":-304,"x_max":1733,"o":"m 1475 853 l 1475 -17 l 1367 -17 l 1128 108 l 1197 199 l 1197 413 q 1113 376 1156 386 q 1010 367 1069 367 q 956 369 992 367 q 888 275 942 321 q 760 201 835 229 q 613 172 686 172 q 465 183 546 172 l 81 386 l 150 476 l 238 432 q 474 383 335 383 q 561 397 518 383 q 632 433 604 411 q 660 478 660 456 q 626 540 660 510 q 511 610 593 569 l 511 718 q 571 771 549 738 q 593 843 593 804 q 581 883 593 871 q 542 894 569 894 q 440 855 492 894 q 347 747 388 815 l 104 875 l 104 983 q 259 1068 156 1033 q 458 1103 363 1103 q 666 1053 565 1103 q 829 922 767 1003 q 892 757 892 842 q 861 665 892 710 q 776 586 831 621 l 793 578 q 894 549 860 549 q 1058 615 975 549 q 1197 789 1140 681 l 1197 856 l 1172 856 l 929 983 l 929 1092 l 1194 1092 l 1075 1188 q 897 1296 976 1267 q 738 1325 818 1325 q 586 1307 676 1325 q 528 1297 578 1306 q 422 1289 479 1289 q 170 1336 289 1289 q -72 1486 51 1383 l -304 1678 l -228 1763 l -104 1663 q 73 1555 -7 1585 q 233 1525 153 1525 q 385 1543 294 1525 q 442 1553 393 1544 q 549 1561 492 1561 q 800 1514 682 1561 q 1043 1364 918 1467 l 1376 1092 l 1490 1092 l 1733 964 l 1733 853 l 1475 853 z "},"अ":{"ha":1560,"x_min":81,"x_max":1733,"o":"m 1475 853 l 1475 -17 l 1367 -17 l 1128 108 l 1197 199 l 1197 413 q 1113 376 1156 386 q 1010 367 1069 367 q 956 369 992 367 q 888 275 942 321 q 760 201 835 229 q 613 172 686 172 q 465 183 546 172 l 81 386 l 150 476 l 238 432 q 474 383 335 383 q 561 397 518 383 q 632 433 604 411 q 660 478 660 456 q 626 540 660 510 q 511 610 593 569 l 511 718 q 571 771 549 738 q 593 843 593 804 q 581 883 593 871 q 542 894 569 894 q 440 855 492 894 q 347 747 388 815 l 104 875 l 104 983 q 259 1068 156 1033 q 458 1103 363 1103 q 666 1053 565 1103 q 829 922 767 1003 q 892 757 892 842 q 861 665 892 710 q 776 586 831 621 l 793 578 q 894 549 860 549 q 1058 615 975 549 q 1197 789 1140 681 l 1197 856 l 1172 856 l 929 983 l 929 1092 l 1490 1092 l 1733 964 l 1733 853 l 1475 853 z "},"आ":{"ha":2058,"x_min":81,"x_max":2232,"o":"m 1974 853 l 1974 -17 l 1865 -17 l 1626 108 l 1696 199 l 1696 853 l 1475 853 l 1475 -17 l 1367 -17 l 1128 108 l 1197 199 l 1197 413 q 1113 376 1156 386 q 1010 367 1069 367 q 956 369 992 367 q 888 275 942 321 q 760 201 835 229 q 613 172 686 172 q 465 183 546 172 l 81 386 l 150 476 l 238 432 q 474 383 335 383 q 561 397 518 383 q 632 433 604 411 q 660 478 660 456 q 626 540 660 510 q 511 610 593 569 l 511 718 q 571 771 549 738 q 593 843 593 804 q 581 883 593 871 q 542 894 569 894 q 440 855 492 894 q 347 747 388 815 l 104 875 l 104 983 q 259 1068 156 1033 q 458 1103 363 1103 q 666 1053 565 1103 q 829 922 767 1003 q 892 757 892 842 q 861 665 892 710 q 776 586 831 621 l 793 578 q 894 549 860 549 q 1058 615 975 549 q 1197 789 1140 681 l 1197 856 l 1172 856 l 929 983 l 929 1092 l 1989 1092 l 2232 964 l 2232 853 l 1974 853 z "},"इ":{"ha":1151,"x_min":-215,"x_max":1422,"o":"m 600 560 q 556 542 575 560 q 536 500 536 524 q 542 471 536 483 q 679 492 621 492 q 894 442 781 492 q 1084 321 1007 393 q 1161 185 1161 249 q 1097 94 1161 138 q 925 21 1032 50 q 697 -12 818 -8 l 808 -71 q 952 -119 871 -104 q 1115 -133 1033 -133 q 1204 -125 1163 -133 l 1422 -239 l 1422 -347 q 1293 -365 1354 -365 q 1131 -343 1210 -365 q 985 -289 1053 -321 q 796 -192 918 -257 l 279 82 q 102 218 168 139 q 36 383 36 297 q 60 464 36 432 q 132 496 85 496 q 267 427 200 496 q 385 244 335 358 q 596 197 490 197 q 779 217 710 197 q 849 269 849 238 q 833 297 849 285 q 797 310 817 310 q 735 264 763 310 q 452 345 564 290 q 289 466 340 400 q 238 596 238 532 q 276 690 238 643 q 374 766 314 736 q 494 796 433 796 l 719 796 l 719 856 l 31 856 l -215 983 l -215 1092 l 1176 1092 l 1422 964 l 1422 856 l 997 856 l 997 560 l 600 560 z "},"ई":{"ha":1151,"x_min":-215,"x_max":1422,"o":"m 600 560 q 556 542 575 560 q 536 500 536 524 q 542 471 536 483 q 679 492 621 492 q 894 442 781 492 q 1084 321 1007 393 q 1161 185 1161 249 q 1097 94 1161 138 q 925 21 1032 50 q 697 -12 818 -8 l 808 -71 q 952 -119 871 -104 q 1115 -133 1033 -133 q 1204 -125 1163 -133 l 1422 -239 l 1422 -347 q 1293 -365 1354 -365 q 1131 -343 1210 -365 q 985 -289 1053 -321 q 796 -192 918 -257 l 279 82 q 102 218 168 139 q 36 383 36 297 q 60 464 36 432 q 132 496 85 496 q 267 427 200 496 q 385 244 335 358 q 596 197 490 197 q 779 217 710 197 q 849 269 849 238 q 833 297 849 285 q 797 310 817 310 q 735 264 763 310 q 452 345 564 290 q 289 466 340 400 q 238 596 238 532 q 276 690 238 643 q 374 766 314 736 q 494 796 433 796 l 719 796 l 719 856 l 31 856 l -215 983 l -215 1092 l 736 1092 l 465 1311 q 456 1425 456 1365 q 501 1615 456 1528 q 639 1753 547 1701 q 863 1804 731 1804 q 1000 1792 926 1804 l 1206 1626 l 1164 1532 q 949 1590 1044 1590 q 803 1529 851 1590 q 756 1365 756 1468 q 863 1135 756 1219 l 917 1092 l 1176 1092 l 1422 964 l 1422 856 l 997 856 l 997 560 l 600 560 z "},"उ":{"ha":971,"x_min":-201,"x_max":1076,"o":"m 642 854 q 708 685 708 769 q 690 596 708 639 q 640 518 672 553 q 869 391 783 460 q 954 263 954 322 q 890 142 954 208 q 732 31 825 76 q 561 -14 639 -14 q 485 -10 528 -14 q 414 -3 442 -7 l 29 200 l 99 290 l 186 246 q 297 209 235 221 q 422 197 358 197 q 539 214 486 197 q 623 256 592 231 q 654 308 654 282 q 631 367 654 344 q 536 419 608 389 q 283 515 464 450 l 283 624 q 373 688 339 647 q 407 769 407 729 q 350 856 407 856 l 44 856 l -201 983 l -201 1092 l 829 1092 l 1075 964 l 1076 854 l 642 854 z "},"ऊ":{"ha":1636,"x_min":-201,"x_max":1865,"o":"m 640 854 q 707 685 707 769 q 689 596 707 639 q 639 518 671 553 l 700 493 q 818 638 772 589 q 933 722 864 688 q 1100 756 1001 756 q 1305 708 1199 756 q 1483 581 1411 661 q 1554 407 1554 500 q 1492 242 1554 313 q 1324 146 1429 172 l 1092 274 l 1092 382 q 1168 374 1135 374 q 1232 403 1210 374 q 1254 488 1254 433 q 1197 572 1254 572 q 1100 534 1143 572 q 990 410 1057 496 q 929 332 964 374 q 954 263 954 297 q 890 142 954 208 q 732 31 825 76 q 561 -14 639 -14 q 485 -10 528 -14 q 414 -3 442 -7 l 29 200 l 99 290 l 186 246 q 297 209 235 221 q 422 197 358 197 q 539 214 486 197 q 623 256 592 231 q 654 308 654 282 q 631 367 654 344 q 536 419 608 389 q 283 515 464 450 l 283 624 q 373 688 339 647 q 407 769 407 729 q 350 856 407 856 l 44 856 l -201 983 l -201 1092 l 1621 1092 l 1865 964 l 1865 856 l 640 854 z "},"ऋ":{"ha":2133,"x_min":-229,"x_max":2358,"o":"m 1186 565 q 1246 564 1204 564 q 1360 599 1301 564 q 1462 748 1390 690 q 1615 806 1533 806 q 1780 775 1689 806 q 1934 695 1871 744 q 1997 593 1997 646 q 1898 477 1997 526 q 1653 404 1799 428 q 1740 297 1669 344 l 1740 189 q 1664 197 1696 197 q 1600 163 1622 197 q 1578 64 1578 128 q 1635 -49 1578 -49 q 1738 21 1689 -49 q 1824 211 1788 90 l 2056 83 l 2056 -25 q 1901 -187 1976 -142 q 1732 -232 1826 -232 q 1527 -181 1633 -232 q 1349 -44 1421 -131 q 1278 144 1278 43 q 1299 253 1278 203 q 1361 343 1321 304 l 1353 385 l 1344 385 q 1188 413 1274 385 l 1188 -14 l 1079 -14 l 840 111 l 910 201 l 910 286 q 614 128 790 210 l 371 256 l 371 364 q 715 501 569 431 q 592 535 654 535 q 265 421 449 535 l 47 535 l 47 643 q 274 731 199 708 q 421 754 350 754 q 579 727 499 754 q 765 615 660 700 l 831 564 q 910 614 874 589 l 910 856 l 14 856 l -229 983 l -229 1092 l 2113 1092 l 2358 964 l 2358 856 l 1186 854 l 1186 565 z "},"ॠ":{"ha":2133,"x_min":-229,"x_max":2358,"o":"m 1188 568 q 1247 567 1206 567 q 1361 601 1303 567 q 1463 751 1392 693 q 1617 808 1535 808 q 1781 778 1690 808 q 1935 698 1872 747 q 1999 596 1999 649 q 1899 480 1999 529 q 1654 407 1800 431 q 1726 310 1668 353 l 1849 246 l 1849 138 q 1772 147 1808 147 q 1682 133 1719 147 q 1644 96 1644 119 q 1653 64 1644 79 l 1815 0 l 1815 -108 q 1700 -142 1744 -108 q 1653 -229 1656 -175 q 1669 -263 1653 -249 q 1710 -278 1686 -278 q 1785 -242 1751 -276 q 1851 -144 1819 -208 l 2083 -272 l 2083 -381 q 1993 -418 2040 -406 q 1876 -431 1946 -431 q 1639 -387 1754 -431 q 1452 -272 1524 -344 q 1381 -117 1381 -200 q 1474 24 1381 -40 q 1369 94 1407 54 q 1331 179 1331 133 q 1378 285 1331 240 q 1353 385 1361 333 l 1344 385 q 1188 413 1274 385 l 1188 -14 l 1079 -14 l 840 111 l 910 201 l 910 286 q 614 128 790 210 l 371 256 l 371 364 q 715 501 569 431 q 592 535 654 535 q 265 421 449 535 l 47 535 l 47 643 q 274 731 199 708 q 421 754 350 754 q 579 727 499 754 q 765 615 660 700 l 831 564 q 910 614 874 589 l 910 856 l 14 856 l -229 983 l -229 1092 l 2113 1092 l 2358 964 l 2358 856 l 1188 857 l 1188 568 z "},"ऌ":{"ha":1413,"x_min":-229,"x_max":1642,"o":"m 1078 707 q 1259 579 1188 660 q 1331 406 1331 499 q 1297 315 1331 357 q 1196 215 1263 272 q 1078 97 1118 149 q 1039 -19 1039 46 q 1096 -100 1039 -100 q 1174 -53 1136 -100 q 1243 76 1213 -7 l 1475 -51 l 1475 -160 q 1355 -235 1414 -214 q 1228 -256 1296 -256 q 1025 -206 1131 -256 q 850 -76 919 -156 q 781 86 781 3 q 815 190 781 143 q 921 307 849 236 q 1024 418 989 371 q 1058 519 1058 465 q 996 597 1058 597 q 884 544 935 597 q 771 394 833 492 l 728 331 l 551 428 l 551 536 l 568 557 q 517 571 544 571 q 419 526 458 571 q 381 404 381 481 q 406 299 381 347 q 488 206 432 250 l 613 106 l 543 15 l 90 382 q 81 463 81 419 q 118 601 81 533 q 231 711 156 668 q 415 754 306 754 q 676 685 553 754 q 800 747 731 732 l 800 856 l 15 856 l -229 983 l -229 1092 l 1397 1092 l 1642 964 l 1642 856 l 1078 854 l 1078 707 z "},"ॡ":{"ha":1413,"x_min":-229,"x_max":1642,"o":"m 1079 707 q 1260 578 1189 660 q 1332 399 1332 497 q 1308 333 1332 364 q 1236 263 1283 303 q 1169 197 1192 224 q 1147 139 1147 169 q 1174 84 1147 107 q 1263 28 1200 61 l 1263 -81 q 1147 -114 1193 -81 q 1101 -196 1101 -147 q 1117 -237 1101 -224 q 1158 -250 1133 -250 q 1215 -220 1189 -250 q 1271 -131 1242 -190 l 1503 -258 l 1503 -367 q 1424 -394 1464 -386 q 1329 -403 1385 -403 q 1087 -360 1203 -403 q 899 -244 971 -318 q 828 -85 828 -171 q 922 93 828 13 q 832 219 832 150 q 858 285 832 256 q 935 353 883 314 q 1026 436 994 399 q 1058 525 1058 474 q 1042 578 1058 558 q 994 597 1026 597 q 885 544 935 597 q 771 393 835 492 q 728 331 729 332 l 551 428 l 551 536 l 568 557 q 517 571 544 571 q 419 526 458 571 q 381 404 381 481 q 406 299 381 347 q 488 206 432 250 l 613 106 l 543 15 l 90 382 q 81 463 81 419 q 118 601 81 533 q 231 711 156 668 q 415 754 306 754 q 676 685 553 754 q 800 747 731 732 l 800 856 l 15 856 l -229 983 l -229 1092 l 1397 1092 l 1642 964 l 1642 856 l 1079 854 l 1079 707 z "},"ऍ":{"ha":994,"x_min":-229,"x_max":1256,"o":"m 879 857 q 926 557 926 689 q 895 374 926 453 q 807 256 864 296 l 575 383 l 575 492 q 630 553 613 515 q 647 649 647 592 q 626 857 647 718 l 426 857 q 390 533 390 681 q 422 334 390 403 q 526 229 454 265 l 663 157 q 904 -67 836 65 q 978 -365 972 -200 l 869 -365 l 700 -300 q 658 -56 700 -165 q 524 103 615 54 l 346 197 q 162 355 211 269 q 113 554 113 440 q 154 856 113 675 l 17 856 l -229 983 l -229 1092 l 922 1092 l 1168 964 l 1168 857 l 879 857 m 519 1633 q 510 1556 510 1600 q 550 1484 510 1506 q 672 1463 590 1463 q 841 1508 771 1463 q 956 1631 911 1554 l 1006 1703 l 1256 1565 q 1168 1426 1235 1488 q 999 1331 1101 1365 q 769 1296 896 1296 q 504 1342 635 1296 q 292 1460 374 1388 q 210 1608 210 1532 q 218 1671 210 1640 l 288 1761 l 519 1633 z "},"ऎ":{"ha":994,"x_min":-921,"x_max":1168,"o":"m 879 857 q 926 557 926 689 q 895 374 926 453 q 807 256 864 296 l 575 383 l 575 492 q 630 553 613 515 q 647 649 647 592 q 626 857 647 718 l 426 857 q 390 533 390 681 q 422 334 390 403 q 526 229 454 265 l 663 157 q 904 -67 836 65 q 978 -365 972 -200 l 869 -365 l 700 -300 q 658 -56 700 -165 q 524 103 615 54 l 346 197 q 162 355 211 269 q 113 554 113 440 q 154 856 113 675 l 17 856 l -229 983 l -229 1092 l 578 1092 l 458 1188 q 281 1296 360 1267 q 121 1325 201 1325 q -31 1307 60 1325 q -88 1297 -39 1306 q -194 1289 -137 1289 q -447 1336 -328 1289 q -689 1486 -565 1383 l -921 1678 l -844 1763 l -721 1663 q -544 1555 -624 1585 q -383 1525 -464 1525 q -232 1543 -322 1525 q -174 1553 -224 1544 q -68 1561 -125 1561 q 183 1514 65 1561 q 426 1364 301 1467 l 760 1092 l 922 1092 l 1168 964 l 1168 857 l 879 857 z "},"ए":{"ha":994,"x_min":-229,"x_max":1168,"o":"m 879 857 q 926 557 926 689 q 895 374 926 453 q 807 256 864 296 l 575 383 l 575 492 q 630 553 613 515 q 647 649 647 592 q 626 857 647 718 l 426 857 q 390 533 390 681 q 422 334 390 403 q 526 229 454 265 l 663 157 q 904 -67 836 65 q 978 -365 972 -200 l 869 -365 l 700 -300 q 658 -56 700 -165 q 524 103 615 54 l 346 197 q 162 355 211 269 q 113 554 113 440 q 154 856 113 675 l 17 856 l -229 983 l -229 1092 l 922 1092 l 1168 964 l 1168 857 l 879 857 z "},"ऐ":{"ha":994,"x_min":-361,"x_max":1168,"o":"m 879 857 q 926 557 926 689 q 895 374 926 453 q 807 256 864 296 l 575 383 l 575 492 q 630 553 613 515 q 647 649 647 592 q 626 857 647 718 l 426 857 q 390 533 390 681 q 422 334 390 403 q 526 229 454 265 l 663 157 q 904 -67 836 65 q 978 -365 972 -200 l 869 -365 l 700 -300 q 658 -56 700 -165 q 524 103 615 54 l 346 197 q 162 355 211 269 q 113 554 113 440 q 154 856 113 675 l 17 856 l -229 983 l -229 1092 l 576 1092 l 350 1272 q 172 1381 250 1351 q 13 1410 93 1410 q -118 1392 -60 1410 l -361 1519 l -361 1628 q -176 1646 -271 1646 q 74 1599 -44 1646 q 318 1449 192 1551 l 760 1092 l 922 1092 l 1168 964 l 1168 857 l 879 857 z "},"ऑ":{"ha":2058,"x_min":81,"x_max":2371,"o":"m 2371 1565 q 2283 1426 2350 1488 q 2114 1331 2217 1365 q 1885 1296 2011 1296 q 1619 1342 1750 1296 q 1407 1460 1489 1388 q 1325 1608 1325 1532 q 1333 1671 1325 1640 l 1403 1761 l 1635 1633 q 1625 1556 1625 1600 q 1665 1484 1625 1506 q 1788 1463 1706 1463 q 1956 1508 1886 1463 q 2071 1631 2026 1554 l 2121 1703 l 2371 1565 m 2232 961 l 2232 853 l 1974 853 l 1974 -17 l 1865 -17 l 1626 108 l 1696 199 l 1696 853 l 1475 853 l 1475 -17 l 1367 -17 l 1128 108 l 1197 199 l 1197 413 q 1113 376 1156 386 q 1010 367 1069 367 q 956 369 992 367 q 888 275 942 321 q 760 201 835 229 q 613 172 686 172 q 465 183 546 172 l 81 386 l 150 476 l 238 432 q 474 383 335 383 q 561 397 518 383 q 632 433 604 411 q 660 478 660 456 q 626 540 660 510 q 511 610 593 569 l 511 718 q 571 771 549 738 q 593 843 593 804 q 581 883 593 871 q 542 894 569 894 q 440 855 492 894 q 347 747 388 815 l 104 875 l 104 983 q 259 1068 156 1033 q 458 1103 363 1103 q 666 1053 565 1103 q 829 922 767 1003 q 892 757 892 842 q 861 665 892 710 q 776 586 831 621 l 793 578 q 894 549 860 549 q 1058 615 975 549 q 1197 789 1140 681 l 1197 856 l 1172 856 l 929 983 l 929 1092 l 1974 1092 l 1989 1089 l 2232 961 z "},"ऒ":{"ha":2058,"x_min":81,"x_max":2232,"o":"m 1974 853 l 1974 -17 l 1865 -17 l 1626 108 l 1696 199 l 1696 853 l 1475 853 l 1475 -17 l 1367 -17 l 1128 108 l 1197 199 l 1197 413 q 1113 376 1156 386 q 1010 367 1069 367 q 956 369 992 367 q 888 275 942 321 q 760 201 835 229 q 613 172 686 172 q 465 183 546 172 l 81 386 l 150 476 l 238 432 q 474 383 335 383 q 561 397 518 383 q 632 433 604 411 q 660 478 660 456 q 626 540 660 510 q 511 610 593 569 l 511 718 q 571 771 549 738 q 593 843 593 804 q 581 883 593 871 q 542 894 569 894 q 440 855 492 894 q 347 747 388 815 l 104 875 l 104 983 q 259 1068 156 1033 q 458 1103 363 1103 q 666 1053 565 1103 q 829 922 767 1003 q 892 757 892 842 q 861 665 892 710 q 776 586 831 621 l 793 578 q 894 549 860 549 q 1058 615 975 549 q 1197 789 1140 681 l 1197 856 l 1172 856 l 929 983 l 929 1092 l 1693 1092 l 1574 1188 q 1396 1296 1475 1267 q 1236 1325 1317 1325 q 1085 1307 1175 1325 q 1027 1297 1076 1306 q 921 1289 978 1289 q 669 1336 788 1289 q 426 1486 550 1383 l 194 1678 l 271 1763 l 394 1663 q 572 1555 492 1585 q 732 1525 651 1525 q 883 1543 793 1525 q 941 1553 892 1544 q 1047 1561 990 1561 q 1299 1514 1181 1561 q 1542 1364 1417 1467 l 1875 1092 l 1989 1092 l 2232 964 l 2232 853 l 1974 853 z "},"ओ":{"ha":2058,"x_min":81,"x_max":2232,"o":"m 1974 853 l 1974 -17 l 1865 -17 l 1626 108 l 1696 199 l 1696 853 l 1475 853 l 1475 -17 l 1367 -17 l 1128 108 l 1197 199 l 1197 413 q 1113 376 1156 386 q 1010 367 1069 367 q 956 369 992 367 q 888 275 942 321 q 760 201 835 229 q 613 172 686 172 q 465 183 546 172 l 81 386 l 150 476 l 238 432 q 474 383 335 383 q 561 397 518 383 q 632 433 604 411 q 660 478 660 456 q 626 540 660 510 q 511 610 593 569 l 511 718 q 571 771 549 738 q 593 843 593 804 q 581 883 593 871 q 542 894 569 894 q 440 855 492 894 q 347 747 388 815 l 104 875 l 104 983 q 259 1068 156 1033 q 458 1103 363 1103 q 666 1053 565 1103 q 829 922 767 1003 q 892 757 892 842 q 861 665 892 710 q 776 586 831 621 l 793 578 q 894 549 860 549 q 1058 615 975 549 q 1197 789 1140 681 l 1197 856 l 1172 856 l 929 983 l 929 1092 l 1692 1092 l 1465 1272 q 1287 1381 1365 1351 q 1128 1410 1208 1410 q 997 1392 1056 1410 l 754 1519 l 754 1628 q 939 1646 844 1646 q 1189 1599 1071 1646 q 1433 1449 1307 1551 l 1875 1092 l 1989 1092 l 2232 964 l 2232 853 l 1974 853 z "},"औ":{"ha":2058,"x_min":81,"x_max":2232,"o":"m 1974 853 l 1974 -17 l 1865 -17 l 1626 108 l 1696 199 l 1696 853 l 1475 853 l 1475 -17 l 1367 -17 l 1128 108 l 1197 199 l 1197 413 q 1113 376 1156 386 q 1010 367 1069 367 q 956 369 992 367 q 888 275 942 321 q 760 201 835 229 q 613 172 686 172 q 465 183 546 172 l 81 386 l 150 476 l 238 432 q 474 383 335 383 q 561 397 518 383 q 632 433 604 411 q 660 478 660 456 q 626 540 660 510 q 511 610 593 569 l 511 718 q 571 771 549 738 q 593 843 593 804 q 581 883 593 871 q 542 894 569 894 q 440 855 492 894 q 347 747 388 815 l 104 875 l 104 983 q 259 1068 156 1033 q 458 1103 363 1103 q 666 1053 565 1103 q 829 922 767 1003 q 892 757 892 842 q 861 665 892 710 q 776 586 831 621 l 793 578 q 894 549 860 549 q 1058 615 975 549 q 1197 789 1140 681 l 1197 856 l 1172 856 l 929 983 l 929 1092 l 1454 1092 l 1381 1150 q 1203 1258 1282 1229 q 1043 1288 1124 1288 q 913 1269 971 1288 l 669 1397 l 669 1506 q 854 1524 760 1524 q 1106 1476 988 1524 q 1349 1326 1224 1429 l 1636 1092 l 1810 1092 l 1381 1433 q 1203 1542 1282 1513 q 1043 1571 1124 1571 q 913 1553 971 1571 l 669 1681 l 669 1789 q 854 1807 760 1807 q 1104 1760 986 1807 q 1349 1610 1222 1713 l 1999 1086 l 2232 964 l 2232 853 l 1974 853 z "},"ॳ":{"ha":1560,"x_min":81,"x_max":1733,"o":"m 1475 853 l 1475 -17 l 1367 -17 l 1128 108 l 1197 199 l 1197 413 q 1113 376 1156 386 q 1010 367 1069 367 q 956 369 992 367 q 888 275 942 321 q 760 201 835 229 q 613 172 686 172 q 465 183 546 172 l 81 386 l 150 476 l 238 432 q 474 383 335 383 q 561 397 518 383 q 632 433 604 411 q 660 478 660 456 q 626 540 660 510 q 511 610 593 569 l 511 718 q 571 771 549 738 q 593 843 593 804 q 581 883 593 871 q 542 894 569 894 q 440 855 492 894 q 347 747 388 815 l 104 875 l 104 983 q 259 1068 156 1033 q 458 1103 363 1103 q 666 1053 565 1103 q 829 922 767 1003 q 892 757 892 842 q 861 665 892 710 q 776 586 831 621 l 793 578 q 894 549 860 549 q 1058 615 975 549 q 1197 789 1140 681 l 1197 856 l 1172 856 l 929 983 l 929 1092 l 1490 1092 l 1733 964 l 1733 853 l 1475 853 m 1475 1247 l 1475 1858 l 1306 1924 l 1197 1924 l 1197 1313 l 1367 1247 l 1475 1247 z "},"ॴ":{"ha":2058,"x_min":81,"x_max":2232,"o":"m 1974 853 l 1974 -17 l 1865 -17 l 1626 108 l 1696 199 l 1696 853 l 1475 853 l 1475 -17 l 1367 -17 l 1128 108 l 1197 199 l 1197 413 q 1113 376 1156 386 q 1010 367 1069 367 q 956 369 992 367 q 888 275 942 321 q 760 201 835 229 q 613 172 686 172 q 465 183 546 172 l 81 386 l 150 476 l 238 432 q 474 383 335 383 q 561 397 518 383 q 632 433 604 411 q 660 478 660 456 q 626 540 660 510 q 511 610 593 569 l 511 718 q 571 771 549 738 q 593 843 593 804 q 581 883 593 871 q 542 894 569 894 q 440 855 492 894 q 347 747 388 815 l 104 875 l 104 983 q 259 1068 156 1033 q 458 1103 363 1103 q 666 1053 565 1103 q 829 922 767 1003 q 892 757 892 842 q 861 665 892 710 q 776 586 831 621 l 793 578 q 894 549 860 549 q 1058 615 975 549 q 1197 789 1140 681 l 1197 856 l 1172 856 l 929 983 l 929 1092 l 1696 1092 l 1696 1646 l 1804 1646 l 1974 1581 l 1974 1092 l 1989 1092 l 2232 964 l 2232 853 l 1974 853 z "},"ॵ":{"ha":2058,"x_min":82,"x_max":2233,"o":"m 1975 851 l 1975 -18 l 1867 -18 l 1628 107 l 1697 197 l 1697 851 l 1476 851 l 1476 -18 l 1368 -18 l 1129 107 l 1199 197 l 1199 411 q 1114 375 1157 385 q 1011 365 1071 365 q 957 368 993 365 q 890 274 943 319 q 762 199 836 228 q 614 171 688 171 q 467 182 547 171 l 82 385 l 151 475 l 239 431 q 475 382 336 382 q 563 396 519 382 q 633 432 606 410 q 661 476 661 454 q 628 538 661 508 q 513 608 594 568 l 513 717 q 572 769 550 736 q 594 842 594 803 q 583 881 594 869 q 543 893 571 893 q 441 853 493 893 q 349 746 389 814 l 106 874 l 106 982 q 260 1067 157 1032 q 460 1101 364 1101 q 667 1051 567 1101 q 831 921 768 1001 q 893 756 893 840 q 863 664 893 708 q 778 585 832 619 l 794 576 q 896 547 861 547 q 1059 613 976 547 q 1199 788 1142 679 l 1199 854 l 1174 854 l 931 982 l 931 1090 l 1694 1090 l 1575 1186 q 1397 1294 1476 1265 q 1238 1324 1318 1324 q 1086 1306 1176 1324 q 1028 1296 1078 1304 q 922 1288 979 1288 q 670 1335 789 1288 q 428 1485 551 1382 l 196 1676 l 272 1761 l 396 1661 q 573 1553 493 1583 q 733 1524 653 1524 q 885 1542 794 1524 q 942 1551 893 1543 q 1049 1560 992 1560 q 1300 1513 1182 1560 q 1543 1363 1418 1465 l 1831 1128 q 1846 1208 1846 1165 q 1819 1276 1846 1249 q 1738 1342 1792 1304 q 1648 1416 1678 1383 q 1618 1497 1618 1449 q 1793 1708 1618 1624 l 2025 1581 l 2025 1472 q 1943 1435 1968 1457 q 1918 1378 1918 1413 q 1943 1323 1918 1346 q 2021 1268 1968 1300 q 2114 1201 2082 1233 q 2146 1121 2146 1169 q 2103 1032 2146 1075 l 2232 964 l 2233 851 l 1975 851 z "},"ॶ":{"ha":1560,"x_min":81,"x_max":1733,"o":"m 1475 853 l 1475 -17 l 1367 -17 l 1128 108 l 1197 199 l 1197 413 q 1113 376 1156 386 q 1010 367 1069 367 q 956 369 992 367 q 888 275 942 321 q 760 201 835 229 q 613 172 686 172 q 465 183 546 172 l 81 386 l 150 476 l 238 432 q 474 383 335 383 q 561 397 518 383 q 632 433 604 411 q 660 478 660 456 q 626 540 660 510 q 511 610 593 569 l 511 718 q 571 771 549 738 q 593 843 593 804 q 581 883 593 871 q 542 894 569 894 q 440 855 492 894 q 347 747 388 815 l 104 875 l 104 983 q 259 1068 156 1033 q 458 1103 363 1103 q 666 1053 565 1103 q 829 922 767 1003 q 892 757 892 842 q 861 665 892 710 q 776 586 831 621 l 793 578 q 894 549 860 549 q 1058 615 975 549 q 1197 789 1140 681 l 1197 856 l 1172 856 l 929 983 l 929 1092 l 1490 1092 l 1733 964 l 1733 853 l 1475 853 m 992 -165 q 1112 -135 1051 -165 q 1221 -53 1172 -104 l 1464 -181 l 1464 -289 q 1285 -346 1401 -325 q 1063 -367 1168 -367 q 878 -340 956 -367 l 688 -187 l 729 -93 q 880 -148 818 -131 q 992 -165 942 -165 z "},"ॷ":{"ha":1560,"x_min":81,"x_max":1733,"o":"m 1475 853 l 1475 -17 l 1367 -17 l 1128 108 l 1197 199 l 1197 413 q 1113 376 1156 386 q 1010 367 1069 367 q 956 369 992 367 q 888 275 942 321 q 760 201 835 229 q 613 172 686 172 q 465 183 546 172 l 81 386 l 150 476 l 238 432 q 474 383 335 383 q 561 397 518 383 q 632 433 604 411 q 660 478 660 456 q 626 540 660 510 q 511 610 593 569 l 511 718 q 571 771 549 738 q 593 843 593 804 q 581 883 593 871 q 542 894 569 894 q 440 855 492 894 q 347 747 388 815 l 104 875 l 104 983 q 259 1068 156 1033 q 458 1103 363 1103 q 666 1053 565 1103 q 829 922 767 1003 q 892 757 892 842 q 861 665 892 710 q 776 586 831 621 l 793 578 q 894 549 860 549 q 1058 615 975 549 q 1197 789 1140 681 l 1197 856 l 1172 856 l 929 983 l 929 1092 l 1490 1092 l 1733 964 l 1733 853 l 1475 853 m 992 -168 q 1112 -137 1051 -168 q 1221 -56 1172 -107 l 1464 -183 l 1464 -292 q 1285 -349 1401 -328 q 1063 -369 1168 -369 q 878 -343 956 -369 l 688 -190 l 729 -96 q 880 -151 818 -133 q 992 -168 942 -168 m 992 -515 q 1112 -485 1051 -515 q 1221 -403 1172 -454 l 1464 -531 l 1464 -639 q 1285 -696 1401 -675 q 1063 -717 1168 -717 q 878 -690 956 -717 l 688 -537 l 729 -443 q 880 -498 818 -481 q 992 -515 942 -515 z "},"ा":{"ha":499,"x_min":-132,"x_max":672,"o":"m 414 856 l 414 -14 l 306 -14 l 67 111 l 136 201 l 136 856 l 111 856 l -132 983 l -132 1092 l 429 1092 l 672 964 l 672 856 l 414 856 z "},"ि":{"ha":499,"x_min":-132,"x_max":771,"o":"m 160 1507 q 494 1404 347 1507 q 771 1079 642 1301 l 679 1003 q 524 1199 614 1128 q 350 1271 435 1271 q 294 1253 313 1271 q 275 1203 275 1235 q 314 1093 275 1156 l 415 1093 l 415 982 l 424 974 l 414 974 l 414 -14 l 306 -14 l 67 111 l 136 201 l 136 856 l 25 856 l -132 983 l -132 1092 l 132 1092 q 19 1231 57 1161 q -19 1360 -19 1300 q 28 1465 -19 1425 q 158 1506 75 1506 l 160 1507 z "},"ी":{"ha":499,"x_min":-517,"x_max":672,"o":"m 414 856 l 414 -14 l 306 -14 l 67 111 l 136 201 l 136 856 l 111 856 l -114 974 l -207 974 q -438 1171 -360 1068 q -517 1360 -517 1274 q -469 1465 -517 1425 q -339 1506 -422 1506 q -8 1406 -154 1506 q 264 1092 138 1306 l 429 1092 l 672 964 l 672 856 l 414 856 m 125 1092 q -8 1223 64 1176 q -149 1269 -81 1269 q -205 1251 -186 1269 q -224 1201 -224 1233 q -199 1117 -224 1164 q -132 1025 -175 1071 l -132 1092 l 125 1092 z "},"ॉ":{"ha":499,"x_min":-235,"x_max":811,"o":"m 414 856 l 414 -14 l 306 -14 l 67 111 l 136 201 l 136 856 l 111 856 l -132 983 l -132 1092 l 429 1092 l 672 964 l 672 856 l 414 856 m 75 1633 q 65 1556 65 1600 q 106 1484 65 1506 q 228 1463 146 1463 q 397 1508 326 1463 q 511 1631 467 1554 l 561 1703 l 811 1565 q 724 1426 790 1488 q 554 1331 657 1365 q 325 1296 451 1296 q 60 1342 190 1296 q -153 1460 -71 1388 q -235 1608 -235 1532 q -226 1671 -235 1640 l -157 1761 l 75 1633 z "},"ॊ":{"ha":499,"x_min":-1365,"x_max":672,"o":"m 414 856 l 414 -14 l 306 -14 l 67 111 l 136 201 l 136 856 l 111 856 l -132 983 l -132 1092 l 133 1092 l 14 1188 q -164 1296 -85 1267 q -324 1325 -243 1325 q -475 1307 -385 1325 q -533 1297 -483 1306 q -639 1289 -582 1289 q -891 1336 -772 1289 q -1133 1486 -1010 1383 l -1365 1678 l -1289 1763 l -1165 1663 q -988 1555 -1068 1585 q -828 1525 -908 1525 q -676 1543 -767 1525 q -619 1553 -668 1544 q -512 1561 -569 1561 q -261 1514 -379 1561 q -18 1364 -143 1467 l 315 1092 l 429 1092 l 672 964 l 672 856 l 414 856 z "},"ो":{"ha":499,"x_min":-806,"x_max":672,"o":"m 414 856 l 414 -14 l 306 -14 l 67 111 l 136 201 l 136 856 l 111 856 l -132 983 l -132 1092 l 132 1092 l -94 1272 q -273 1381 -194 1351 q -432 1410 -351 1410 q -562 1392 -504 1410 l -806 1519 l -806 1628 q -621 1646 -715 1646 q -371 1599 -489 1646 q -126 1449 -253 1551 l 315 1092 l 429 1092 l 672 964 l 672 856 l 414 856 z "},"ौ":{"ha":499,"x_min":-890,"x_max":672,"o":"m 414 856 l 414 -14 l 306 -14 l 67 111 l 136 201 l 136 856 l 111 856 l -132 983 l -132 1092 l -106 1092 l -179 1150 q -357 1258 -278 1229 q -517 1288 -436 1288 q -647 1269 -589 1288 l -890 1397 l -890 1506 q -706 1524 -800 1524 q -454 1476 -572 1524 q -211 1326 -336 1429 l 76 1092 l 250 1092 l -179 1433 q -357 1542 -278 1513 q -517 1571 -436 1571 q -647 1553 -589 1571 l -890 1681 l -890 1789 q -706 1807 -800 1807 q -456 1760 -574 1807 q -211 1610 -337 1713 l 439 1086 l 672 964 l 672 856 l 414 856 z "},"ॎ":{"ha":499,"x_min":67,"x_max":672,"o":"m 414 856 l 414 -14 l 306 -14 l 67 111 l 136 201 l 136 1092 l 429 1092 l 672 964 l 672 856 l 414 856 z "},"ऻ":{"ha":499,"x_min":-132,"x_max":672,"o":"m 414 856 l 414 -14 l 306 -14 l 67 111 l 136 201 l 136 856 l 111 856 l -132 983 l -132 1092 l 136 1092 l 136 1646 l 244 1646 l 414 1581 l 414 1092 l 429 1092 l 672 964 l 672 856 l 414 856 z "},"ॏ":{"ha":499,"x_min":-1364,"x_max":674,"o":"m 415 854 l 415 -15 l 307 -15 l 68 110 l 138 200 l 138 854 l 113 854 l -131 982 l -131 1090 l 135 1090 l 15 1186 q -162 1294 -83 1265 q -322 1324 -242 1324 q -474 1306 -383 1324 q -531 1296 -482 1304 q -637 1288 -581 1288 q -890 1335 -771 1288 q -1132 1485 -1008 1382 l -1364 1676 l -1287 1761 l -1164 1661 q -987 1553 -1067 1583 q -826 1524 -907 1524 q -675 1542 -765 1524 q -617 1551 -667 1543 q -511 1560 -568 1560 q -260 1513 -378 1560 q -17 1363 -142 1465 l 271 1128 q 286 1208 286 1165 q 259 1276 286 1249 q 178 1342 232 1304 q 88 1416 118 1383 q 58 1497 58 1449 q 233 1708 58 1624 l 465 1581 l 465 1472 q 383 1435 408 1457 q 358 1378 358 1413 q 383 1323 358 1346 q 461 1268 408 1300 q 554 1201 522 1233 q 586 1121 586 1169 q 543 1032 586 1075 l 672 964 l 674 854 l 415 854 z "},"क":{"ha":1496,"x_min":-229,"x_max":1725,"o":"m 885 746 q 958 753 922 753 q 1163 706 1057 753 q 1341 578 1269 658 q 1413 404 1413 497 q 1350 240 1413 310 q 1182 143 1288 169 l 950 271 l 950 379 q 1026 371 994 371 q 1108 408 1079 371 q 1140 513 1138 444 q 1083 597 1140 597 q 1003 562 1038 596 q 925 465 968 528 q 889 415 899 428 l 885 411 l 885 -14 l 776 -14 l 538 111 l 578 164 q 535 161 550 161 q 330 208 436 161 q 152 336 224 256 q 81 510 81 417 q 143 674 81 604 q 311 771 206 744 l 543 643 l 543 535 q 467 543 500 543 q 385 506 414 543 q 353 401 356 469 q 410 317 353 317 q 496 356 458 318 q 579 463 533 394 l 604 499 l 608 503 l 608 856 l 15 856 l -229 983 l -229 1092 l 1481 1092 l 1725 964 l 1725 856 l 885 854 l 885 746 z "},"ख":{"ha":1856,"x_min":-201,"x_max":2029,"o":"m 2029 856 l 1771 856 l 1771 -14 l 1663 -14 l 1424 111 l 1475 178 q 1382 169 1433 169 q 1165 216 1278 169 q 976 341 1051 263 q 900 511 900 419 q 963 676 900 606 q 1131 772 1025 746 l 1363 644 l 1363 536 q 1286 544 1319 544 q 1203 507 1233 544 q 1172 403 1172 469 q 1195 341 1172 364 q 1257 318 1218 318 q 1349 354 1308 318 q 1453 472 1390 390 l 1493 524 l 1493 857 l 640 857 q 716 683 689 779 q 743 488 743 586 q 699 322 743 397 q 583 207 654 246 l 904 36 l 835 -54 l 322 218 q 160 337 229 264 q 90 472 90 410 q 140 557 90 528 q 275 586 189 586 q 456 561 356 586 q 460 628 460 593 q 417 856 460 740 l 44 856 l -201 983 l -201 1092 l 1786 1092 l 2029 964 l 2029 856 z "},"ग":{"ha":1249,"x_min":-229,"x_max":1422,"o":"m 1164 856 l 1164 -14 l 1056 -14 l 817 111 l 886 201 l 886 856 l 665 856 l 665 431 q 627 311 665 371 q 533 214 589 251 q 429 176 478 176 q 288 229 368 176 q 149 356 207 282 q 90 485 90 429 q 260 586 90 586 q 388 571 314 586 l 388 856 l 17 856 l -229 983 l -229 1092 l 1179 1092 l 1422 964 l 1422 856 l 1164 856 z "},"घ":{"ha":1343,"x_min":-254,"x_max":1517,"o":"m 1257 856 l 1257 -14 l 1149 -14 l 913 110 q 736 83 831 83 q 480 131 603 83 q 282 256 357 179 q 207 413 207 332 q 275 571 207 499 q 130 668 186 610 q 74 801 74 726 q 82 856 74 831 l -8 856 l -254 983 l -254 1092 l 1274 1092 l 1517 964 l 1515 856 l 1257 856 m 599 250 q 802 303 715 250 q 979 460 889 356 l 979 856 l 590 856 l 590 800 q 514 810 550 810 q 410 788 449 810 q 372 731 372 767 q 406 656 372 689 q 488 676 443 669 l 733 549 l 733 440 q 664 447 700 447 q 576 426 613 447 q 523 372 540 404 q 506 313 506 340 q 599 250 506 250 z "},"ङ":{"ha":1332,"x_min":-243,"x_max":1575,"o":"m 1575 854 l 956 854 l 956 558 l 558 558 q 514 540 533 558 q 494 499 494 522 q 500 469 494 482 q 638 490 579 490 q 852 441 739 490 q 1042 319 965 392 q 1119 183 1119 247 q 1051 89 1119 135 q 869 15 982 43 q 632 -14 756 -14 q 552 -10 597 -14 q 485 -3 507 -7 l 4 386 l 78 474 l 285 307 q 433 222 358 247 q 568 197 507 197 q 742 217 676 197 q 807 269 807 238 q 791 297 807 285 q 756 310 775 310 q 693 264 721 310 q 449 348 564 292 q 265 471 333 404 q 196 596 196 538 q 234 690 196 643 q 332 766 272 736 q 453 796 392 796 l 678 796 l 678 856 l 3 856 l -243 983 l -243 1092 l 1329 1092 l 1575 963 l 1575 854 m 1349 663 l 1349 443 l 1240 443 l 1071 508 l 1071 728 l 1179 728 l 1349 663 z "},"च":{"ha":1388,"x_min":-229,"x_max":1561,"o":"m 1561 854 l 1303 854 l 1303 -15 l 1194 -15 l 956 110 l 1007 176 q 914 168 965 168 q 697 215 810 168 q 508 340 583 261 q 432 510 432 418 q 433 535 432 526 l 265 535 l 21 663 l 21 771 l 663 771 l 894 643 l 894 535 q 818 543 850 543 q 735 506 765 543 q 704 401 704 468 q 727 340 704 363 q 789 317 750 317 q 881 353 840 317 q 985 471 922 389 l 1025 522 l 1025 856 l 15 856 l -229 983 l -229 1092 l 1318 1092 l 1561 963 l 1561 854 z "},"छ":{"ha":1578,"x_min":-254,"x_max":1710,"o":"m 1301 733 q 1478 565 1408 672 q 1547 343 1547 457 q 1376 76 1547 167 q 914 -14 1206 -14 q 565 31 722 -14 q 315 156 407 75 q 222 342 222 236 q 265 469 222 411 q 147 565 192 507 q 103 697 103 624 q 171 856 103 806 l -8 856 l -254 983 l -254 1092 l 1464 1092 l 1710 964 l 1710 856 l 1301 856 l 1301 733 m 444 853 l 621 761 l 621 653 q 544 663 581 663 q 444 645 486 663 q 403 597 403 628 q 419 567 403 579 q 504 578 461 578 l 750 450 l 750 342 q 657 349 707 349 q 557 321 592 349 q 522 256 522 293 q 567 181 522 210 q 699 151 613 151 q 1092 228 949 151 q 908 360 981 276 q 835 543 835 444 q 888 690 835 626 q 1024 778 940 754 l 1024 853 l 444 853 m 1194 614 q 1151 570 1169 614 q 1133 460 1133 526 q 1194 347 1133 347 q 1219 351 1207 347 q 1247 472 1247 404 q 1234 568 1247 524 q 1196 613 1221 613 l 1194 614 z "},"ज":{"ha":1263,"x_min":-229,"x_max":1436,"o":"m 1178 856 l 1178 -14 l 1069 -14 l 831 111 l 900 201 l 900 350 l 701 350 l 738 321 q 747 242 747 283 q 706 116 747 175 q 591 22 664 57 q 428 -14 518 -14 q 243 13 319 -14 l 53 165 l 94 260 q 343 188 261 188 q 419 218 390 188 q 447 290 447 249 q 422 398 447 347 q 350 488 397 449 l 340 496 l 410 586 l 900 586 l 900 856 l 17 856 l -229 983 l -229 1092 l 1193 1092 l 1436 964 l 1436 856 l 1178 856 z "},"झ":{"ha":1608,"x_min":-215,"x_max":1782,"o":"m 1524 857 l 1524 -12 l 1415 -12 l 1176 113 l 1246 203 l 1246 329 q 1119 283 1186 292 q 1161 185 1161 231 q 1097 94 1161 138 q 925 21 1032 50 q 697 -12 818 -8 l 808 -71 q 952 -119 871 -104 q 1115 -133 1033 -133 q 1204 -125 1163 -133 l 1422 -239 l 1422 -347 q 1293 -365 1354 -365 q 1131 -343 1210 -365 q 985 -289 1053 -321 q 796 -192 918 -257 l 279 82 q 102 218 168 139 q 36 383 36 297 q 60 464 36 432 q 132 496 85 496 q 267 427 200 496 q 385 244 335 358 q 596 197 490 197 q 779 217 710 197 q 849 269 849 238 q 833 297 849 285 q 797 310 817 310 q 735 264 763 310 q 452 345 564 290 q 289 466 340 400 q 238 596 238 532 q 276 690 238 643 q 374 766 314 736 q 494 796 433 796 l 719 796 l 719 856 l 31 856 l -215 983 l -215 1092 l 1539 1092 l 1782 964 l 1782 857 l 1524 857 m 944 458 q 1108 531 1022 458 q 1244 711 1194 604 l 1244 856 l 996 856 l 996 560 l 599 560 q 554 542 574 560 q 535 500 535 524 q 540 471 535 483 q 678 492 619 492 q 821 469 743 492 q 946 460 861 460 l 944 458 z "},"ञ":{"ha":1276,"x_min":-229,"x_max":1451,"o":"m 1193 856 l 1193 -14 l 1085 -14 l 846 111 l 915 201 l 915 336 q 824 331 886 333 q 690 196 785 247 q 468 144 594 144 q 283 171 360 144 l 93 324 l 135 418 q 388 346 301 346 q 509 388 467 346 q 551 494 551 429 q 534 563 551 539 q 488 588 517 588 q 422 550 453 588 q 367 446 390 513 l 135 574 l 135 682 q 260 746 183 718 q 397 774 336 774 q 551 746 471 774 q 699 669 631 718 q 804 557 767 619 q 914 664 868 599 l 914 856 l 15 856 l -229 983 l -229 1092 l 1207 1092 l 1450 964 l 1451 856 l 1193 856 z "},"ट":{"ha":1140,"x_min":-229,"x_max":1369,"o":"m 593 504 q 486 476 533 504 q 413 401 439 449 q 386 296 386 353 q 426 183 386 221 q 531 144 465 144 q 693 194 618 144 q 851 351 768 243 l 1083 224 l 1083 115 q 900 22 1011 57 q 682 -14 789 -14 q 403 51 538 -14 q 184 217 268 115 q 100 425 100 319 q 151 581 100 508 q 289 697 203 653 q 471 740 375 740 l 488 740 l 488 856 l 3 856 l -229 983 l -229 1092 l 1138 1092 l 1369 964 l 1369 856 l 765 856 l 765 504 l 593 504 z "},"ठ":{"ha":1229,"x_min":-229,"x_max":1458,"o":"m 765 731 q 949 629 867 693 q 1081 485 1032 565 q 1129 325 1129 406 q 1069 151 1129 228 q 906 30 1010 74 q 671 -14 801 -14 q 400 51 533 -14 q 183 219 267 115 q 100 429 100 322 q 154 587 100 515 q 294 699 208 658 q 471 740 381 740 l 488 740 l 488 856 l 3 856 l -229 983 l -229 1092 l 1226 1092 l 1458 964 l 1458 856 l 765 856 l 765 731 m 829 432 q 765 554 829 517 l 765 504 l 593 504 q 444 447 503 504 q 386 279 386 389 q 426 183 386 221 q 532 144 465 144 q 752 222 675 144 q 829 433 829 299 l 829 432 z "},"ड":{"ha":1151,"x_min":-243,"x_max":1328,"o":"m 558 558 q 514 540 533 558 q 494 499 494 522 q 500 469 494 482 q 638 490 579 490 q 852 441 739 490 q 1042 319 965 392 q 1119 183 1119 247 q 1051 89 1119 135 q 869 15 982 43 q 632 -14 756 -14 q 552 -10 597 -14 q 485 -3 507 -7 l 4 386 l 78 474 l 285 307 q 433 222 358 247 q 568 197 507 197 q 742 217 676 197 q 807 269 807 238 q 791 297 807 285 q 756 310 775 310 q 693 264 721 310 q 449 348 564 292 q 265 471 333 404 q 196 596 196 538 q 234 690 196 643 q 332 766 272 736 q 453 796 392 796 l 678 796 l 678 856 l 3 856 l -243 983 l -243 1092 l 1082 1092 l 1328 964 l 1328 856 l 956 856 l 956 560 l 558 560 l 558 558 z "},"ढ":{"ha":1099,"x_min":-229,"x_max":1328,"o":"m 544 504 q 401 469 450 504 q 351 369 351 435 q 397 252 351 311 q 515 152 442 193 q 669 101 589 111 q 501 219 569 149 q 432 353 432 289 q 472 433 432 406 q 590 461 513 461 q 810 407 690 461 q 1012 276 929 353 q 1094 133 1094 199 q 1017 25 1094 64 q 800 -14 940 -14 q 463 55 622 -14 q 208 237 304 124 q 113 478 113 350 q 151 609 113 549 q 256 705 190 669 q 397 740 321 740 l 594 740 l 594 856 l 3 856 l -229 983 l -229 1092 l 1096 1092 l 1328 964 l 1328 856 l 872 856 l 872 504 l 544 504 m 776 261 q 745 244 758 261 q 732 203 732 226 q 788 161 732 161 q 814 164 797 161 q 817 188 817 178 q 806 240 817 219 q 776 260 794 260 l 776 261 z "},"ण":{"ha":1428,"x_min":-229,"x_max":1601,"o":"m 1343 856 l 1343 -14 l 1235 -14 l 996 111 l 1065 201 l 1065 856 l 868 856 l 868 528 q 825 408 867 468 q 714 310 783 349 q 567 272 644 272 q 362 315 468 272 q 184 433 256 358 q 113 593 113 507 l 113 856 l 17 856 l -229 983 l -229 1092 l 1358 1092 l 1601 964 l 1601 856 l 1343 856 m 390 856 l 390 542 q 469 439 390 439 q 521 456 493 439 q 568 507 549 474 q 590 585 588 540 l 590 856 l 390 856 z "},"त":{"ha":1042,"x_min":-229,"x_max":1215,"o":"m 957 856 l 957 -14 l 849 -14 l 610 111 l 679 201 l 679 350 l 544 350 q 411 231 411 350 q 431 158 411 186 q 497 104 450 129 l 571 64 l 501 -26 l 121 174 q 111 290 111 222 q 194 512 111 438 q 450 586 278 586 l 679 586 l 679 856 l 14 856 l -229 983 l -229 1092 l 972 1092 l 1215 964 l 1215 856 l 957 856 z "},"थ":{"ha":1274,"x_min":36,"x_max":1447,"o":"m 1188 854 l 1188 -15 l 1079 -15 l 840 110 l 910 200 l 910 235 q 604 174 781 174 q 373 219 493 174 q 160 331 253 264 q 36 458 67 397 l 106 549 q 126 547 115 547 q 338 606 257 547 q 125 725 213 644 q 38 901 38 806 q 73 1006 38 956 q 168 1087 108 1056 q 296 1118 228 1118 q 489 1062 389 1118 q 656 910 589 1006 q 722 700 722 814 q 625 493 722 579 q 365 382 528 407 q 508 340 410 340 q 649 364 588 340 q 770 441 710 388 q 911 592 831 494 l 911 856 l 886 856 l 643 983 l 643 1092 l 1204 1092 l 1447 964 l 1446 854 l 1188 854 m 381 946 q 348 915 360 946 q 336 836 336 885 q 393 749 336 749 q 421 753 408 749 l 421 767 q 410 898 421 851 q 381 944 400 944 l 381 946 z "},"द":{"ha":1085,"x_min":-229,"x_max":1314,"o":"m 546 506 q 400 464 447 506 q 353 350 353 422 q 397 238 353 285 q 511 192 440 192 q 589 206 549 192 q 581 288 581 247 q 605 388 581 350 q 683 426 629 426 q 851 384 760 426 q 1005 276 942 342 q 1068 142 1068 210 q 1028 59 1068 97 q 918 1 989 21 l 1163 -128 l 1093 -218 l 692 -6 q 402 90 535 15 q 191 272 269 164 q 113 497 113 381 q 153 615 113 558 q 260 706 194 671 q 397 740 326 740 l 539 740 l 539 856 l 3 856 l -229 983 l -229 1092 l 1082 1092 l 1314 964 l 1314 856 l 817 856 l 817 504 l 544 504 l 546 506 z "},"ध":{"ha":1496,"x_min":100,"x_max":1669,"o":"m 1411 856 l 1411 -14 l 1303 -14 l 1064 111 l 1133 201 l 1133 217 q 1038 183 1086 193 q 928 174 990 174 q 615 226 758 174 q 388 363 471 278 q 304 542 304 447 q 361 681 304 621 q 100 1007 100 829 q 178 1168 100 1108 q 385 1228 256 1228 q 595 1190 490 1228 q 767 1093 700 1153 q 833 972 833 1033 q 800 897 833 931 q 708 844 767 864 q 575 825 649 825 q 556 826 561 825 l 468 899 l 468 1007 q 503 999 490 999 q 525 1006 517 999 q 533 1025 533 1014 q 521 1047 533 1039 q 488 1054 508 1054 q 423 1025 446 1054 q 400 943 400 996 q 425 840 400 889 q 496 756 450 792 q 586 767 540 767 l 832 639 l 832 531 q 753 538 796 538 q 641 512 678 538 q 604 442 604 486 q 651 365 604 390 q 785 340 697 340 q 921 361 864 340 q 1024 422 978 382 q 1133 536 1069 463 l 1133 856 l 1108 856 l 865 983 l 865 1092 l 1426 1092 l 1669 964 l 1669 856 l 1411 856 z "},"न":{"ha":1118,"x_min":-229,"x_max":1292,"o":"m 1033 856 l 1033 -14 l 925 -14 l 686 111 l 756 201 l 756 350 l 579 350 q 507 228 554 279 q 415 176 460 176 q 280 230 357 176 q 147 357 203 283 q 90 485 90 431 q 162 563 90 540 q 401 586 233 586 l 756 586 l 756 856 l 17 856 l -229 983 l -229 1092 l 1049 1092 l 1292 964 l 1292 856 l 1033 856 z "},"ऩ":{"ha":1118,"x_min":-229,"x_max":1292,"o":"m 1033 856 l 1033 -14 l 925 -14 l 686 111 l 756 201 l 756 350 l 579 350 q 507 228 554 279 q 415 176 460 176 q 280 230 357 176 q 147 357 203 283 q 90 485 90 431 q 162 563 90 540 q 401 586 233 586 l 756 586 l 756 856 l 17 856 l -229 983 l -229 1092 l 1049 1092 l 1292 964 l 1292 856 l 1033 856 m 549 -307 l 440 -307 l 271 -242 l 271 -22 l 379 -22 l 549 -87 l 549 -307 z "},"प":{"ha":1011,"x_min":-229,"x_max":1186,"o":"m 1186 856 l 928 856 l 928 -14 l 819 -14 l 581 111 l 650 201 l 650 281 q 567 272 613 272 q 362 319 468 272 q 184 447 256 367 q 113 621 113 528 l 113 856 l 17 856 l -229 983 l -229 1092 l 942 1092 l 1186 964 l 1186 856 m 392 857 l 392 571 q 471 440 392 440 q 541 474 510 440 q 621 583 572 508 l 650 628 l 650 857 l 392 857 z "},"फ":{"ha":1538,"x_min":-229,"x_max":1767,"o":"m 928 747 q 1003 754 965 754 q 1208 707 1101 754 q 1385 579 1314 660 q 1457 406 1457 499 q 1394 241 1457 311 q 1226 144 1332 171 l 994 272 l 994 381 q 1071 372 1039 372 q 1135 402 1113 372 q 1157 486 1157 432 q 1100 571 1157 571 q 1029 540 1061 571 q 946 436 997 508 l 928 411 l 928 -14 l 819 -14 l 581 111 l 650 201 l 650 281 q 567 272 613 272 q 362 319 468 272 q 184 447 256 367 q 113 621 113 528 l 113 856 l 17 856 l -229 983 l -229 1092 l 1535 1092 l 1767 964 l 1767 856 l 928 856 l 928 747 m 471 440 q 541 474 510 440 q 621 583 572 508 l 650 628 l 650 856 l 392 856 l 392 569 q 471 439 392 439 l 471 440 z "},"ब":{"ha":1040,"x_min":-229,"x_max":1214,"o":"m 1214 854 l 956 854 l 956 -15 l 847 -15 l 608 110 l 660 176 q 567 168 618 168 q 349 215 463 168 q 160 340 236 261 q 85 510 85 418 q 147 674 85 604 q 315 771 210 744 l 547 643 l 547 535 q 508 540 533 538 l 621 450 l 644 481 l 678 522 l 678 856 l 15 856 l -229 983 l -229 1092 l 971 1092 l 1214 963 l 1214 854 m 356 400 q 378 338 356 361 q 440 315 401 315 q 544 363 493 315 l 381 496 q 357 400 357 460 l 356 400 z "},"भ":{"ha":1221,"x_min":-26,"x_max":1394,"o":"m 1136 857 l 1136 -12 l 1028 -12 l 789 113 l 858 203 l 858 351 l 611 351 q 539 229 586 281 q 447 178 492 178 q 299 231 383 178 q 155 357 215 283 q 94 486 94 431 q 156 560 94 536 q 358 586 217 583 l 358 643 q 176 702 265 657 q 31 815 88 747 q -26 958 -26 882 q 38 1074 -26 1028 q 204 1119 103 1119 q 401 1071 300 1119 q 569 938 503 1022 q 636 757 636 854 l 636 586 l 858 586 l 858 856 l 833 856 l 590 983 l 590 1092 l 1151 1092 l 1394 964 l 1394 857 l 1136 857 m 331 807 q 358 811 346 807 l 358 825 q 351 924 358 900 q 325 947 343 947 q 288 926 303 947 q 274 872 274 906 q 288 823 274 840 q 331 806 303 806 l 331 807 z "},"म":{"ha":1258,"x_min":-229,"x_max":1432,"o":"m 1174 856 l 1174 -14 l 1065 -14 l 826 111 l 896 201 l 896 350 l 607 350 q 535 228 582 279 q 443 176 488 176 q 295 229 379 176 q 151 356 211 282 q 90 485 90 429 q 151 558 90 535 q 354 585 213 582 l 354 856 l 17 856 l -229 983 l -229 1092 l 1189 1092 l 1432 964 l 1432 856 l 1174 856 m 896 856 l 632 856 l 632 586 l 896 586 l 896 856 z "},"य":{"ha":1089,"x_min":-153,"x_max":1263,"o":"m 1004 856 l 1004 -14 l 896 -14 l 657 111 l 726 201 l 726 247 q 532 213 644 213 q 334 259 439 213 q 145 373 229 306 q 33 496 61 440 l 103 586 q 180 641 150 597 q 210 754 210 685 q 200 856 210 821 l 93 856 l -153 983 l -153 1092 l 1019 1092 l 1263 964 l 1263 856 l 1004 856 m 435 379 q 594 434 513 379 q 726 567 676 489 l 726 857 l 451 857 q 510 661 510 763 q 464 532 510 589 q 338 443 418 475 q 435 379 361 379 z "},"र":{"ha":801,"x_min":-201,"x_max":1031,"o":"m 640 857 q 716 683 689 779 q 743 488 743 586 q 699 322 743 397 q 583 207 654 246 l 904 36 l 835 -54 l 322 218 q 160 337 229 264 q 90 472 90 410 q 140 557 90 528 q 275 586 189 586 q 456 561 356 586 q 460 628 460 593 q 417 856 460 740 l 44 856 l -201 983 l -201 1092 l 785 1092 l 1031 964 l 1031 857 l 640 857 z "},"ऱ":{"ha":801,"x_min":-201,"x_max":1031,"o":"m 640 857 q 716 683 689 779 q 743 488 743 586 q 699 322 743 397 q 583 207 654 246 l 904 36 l 835 -54 l 322 218 q 160 337 229 264 q 90 472 90 410 q 140 557 90 528 q 275 586 189 586 q 456 561 356 586 q 460 628 460 593 q 417 856 460 740 l 44 856 l -201 983 l -201 1092 l 785 1092 l 1031 964 l 1031 857 l 640 857 m 544 -307 l 436 -307 l 267 -242 l 267 -22 l 375 -22 l 544 -87 l 544 -307 z "},"ल":{"ha":1374,"x_min":-229,"x_max":1547,"o":"m 1286 854 l 1286 -15 l 1178 -15 l 939 110 l 1008 200 l 1008 319 q 831 242 938 283 l 599 369 l 599 478 l 636 490 q 612 551 629 533 q 563 569 594 569 q 470 526 507 569 q 433 414 433 482 q 465 307 433 350 q 567 228 496 264 l 708 153 l 657 51 l 143 325 q 133 446 133 388 q 169 592 133 522 q 279 708 204 663 q 465 753 354 753 q 659 706 563 753 q 828 579 756 660 q 1011 724 958 656 l 1011 856 l 14 856 l -229 983 l -229 1092 l 1304 1092 l 1547 964 l 1544 854 l 1286 854 z "},"ळ":{"ha":1496,"x_min":-229,"x_max":1725,"o":"m 1147 721 q 1338 588 1263 674 q 1414 401 1414 501 q 1352 242 1414 313 q 1183 144 1290 171 l 951 272 l 951 381 q 1022 372 996 372 q 1111 408 1081 372 q 1142 514 1142 444 q 1127 583 1142 561 q 1081 604 1113 604 q 1020 583 1049 604 q 961 522 992 561 q 864 389 931 483 l 839 354 q 752 240 789 282 q 663 172 715 199 q 539 144 611 144 q 332 193 439 144 q 153 324 225 242 q 82 504 82 407 q 144 664 82 593 q 313 761 206 735 l 544 633 l 544 525 q 474 533 500 533 q 385 497 415 533 q 354 392 354 461 q 369 323 354 344 q 415 301 383 301 q 491 338 457 301 q 586 467 525 374 l 618 515 q 742 678 690 624 q 869 751 794 732 l 869 856 l 15 856 l -229 983 l -229 1092 l 1481 1092 l 1725 964 l 1725 856 l 1147 857 l 1147 721 z "},"ऴ":{"ha":1496,"x_min":-229,"x_max":1725,"o":"m 1147 721 q 1338 588 1263 674 q 1414 401 1414 501 q 1352 242 1414 313 q 1183 144 1290 171 l 951 272 l 951 381 q 1022 372 996 372 q 1111 408 1081 372 q 1142 514 1142 444 q 1127 583 1142 561 q 1081 604 1113 604 q 1020 583 1049 604 q 961 522 992 561 q 864 389 931 483 l 839 354 q 752 240 789 282 q 663 172 715 199 q 539 144 611 144 q 332 193 439 144 q 153 324 225 242 q 82 504 82 407 q 144 664 82 593 q 313 761 206 735 l 544 633 l 544 525 q 474 533 500 533 q 385 497 415 533 q 354 392 354 461 q 369 323 354 344 q 415 301 383 301 q 491 338 457 301 q 586 467 525 374 l 618 515 q 742 678 690 624 q 869 751 794 732 l 869 856 l 15 856 l -229 983 l -229 1092 l 1481 1092 l 1725 964 l 1725 856 l 1147 857 l 1147 721 m 913 -253 l 804 -253 l 635 -187 l 635 32 l 743 32 l 913 -33 l 913 -253 z "},"व":{"ha":1040,"x_min":-229,"x_max":1214,"o":"m 1214 854 l 956 854 l 956 -15 l 847 -15 l 608 110 l 660 176 q 567 168 618 168 q 349 215 463 168 q 160 340 236 261 q 85 510 85 418 q 147 674 85 604 q 315 771 210 744 l 547 643 l 547 535 q 471 543 503 543 q 388 506 418 543 q 357 401 357 468 q 380 340 357 363 q 442 317 403 317 q 534 353 493 317 q 638 471 575 389 l 678 522 l 678 856 l 15 856 l -229 983 l -229 1092 l 971 1092 l 1214 963 l 1214 854 z "},"श":{"ha":1374,"x_min":106,"x_max":1546,"o":"m 774 610 q 726 351 774 457 l 925 246 l 856 156 l 667 256 q 588 196 631 215 q 506 176 546 176 q 342 229 435 176 q 184 355 250 282 q 118 485 118 428 q 167 558 118 531 q 314 586 215 586 q 483 569 394 586 q 496 643 493 607 q 312 701 403 656 q 163 814 221 746 q 106 958 106 882 q 170 1074 106 1028 q 336 1119 235 1119 q 539 1063 438 1119 q 708 890 640 1006 q 775 608 775 775 l 774 610 m 1288 857 l 1288 -12 l 1179 -12 l 940 113 l 1010 203 l 1010 857 l 985 857 l 742 985 l 742 1093 l 1303 1093 l 1546 965 l 1546 857 l 1288 857 m 404 872 q 419 823 404 840 q 461 806 433 806 q 496 814 479 806 q 482 922 492 897 q 456 947 472 947 q 419 926 433 947 q 404 872 404 906 z "},"ष":{"ha":1011,"x_min":-229,"x_max":1186,"o":"m 1186 856 l 928 856 l 928 -14 l 819 -14 l 581 111 l 650 201 l 650 281 q 567 272 613 272 q 362 319 468 272 q 184 447 256 367 q 113 621 113 528 l 113 856 l 17 856 l -229 983 l -229 1092 l 942 1092 l 1186 964 l 1186 856 m 392 856 l 392 854 l 650 646 l 650 856 l 392 856 m 471 440 q 532 467 504 440 q 594 544 560 493 l 392 708 l 392 569 q 471 439 392 439 l 471 440 z "},"स":{"ha":1356,"x_min":-201,"x_max":1528,"o":"m 1528 856 l 1269 856 l 1269 -14 l 1161 -14 l 922 111 l 992 201 l 992 331 q 925 324 963 324 q 821 344 868 324 l 735 413 q 679 290 719 344 q 583 207 639 236 l 904 36 l 835 -54 l 322 218 q 160 337 229 264 q 90 472 90 410 q 140 557 90 528 q 275 586 189 586 q 456 561 356 586 q 460 628 460 593 q 417 856 460 740 l 44 856 l -201 983 l -201 1092 l 1286 1092 l 1528 964 l 1528 856 m 833 564 q 915 581 879 564 q 992 644 951 599 l 992 856 l 639 856 q 736 586 715 736 q 833 564 792 564 z "},"ह":{"ha":946,"x_min":-132,"x_max":1119,"o":"m 497 532 q 443 518 460 532 q 426 475 426 504 q 450 417 426 440 q 658 357 553 407 q 831 235 763 307 q 899 93 899 164 q 869 -6 899 39 q 772 -101 840 -50 l 529 26 l 529 135 q 583 171 568 154 q 599 208 599 188 q 579 249 599 235 q 526 264 560 264 q 420 215 463 264 q 376 93 378 167 q 394 15 376 47 q 453 -47 411 -17 q 578 -122 494 -78 l 868 -276 l 799 -367 l 86 8 q 76 110 76 64 q 119 282 76 210 q 240 389 161 354 l 135 444 q 125 525 125 482 q 192 707 125 646 q 411 768 260 768 l 469 768 l 469 856 l 100 856 l -132 983 l -132 1092 l 888 1092 l 1119 964 l 1119 856 l 747 856 l 747 532 l 497 532 z "},"क़":{"ha":1496,"x_min":-229,"x_max":1725,"o":"m 885 746 q 958 753 922 753 q 1163 706 1057 753 q 1341 578 1269 658 q 1413 404 1413 497 q 1350 240 1413 310 q 1182 143 1288 169 l 950 271 l 950 379 q 1026 371 994 371 q 1108 408 1079 371 q 1140 513 1138 444 q 1083 597 1140 597 q 1003 562 1038 596 q 925 465 968 528 q 889 415 899 428 l 885 411 l 885 -14 l 776 -14 l 538 111 l 578 164 q 535 161 550 161 q 330 208 436 161 q 152 336 224 256 q 81 510 81 417 q 143 674 81 604 q 311 771 206 744 l 543 643 l 543 535 q 467 543 500 543 q 385 506 414 543 q 353 401 356 469 q 410 317 353 317 q 496 356 458 318 q 579 463 533 394 l 604 499 l 608 503 l 608 856 l 15 856 l -229 983 l -229 1092 l 1481 1092 l 1725 964 l 1725 856 l 885 854 l 885 746 m 440 -239 l 332 -239 l 163 -174 l 163 46 l 271 46 l 440 -19 l 440 -239 z "},"ख़":{"ha":1856,"x_min":-201,"x_max":2029,"o":"m 2029 856 l 1771 856 l 1771 -14 l 1663 -14 l 1424 111 l 1475 178 q 1382 169 1433 169 q 1165 216 1278 169 q 976 341 1051 263 q 900 511 900 419 q 963 676 900 606 q 1131 772 1025 746 l 1363 644 l 1363 536 q 1286 544 1319 544 q 1203 507 1233 544 q 1172 403 1172 469 q 1195 341 1172 364 q 1257 318 1218 318 q 1349 354 1308 318 q 1453 472 1390 390 l 1493 524 l 1493 857 l 640 857 q 716 683 689 779 q 743 488 743 586 q 699 322 743 397 q 583 207 654 246 l 904 36 l 835 -54 l 322 218 q 160 337 229 264 q 90 472 90 410 q 140 557 90 528 q 275 586 189 586 q 456 561 356 586 q 460 628 460 593 q 417 856 460 740 l 44 856 l -201 983 l -201 1092 l 1786 1092 l 2029 964 l 2029 856 m 433 -307 l 325 -307 l 156 -242 l 156 -22 l 264 -22 l 433 -87 l 433 -307 z "},"ग़":{"ha":1249,"x_min":-229,"x_max":1422,"o":"m 1164 856 l 1164 -14 l 1056 -14 l 817 111 l 886 201 l 886 856 l 665 856 l 665 431 q 627 311 665 371 q 533 214 589 251 q 429 176 478 176 q 288 229 368 176 q 149 356 207 282 q 90 485 90 429 q 260 586 90 586 q 388 571 314 586 l 388 856 l 17 856 l -229 983 l -229 1092 l 1179 1092 l 1422 964 l 1422 856 l 1164 856 m 549 -307 l 440 -307 l 271 -242 l 271 -22 l 379 -22 l 549 -87 l 549 -307 z "},"ज़":{"ha":1263,"x_min":-229,"x_max":1436,"o":"m 1178 856 l 1178 -14 l 1069 -14 l 831 111 l 900 201 l 900 350 l 701 350 l 738 321 q 747 242 747 283 q 706 116 747 175 q 591 22 664 57 q 428 -14 518 -14 q 243 13 319 -14 l 53 165 l 94 260 q 343 188 261 188 q 419 218 390 188 q 447 290 447 249 q 422 398 447 347 q 350 488 397 449 l 340 496 l 410 586 l 900 586 l 900 856 l 17 856 l -229 983 l -229 1092 l 1193 1092 l 1436 964 l 1436 856 l 1178 856 m 556 -451 l 447 -451 l 278 -386 l 278 -167 l 386 -167 l 556 -232 l 556 -451 z "},"ड़":{"ha":1151,"x_min":-243,"x_max":1328,"o":"m 558 558 q 514 540 533 558 q 494 499 494 522 q 500 469 494 482 q 638 490 579 490 q 852 441 739 490 q 1042 319 965 392 q 1119 183 1119 247 q 1051 89 1119 135 q 869 15 982 43 q 632 -14 756 -14 q 552 -10 597 -14 q 485 -3 507 -7 l 4 386 l 78 474 l 285 307 q 433 222 358 247 q 568 197 507 197 q 742 217 676 197 q 807 269 807 238 q 791 297 807 285 q 756 310 775 310 q 693 264 721 310 q 449 348 564 292 q 265 471 333 404 q 196 596 196 538 q 234 690 196 643 q 332 766 272 736 q 453 796 392 796 l 678 796 l 678 856 l 3 856 l -243 983 l -243 1092 l 1082 1092 l 1328 964 l 1328 856 l 956 856 l 956 560 l 558 560 l 558 558 m 272 -251 l 164 -251 l -6 -186 l -6 33 l 103 33 l 272 -32 l 272 -251 z "},"ढ़":{"ha":1099,"x_min":-229,"x_max":1328,"o":"m 544 504 q 401 469 450 504 q 351 369 351 435 q 397 252 351 311 q 515 152 442 193 q 669 101 589 111 q 501 219 569 149 q 432 353 432 289 q 472 433 432 406 q 590 461 513 461 q 810 407 690 461 q 1012 276 929 353 q 1094 133 1094 199 q 1017 25 1094 64 q 800 -14 940 -14 q 463 55 622 -14 q 208 237 304 124 q 113 478 113 350 q 151 609 113 549 q 256 705 190 669 q 397 740 321 740 l 594 740 l 594 856 l 3 856 l -229 983 l -229 1092 l 1096 1092 l 1328 964 l 1328 856 l 872 856 l 872 504 l 544 504 m 776 261 q 745 244 758 261 q 732 203 732 226 q 788 161 732 161 q 814 164 797 161 q 817 188 817 178 q 806 240 817 219 q 776 260 794 260 l 776 261 m 397 -307 l 289 -307 l 119 -242 l 119 -22 l 228 -22 l 397 -87 l 397 -307 z "},"फ़":{"ha":1538,"x_min":-229,"x_max":1767,"o":"m 928 747 q 1003 754 965 754 q 1208 707 1101 754 q 1385 579 1314 660 q 1457 406 1457 499 q 1394 241 1457 311 q 1226 144 1332 171 l 994 272 l 994 381 q 1071 372 1039 372 q 1135 402 1113 372 q 1157 486 1157 432 q 1100 571 1157 571 q 1029 540 1061 571 q 946 436 997 508 l 928 411 l 928 -14 l 819 -14 l 581 111 l 650 201 l 650 281 q 567 272 613 272 q 362 319 468 272 q 184 447 256 367 q 113 621 113 528 l 113 856 l 17 856 l -229 983 l -229 1092 l 1535 1092 l 1767 964 l 1767 856 l 928 856 l 928 747 m 471 440 q 541 474 510 440 q 621 583 572 508 l 650 628 l 650 856 l 392 856 l 392 569 q 471 439 392 439 l 471 440 m 463 -140 l 354 -140 l 185 -75 l 185 144 l 293 144 l 463 79 l 463 -140 z "},"य़":{"ha":1089,"x_min":-153,"x_max":1263,"o":"m 1004 856 l 1004 -14 l 896 -14 l 657 111 l 726 201 l 726 247 q 532 213 644 213 q 334 259 439 213 q 145 373 229 306 q 33 496 61 440 l 103 586 q 180 641 150 597 q 210 754 210 685 q 200 856 210 821 l 93 856 l -153 983 l -153 1092 l 1019 1092 l 1263 964 l 1263 856 l 1004 856 m 435 379 q 594 434 513 379 q 726 567 676 489 l 726 857 l 451 857 q 510 661 510 763 q 464 532 510 589 q 338 443 418 475 q 435 379 361 379 m 463 -210 l 354 -210 l 185 -144 l 185 75 l 293 75 l 463 10 l 463 -210 z "},"ॹ":{"ha":1263,"x_min":-229,"x_max":1436,"o":"m 1178 856 l 1178 -14 l 1069 -14 l 831 111 l 900 201 l 900 350 l 701 350 l 738 321 q 747 242 747 283 q 706 116 747 175 q 591 22 664 57 q 428 -14 518 -14 q 243 13 319 -14 l 53 165 l 94 260 q 343 188 261 188 q 419 218 390 188 q 447 290 447 249 q 422 398 447 347 q 350 488 397 449 l 340 496 l 410 586 l 900 586 l 900 856 l 17 856 l -229 983 l -229 1092 l 1193 1092 l 1436 964 l 1436 856 l 1178 856 m 221 -314 l 113 -314 l -57 -249 l -57 -29 l 51 -29 l 221 -94 l 221 -314 m 567 -499 l 458 -499 l 289 -433 l 289 -214 l 397 -214 l 567 -279 l 567 -499 m 901 -314 l 793 -314 l 624 -249 l 624 -29 l 732 -29 l 901 -94 l 901 -314 z "},"ॻ":{"ha":1276,"x_min":-229,"x_max":1450,"o":"m 1192 856 l 1192 -312 l 213 -312 l 51 -185 l 51 -76 l 914 -76 l 914 856 l 665 856 l 665 431 q 627 311 665 371 q 533 214 589 251 q 429 176 478 176 q 288 229 368 176 q 149 356 207 282 q 90 485 90 429 q 260 586 90 586 q 388 571 314 586 l 388 856 l 17 856 l -229 983 l -229 1092 l 1207 1092 l 1450 964 l 1450 856 l 1192 856 z "},"ॼ":{"ha":1263,"x_min":-229,"x_max":1436,"o":"m 1178 856 l 1178 -312 l 240 -312 l 79 -185 l 79 -76 l 900 -76 l 900 350 l 701 350 l 738 321 q 747 242 747 283 q 706 116 747 175 q 591 22 664 57 q 428 -14 518 -14 q 243 13 319 -14 l 53 165 l 94 260 q 343 188 261 188 q 419 218 390 188 q 447 290 447 249 q 422 398 447 347 q 350 488 397 449 l 340 496 l 410 586 l 900 586 l 900 856 l 17 856 l -229 983 l -229 1092 l 1193 1092 l 1436 964 l 1436 856 l 1178 856 z "},"ॾ":{"ha":1151,"x_min":-243,"x_max":1328,"o":"m 558 558 q 514 540 533 558 q 494 499 494 522 q 500 469 494 482 q 638 490 579 490 q 852 441 739 490 q 1042 319 965 392 q 1119 183 1119 247 q 1051 89 1119 135 q 869 15 982 43 q 632 -14 756 -14 q 552 -10 597 -14 q 485 -3 507 -7 l 4 386 l 78 474 l 285 307 q 433 222 358 247 q 568 197 507 197 q 742 217 676 197 q 807 269 807 238 q 791 297 807 285 q 756 310 775 310 q 693 264 721 310 q 449 348 564 292 q 265 471 333 404 q 196 596 196 538 q 234 690 196 643 q 332 766 272 736 q 453 796 392 796 l 678 796 l 678 856 l 3 856 l -243 983 l -243 1092 l 1082 1092 l 1328 964 l 1328 856 l 956 856 l 956 560 l 558 560 l 558 558 m 1178 -312 l 199 -312 l 38 -185 l 38 -76 l 1017 -76 l 1178 -204 l 1178 -312 z "},"ॿ":{"ha":1068,"x_min":-229,"x_max":1243,"o":"m 985 856 l 985 -312 l 311 -312 l 150 -185 l 150 -76 l 707 -76 l 707 192 q 568 168 647 168 q 351 215 464 168 q 162 340 238 261 q 86 510 86 418 q 149 674 86 604 q 317 771 211 744 l 549 643 l 549 535 q 510 540 535 538 l 622 450 q 694 543 678 522 l 706 538 l 706 856 l 15 856 l -229 983 l -229 1092 l 999 1092 l 1242 964 l 1243 856 l 985 856 m 357 401 q 380 340 357 363 q 442 317 403 317 q 546 364 494 317 l 382 497 q 358 401 358 461 l 357 401 z "},"ꣻ":{"ha":1593,"x_min":306,"x_max":1288,"o":"m 1288 856 l 550 856 l 306 983 l 306 1092 l 1043 1092 l 1288 964 l 1288 856 z "},"⁄":{"ha":344,"x_min":-308,"x_max":651,"o":"m -212 -279 l -308 -229 l 554 1394 l 651 1346 l -212 -279 z "},"½":{"ha":1683,"x_min":56,"x_max":1625,"o":"m 493 578 l 78 578 l 78 661 l 186 735 l 186 1025 l 56 1053 l 100 1144 l 515 1144 l 515 1061 l 408 988 l 408 696 l 538 669 l 493 578 m 381 -279 l 285 -229 l 1147 1394 l 1244 1346 l 381 -279 m 1625 -128 l 1500 -110 l 954 -110 l 954 -12 q 1148 119 1082 71 q 1240 199 1214 168 q 1267 257 1267 231 q 1249 287 1267 275 q 1203 299 1231 299 q 978 247 1126 299 l 944 342 l 1097 449 q 1233 467 1151 467 q 1460 424 1375 467 q 1546 313 1546 382 q 1479 218 1546 276 q 1276 86 1413 160 l 1481 86 l 1528 182 l 1625 154 l 1625 -128 z "},"⅓":{"ha":1572,"x_min":56,"x_max":1531,"o":"m 493 578 l 78 578 l 78 661 l 186 735 l 186 1025 l 56 1053 l 100 1144 l 515 1144 l 515 1061 l 408 988 l 408 696 l 538 669 l 493 578 m 381 -279 l 285 -229 l 1147 1394 l 1244 1346 l 381 -279 m 1294 138 q 1474 68 1417 107 q 1531 -26 1531 29 q 1401 -212 1531 -131 q 989 -365 1272 -293 l 961 -265 q 1162 -200 1093 -228 q 1258 -143 1231 -172 q 1286 -72 1286 -114 q 1249 -4 1286 -33 q 1138 47 1213 25 l 1138 125 q 1215 185 1192 154 q 1239 257 1239 217 q 1217 305 1239 286 q 1160 324 1194 324 q 990 274 1114 324 l 957 353 l 1110 460 q 1178 468 1146 468 q 1331 447 1261 468 q 1442 391 1401 426 q 1483 313 1483 356 q 1431 221 1478 264 q 1294 136 1383 178 l 1294 138 z "},"⅔":{"ha":1767,"x_min":49,"x_max":1725,"o":"m 729 558 l 604 576 l 58 576 l 58 674 q 252 806 186 757 q 344 885 318 854 q 371 943 371 917 q 353 973 371 961 q 307 985 335 985 q 82 933 231 985 l 49 1028 l 201 1135 q 338 1153 256 1153 q 565 1110 479 1153 q 650 999 650 1068 q 583 904 650 963 q 381 772 517 846 l 585 772 l 632 868 l 729 840 l 729 558 m 575 -279 l 479 -229 l 1342 1394 l 1439 1346 l 575 -279 m 1489 138 q 1668 68 1611 107 q 1725 -26 1725 29 q 1596 -212 1725 -131 q 1183 -365 1467 -293 l 1156 -265 q 1356 -200 1288 -228 q 1453 -143 1425 -172 q 1481 -72 1481 -114 q 1444 -4 1481 -33 q 1332 47 1407 25 l 1332 125 q 1410 185 1386 154 q 1433 257 1433 217 q 1411 305 1433 286 q 1354 324 1389 324 q 1185 274 1308 324 l 1151 353 l 1304 460 q 1372 468 1340 468 q 1526 447 1456 468 q 1637 391 1596 426 q 1678 313 1678 356 q 1625 221 1672 264 q 1489 136 1578 178 l 1489 138 z "},"¼":{"ha":1483,"x_min":56,"x_max":1504,"o":"m 493 578 l 78 578 l 78 661 l 186 735 l 186 1025 l 56 1053 l 100 1144 l 515 1144 l 515 1061 l 408 988 l 408 696 l 538 669 l 493 578 m 381 -279 l 285 -229 l 1147 1394 l 1244 1346 l 381 -279 m 1335 -83 l 1335 -260 l 1113 -318 l 1113 -83 l 701 -83 l 701 -1 l 1113 428 l 1335 485 l 1335 38 l 1504 38 l 1465 -83 l 1335 -83 m 1113 263 l 897 38 l 1113 38 l 1113 263 z "},"¾":{"ha":1525,"x_min":19,"x_max":1546,"o":"m 357 824 q 536 754 479 793 q 593 660 593 715 q 464 474 593 556 q 51 321 335 393 l 24 421 q 224 486 156 458 q 321 543 293 514 q 349 614 349 572 q 312 682 349 653 q 200 733 275 711 l 200 811 q 278 872 254 840 q 301 943 301 903 q 279 991 301 972 q 222 1010 257 1010 q 53 960 175 1010 l 19 1039 l 172 1146 q 240 1154 207 1154 q 394 1133 324 1154 q 505 1077 464 1113 q 546 999 546 1042 q 493 907 540 950 q 357 822 446 864 l 357 824 m 422 -279 l 326 -229 l 1189 1394 l 1286 1346 l 422 -279 m 1376 -83 l 1376 -260 l 1154 -318 l 1154 -83 l 743 -83 l 743 -1 l 1154 428 l 1376 485 l 1376 38 l 1546 38 l 1507 -83 l 1376 -83 m 1154 263 l 939 38 l 1154 38 l 1154 263 z "},"⅛":{"ha":1763,"x_min":56,"x_max":1732,"o":"m 493 578 l 78 578 l 78 661 l 186 735 l 186 1025 l 56 1053 l 100 1144 l 515 1144 l 515 1061 l 408 988 l 408 696 l 538 669 l 493 578 m 381 -279 l 285 -229 l 1147 1394 l 1244 1346 l 381 -279 m 1501 358 q 1673 253 1614 301 q 1732 135 1732 204 q 1673 22 1732 82 q 1529 -81 1614 -39 q 1376 -122 1444 -122 q 1165 -92 1258 -122 q 1021 -8 1072 -61 q 969 110 969 46 q 1019 212 969 161 q 1181 333 1068 263 q 1068 419 1108 375 q 1028 519 1028 464 q 1083 620 1028 567 q 1219 710 1139 674 q 1364 747 1299 747 q 1522 723 1453 747 q 1628 658 1590 699 q 1665 571 1665 618 q 1628 481 1663 528 q 1503 363 1593 435 l 1501 358 m 1347 622 q 1289 605 1310 622 q 1268 560 1268 588 q 1304 480 1268 515 q 1407 407 1340 444 q 1440 469 1433 446 q 1447 522 1447 493 q 1419 594 1447 565 q 1346 624 1390 624 l 1347 622 m 1383 -3 q 1463 24 1433 -3 q 1493 89 1493 51 q 1463 159 1493 126 q 1390 217 1433 192 q 1272 281 1347 243 q 1224 214 1236 242 q 1211 153 1211 186 q 1235 75 1211 111 q 1299 17 1258 39 q 1383 -4 1339 -4 l 1383 -3 z "},"⅜":{"ha":1804,"x_min":19,"x_max":1774,"o":"m 357 824 q 536 754 479 793 q 593 660 593 715 q 464 474 593 556 q 51 321 335 393 l 24 421 q 224 486 156 458 q 321 543 293 514 q 349 614 349 572 q 312 682 349 653 q 200 733 275 711 l 200 811 q 278 872 254 840 q 301 943 301 903 q 279 991 301 972 q 222 1010 257 1010 q 53 960 175 1010 l 19 1039 l 172 1146 q 240 1154 207 1154 q 394 1133 324 1154 q 505 1077 464 1113 q 546 999 546 1042 q 493 907 540 950 q 357 822 446 864 l 357 824 m 422 -279 l 326 -229 l 1189 1394 l 1286 1346 l 422 -279 m 1543 358 q 1715 253 1656 301 q 1774 135 1774 204 q 1715 22 1774 82 q 1571 -81 1656 -39 q 1418 -122 1486 -122 q 1207 -92 1300 -122 q 1063 -8 1114 -61 q 1011 110 1011 46 q 1060 212 1011 161 q 1222 333 1110 263 q 1110 419 1150 375 q 1069 519 1069 464 q 1125 620 1069 567 q 1260 710 1181 674 q 1406 747 1340 747 q 1563 723 1494 747 q 1669 658 1632 699 q 1707 571 1707 618 q 1669 481 1704 528 q 1544 363 1635 435 l 1543 358 m 1389 622 q 1331 605 1351 622 q 1310 560 1310 588 q 1346 480 1310 515 q 1449 407 1382 444 q 1482 469 1475 446 q 1489 522 1489 493 q 1460 594 1489 565 q 1388 624 1432 624 l 1389 622 m 1425 -3 q 1505 24 1475 -3 q 1535 89 1535 51 q 1505 159 1535 126 q 1432 217 1475 192 q 1314 281 1389 243 q 1265 214 1278 242 q 1253 153 1253 186 q 1276 75 1253 111 q 1340 17 1300 39 q 1425 -4 1381 -4 l 1425 -3 z "},"⅝":{"ha":1892,"x_min":47,"x_max":1861,"o":"m 218 914 q 476 830 385 871 q 603 744 567 789 q 639 639 639 699 q 558 497 639 557 q 359 398 478 438 q 75 319 240 358 l 47 419 q 268 480 194 454 q 368 531 342 506 q 394 593 394 557 q 371 651 394 626 q 278 701 347 675 q 75 760 210 726 l 163 1143 l 475 1143 l 518 1232 l 610 1213 l 610 931 l 490 947 l 224 947 l 217 914 l 218 914 m 510 -279 l 414 -229 l 1276 1394 l 1374 1346 l 510 -279 m 1631 358 q 1802 253 1743 301 q 1861 135 1861 204 q 1802 22 1861 82 q 1658 -81 1743 -39 q 1506 -122 1574 -122 q 1294 -92 1388 -122 q 1150 -8 1201 -61 q 1099 110 1099 46 q 1148 212 1099 161 q 1310 333 1197 263 q 1197 419 1238 375 q 1157 519 1157 464 q 1213 620 1157 567 q 1348 710 1268 674 q 1493 747 1428 747 q 1651 723 1582 747 q 1757 658 1719 699 q 1794 571 1794 618 q 1757 481 1792 528 q 1632 363 1722 435 l 1631 358 m 1476 622 q 1418 605 1439 622 q 1397 560 1397 588 q 1433 480 1397 515 q 1536 407 1469 444 q 1569 469 1563 446 q 1576 522 1576 493 q 1548 594 1576 565 q 1475 624 1519 624 l 1476 622 m 1513 -3 q 1592 24 1563 -3 q 1622 89 1622 51 q 1592 159 1622 126 q 1519 217 1563 192 q 1401 281 1476 243 q 1353 214 1365 242 q 1340 153 1340 186 q 1364 75 1340 111 q 1428 17 1388 39 q 1513 -4 1468 -4 l 1513 -3 z "},"⅞":{"ha":1808,"x_min":83,"x_max":1778,"o":"m 738 1035 l 260 319 l 142 354 l 540 949 l 226 949 l 181 851 l 83 879 l 83 1161 l 208 1143 l 738 1143 l 738 1035 m 426 -279 l 331 -229 l 1193 1394 l 1290 1346 l 426 -279 m 1547 358 q 1719 253 1660 301 q 1778 135 1778 204 q 1719 22 1778 82 q 1575 -81 1660 -39 q 1422 -122 1490 -122 q 1211 -92 1304 -122 q 1067 -8 1118 -61 q 1015 110 1015 46 q 1065 212 1015 161 q 1226 333 1114 263 q 1114 419 1154 375 q 1074 519 1074 464 q 1129 620 1074 567 q 1265 710 1185 674 q 1410 747 1344 747 q 1567 723 1499 747 q 1674 658 1636 699 q 1711 571 1711 618 q 1674 481 1708 528 q 1549 363 1639 435 l 1547 358 m 1393 622 q 1335 605 1356 622 q 1314 560 1314 588 q 1350 480 1314 515 q 1453 407 1386 444 q 1486 469 1479 446 q 1493 522 1493 493 q 1465 594 1493 565 q 1392 624 1436 624 l 1393 622 m 1429 -3 q 1509 24 1479 -3 q 1539 89 1539 51 q 1509 159 1539 126 q 1436 217 1479 192 q 1318 281 1393 243 q 1269 214 1282 242 q 1257 153 1257 186 q 1281 75 1257 111 q 1344 17 1304 39 q 1429 -4 1385 -4 l 1429 -3 z "},"₀":{"ha":914,"x_min":69,"x_max":844,"o":"m 496 467 q 676 431 597 467 q 800 331 756 394 q 844 190 844 268 q 777 35 844 107 q 610 -78 710 -36 q 417 -119 510 -119 q 236 -83 315 -119 q 113 15 157 -47 q 69 157 69 78 q 137 312 69 240 q 304 425 204 383 q 496 467 404 467 m 432 332 q 310 203 310 332 q 354 68 310 121 q 482 15 399 15 q 573 48 542 15 q 604 144 604 81 q 560 279 604 226 q 432 332 515 332 z "},"₁":{"ha":551,"x_min":44,"x_max":526,"o":"m 482 -108 l 67 -108 l 67 -25 l 175 49 l 175 339 l 44 367 l 89 458 l 504 458 l 504 375 l 397 301 l 397 10 l 526 -17 l 482 -108 z "},"₂":{"ha":788,"x_min":49,"x_max":729,"o":"m 729 -128 l 604 -110 l 58 -110 l 58 -12 q 252 119 186 71 q 344 199 318 168 q 371 257 371 231 q 353 287 371 275 q 307 299 335 299 q 82 247 231 299 l 49 342 l 201 449 q 338 467 256 467 q 565 424 479 467 q 650 313 650 382 q 583 218 650 276 q 381 86 517 160 l 585 86 l 632 182 l 729 154 l 729 -128 z "},"₃":{"ha":635,"x_min":19,"x_max":593,"o":"m 357 138 q 536 68 479 107 q 593 -26 593 29 q 464 -212 593 -131 q 51 -365 335 -293 l 24 -265 q 224 -200 156 -228 q 321 -143 293 -172 q 349 -72 349 -114 q 312 -4 349 -33 q 200 47 275 25 l 200 125 q 278 185 254 154 q 301 257 301 217 q 279 305 301 286 q 222 324 257 324 q 53 274 176 324 l 19 353 l 172 460 q 240 468 208 468 q 394 447 324 468 q 505 391 464 426 q 546 313 546 356 q 493 221 540 264 q 357 136 446 178 l 357 138 z "},"₄":{"ha":824,"x_min":42,"x_max":844,"o":"m 675 -83 l 675 -260 l 453 -318 l 453 -83 l 42 -83 l 42 -1 l 453 428 l 675 485 l 675 38 l 844 38 l 806 -83 l 675 -83 m 453 263 l 238 38 l 453 38 l 453 263 z "},"₅":{"ha":722,"x_min":47,"x_max":639,"o":"m 218 228 q 476 144 385 185 q 603 58 567 103 q 639 -47 639 13 q 558 -189 639 -129 q 359 -288 478 -249 q 75 -367 240 -328 l 47 -267 q 268 -206 194 -232 q 368 -155 342 -181 q 394 -93 394 -129 q 371 -35 394 -60 q 278 15 347 -11 q 75 74 210 40 l 163 457 l 475 457 l 518 546 l 610 526 l 610 244 l 490 261 l 224 261 l 217 228 l 218 228 z "},"₆":{"ha":832,"x_min":61,"x_max":799,"o":"m 696 656 q 393 445 485 547 q 301 232 301 343 q 344 76 301 138 q 465 15 386 15 q 558 125 558 15 q 510 266 558 208 q 393 353 463 324 l 463 450 q 628 414 551 450 q 752 314 706 378 q 799 171 799 250 q 740 35 799 103 q 588 -76 681 -33 q 401 -119 494 -119 q 224 -80 301 -119 q 104 29 147 -40 q 61 186 61 99 q 110 384 61 294 q 286 563 158 474 q 647 749 414 653 l 696 656 z "},"₇":{"ha":750,"x_min":83,"x_max":738,"o":"m 738 349 l 260 -367 l 142 -332 l 540 263 l 226 263 l 181 165 l 83 193 l 83 475 l 208 457 l 738 457 l 738 349 z "},"₈":{"ha":825,"x_min":32,"x_max":794,"o":"m 564 358 q 735 253 676 301 q 794 135 794 204 q 735 22 794 82 q 592 -81 676 -39 q 439 -122 507 -122 q 228 -92 321 -122 q 83 -8 135 -61 q 32 110 32 46 q 81 212 32 161 q 243 333 131 263 q 131 419 171 375 q 90 519 90 464 q 146 620 90 567 q 281 710 201 674 q 426 747 361 747 q 584 723 515 747 q 690 658 653 699 q 728 571 728 618 q 690 481 725 528 q 565 363 656 435 l 564 358 m 410 622 q 351 605 372 622 q 331 560 331 588 q 367 480 331 515 q 469 407 403 444 q 503 469 496 446 q 510 522 510 493 q 481 594 510 565 q 408 624 453 624 l 410 622 m 446 -3 q 526 24 496 -3 q 556 89 556 51 q 526 159 556 126 q 453 217 496 192 q 335 281 410 243 q 286 214 299 242 q 274 153 274 186 q 297 75 274 111 q 361 17 321 39 q 446 -4 401 -4 l 446 -3 z "},"₉":{"ha":818,"x_min":61,"x_max":799,"o":"m 458 467 q 635 427 558 467 q 756 318 713 388 q 799 161 799 249 q 751 -24 799 60 q 577 -191 703 -107 q 224 -367 451 -275 l 175 -274 q 470 -80 382 -172 q 558 115 558 13 q 516 271 558 210 q 393 332 474 332 q 301 222 301 332 q 349 81 301 139 q 467 -6 397 24 l 376 -104 q 224 -60 296 -96 q 106 38 151 -24 q 61 176 61 99 q 120 313 61 244 q 272 424 179 381 q 458 467 364 467 z "},"⁰":{"ha":914,"x_min":69,"x_max":844,"o":"m 496 1153 q 676 1117 597 1153 q 800 1017 756 1081 q 844 876 844 954 q 777 722 844 793 q 610 608 710 650 q 417 567 510 567 q 236 603 315 567 q 113 701 157 639 q 69 843 69 764 q 137 998 69 926 q 304 1111 204 1069 q 496 1153 404 1153 m 432 1018 q 310 889 310 1018 q 354 754 310 807 q 482 701 399 701 q 573 734 542 701 q 604 831 604 767 q 560 965 604 913 q 432 1018 515 1018 z "},"¹":{"ha":593,"x_min":56,"x_max":538,"o":"m 493 578 l 78 578 l 78 661 l 186 735 l 186 1025 l 56 1053 l 100 1144 l 515 1144 l 515 1061 l 408 988 l 408 696 l 538 669 l 493 578 z "},"²":{"ha":788,"x_min":49,"x_max":729,"o":"m 729 558 l 604 576 l 58 576 l 58 674 q 252 806 186 757 q 344 885 318 854 q 371 943 371 917 q 353 973 371 961 q 307 985 335 985 q 82 933 231 985 l 49 1028 l 201 1135 q 338 1153 256 1153 q 565 1110 479 1153 q 650 999 650 1068 q 583 904 650 963 q 381 772 517 846 l 585 772 l 632 868 l 729 840 l 729 558 z "},"³":{"ha":635,"x_min":19,"x_max":593,"o":"m 357 824 q 536 754 479 793 q 593 660 593 715 q 464 474 593 556 q 51 321 335 393 l 24 421 q 224 486 156 458 q 321 543 293 514 q 349 614 349 572 q 312 682 349 653 q 200 733 275 711 l 200 811 q 278 872 254 840 q 301 943 301 903 q 279 991 301 972 q 222 1010 257 1010 q 53 960 175 1010 l 19 1039 l 172 1146 q 240 1154 207 1154 q 394 1133 324 1154 q 505 1077 464 1113 q 546 999 546 1042 q 493 907 540 950 q 357 822 446 864 l 357 824 z "},"⁴":{"ha":824,"x_min":42,"x_max":844,"o":"m 675 603 l 675 426 l 453 368 l 453 603 l 42 603 l 42 685 l 453 1114 l 675 1171 l 675 724 l 844 724 l 806 603 l 675 603 m 453 949 l 238 724 l 453 724 l 453 949 z "},"⁵":{"ha":722,"x_min":47,"x_max":639,"o":"m 218 914 q 476 830 385 871 q 603 744 567 789 q 639 639 639 699 q 558 497 639 557 q 359 398 478 438 q 75 319 240 358 l 47 419 q 268 480 194 454 q 368 531 342 506 q 394 593 394 557 q 371 651 394 626 q 278 701 347 675 q 75 760 210 726 l 163 1143 l 475 1143 l 518 1232 l 610 1213 l 610 931 l 490 947 l 224 947 l 217 914 l 218 914 z "},"⁶":{"ha":832,"x_min":61,"x_max":799,"o":"m 696 1342 q 393 1131 485 1233 q 301 918 301 1029 q 344 763 301 824 q 465 701 386 701 q 558 811 558 701 q 510 952 558 894 q 393 1039 463 1010 l 463 1136 q 628 1100 551 1136 q 752 1000 706 1064 q 799 857 799 936 q 740 721 799 789 q 588 610 681 653 q 401 567 494 567 q 224 606 301 567 q 104 715 147 646 q 61 872 61 785 q 110 1070 61 981 q 286 1249 158 1160 q 647 1435 414 1339 l 696 1342 z "},"⁷":{"ha":750,"x_min":83,"x_max":738,"o":"m 738 1035 l 260 319 l 142 354 l 540 949 l 226 949 l 181 851 l 83 879 l 83 1161 l 208 1143 l 738 1143 l 738 1035 z "},"⁸":{"ha":825,"x_min":32,"x_max":794,"o":"m 564 1044 q 735 939 676 988 q 794 821 794 890 q 735 708 794 768 q 592 606 676 647 q 439 564 507 564 q 228 594 321 564 q 83 678 135 625 q 32 796 32 732 q 81 898 32 847 q 243 1019 131 949 q 131 1106 171 1061 q 90 1206 90 1150 q 146 1306 90 1253 q 281 1397 201 1360 q 426 1433 361 1433 q 584 1409 515 1433 q 690 1344 653 1385 q 728 1257 728 1304 q 690 1167 725 1214 q 565 1049 656 1121 l 564 1044 m 410 1308 q 351 1291 372 1308 q 331 1246 331 1274 q 367 1166 331 1201 q 469 1093 403 1131 q 503 1156 496 1132 q 510 1208 510 1179 q 481 1281 510 1251 q 408 1310 453 1310 l 410 1308 m 446 683 q 526 710 496 683 q 556 775 556 738 q 526 845 556 813 q 453 903 496 878 q 335 967 410 929 q 286 900 299 928 q 274 839 274 872 q 297 761 274 797 q 361 703 321 725 q 446 682 401 682 l 446 683 z "},"⁹":{"ha":818,"x_min":61,"x_max":799,"o":"m 458 1153 q 635 1113 558 1153 q 756 1004 713 1074 q 799 847 799 935 q 751 663 799 746 q 577 495 703 579 q 224 319 451 411 l 175 413 q 470 606 382 514 q 558 801 558 699 q 516 957 558 896 q 393 1018 474 1018 q 301 908 301 1018 q 349 767 301 825 q 467 681 397 710 l 376 582 q 224 626 296 590 q 106 724 151 663 q 61 863 61 785 q 120 999 61 931 q 272 1110 179 1067 q 458 1153 364 1153 z "},"०":{"ha":1074,"x_min":139,"x_max":935,"o":"m 443 800 q 663 749 547 800 q 857 611 779 699 q 935 419 935 524 q 897 283 935 344 q 789 187 858 222 q 631 151 719 151 q 410 202 526 151 q 217 340 294 253 q 139 532 139 428 q 177 668 139 607 q 285 765 215 729 q 443 800 354 800 m 540 633 q 466 584 493 633 q 439 467 439 535 q 465 356 439 393 q 533 318 490 318 q 608 367 581 318 q 635 485 635 417 q 609 596 635 558 q 540 633 583 633 z "},"१":{"ha":889,"x_min":24,"x_max":694,"o":"m 271 1104 q 485 1038 388 1104 q 638 858 582 972 q 694 608 694 744 q 664 292 694 490 q 607 -15 633 93 l 499 -15 l 329 50 q 376 310 356 169 q 407 572 397 451 q 219 635 307 586 q 77 753 131 685 q 24 894 24 822 q 57 1000 24 951 q 147 1077 90 1049 q 271 1106 204 1106 l 271 1104 m 322 824 q 336 754 322 776 q 379 732 350 732 q 411 736 401 732 q 396 878 408 825 q 364 931 383 931 q 335 899 347 931 q 324 825 324 868 l 322 824 z "},"२":{"ha":1068,"x_min":118,"x_max":1179,"o":"m 672 239 q 501 168 583 168 q 342 217 429 168 q 193 335 254 265 q 132 463 132 406 q 181 538 132 510 q 315 565 229 565 q 514 532 407 565 q 595 665 569 600 q 621 799 621 729 q 605 873 621 850 q 553 896 589 896 q 453 856 506 896 q 361 749 400 815 l 118 876 l 118 985 q 272 1069 168 1033 q 469 1104 375 1104 q 683 1047 579 1104 q 853 897 788 989 q 919 708 919 804 q 874 508 919 613 q 754 318 828 403 l 1179 -24 l 1100 -107 l 672 239 z "},"३":{"ha":1181,"x_min":110,"x_max":1085,"o":"m 1085 260 q 1025 140 1085 206 q 878 28 965 74 q 719 -17 792 -17 q 624 -10 676 -17 l 914 -243 l 835 -326 l 296 108 q 160 235 210 164 q 110 381 110 306 q 134 461 110 429 q 206 493 158 493 q 350 408 292 493 q 421 188 408 324 q 526 168 479 168 q 641 190 581 168 q 742 244 701 211 q 783 308 783 276 q 769 367 783 344 q 710 420 756 389 q 551 515 664 451 l 551 624 q 642 693 608 649 q 675 796 675 738 q 660 872 675 847 q 610 897 644 897 q 507 857 558 897 q 415 750 456 817 l 172 878 l 172 986 q 333 1073 229 1040 q 532 1106 438 1106 q 737 1047 633 1106 q 907 899 840 989 q 974 724 974 810 q 947 587 974 644 q 867 486 919 529 q 1026 373 968 432 q 1085 263 1085 314 l 1085 260 m 301 249 l 276 265 l 301 249 z "},"४":{"ha":1181,"x_min":101,"x_max":1039,"o":"m 815 531 q 1039 232 1039 382 q 994 106 1039 163 q 869 18 949 50 q 690 -14 789 -14 q 433 40 556 -14 q 235 183 310 94 q 160 371 160 272 q 308 647 160 510 l 361 694 l 317 722 q 101 1069 101 857 q 110 1136 101 1101 l 179 1226 l 411 1099 q 401 1008 401 1065 q 460 785 401 867 l 600 913 q 679 1001 656 963 q 703 1081 703 1040 q 686 1154 703 1113 l 736 1226 l 986 1089 q 1013 983 1013 1038 q 915 792 1013 881 l 707 601 l 815 531 m 567 171 q 690 219 640 171 q 739 340 739 268 q 710 440 739 392 q 626 528 681 489 l 593 497 q 488 381 517 428 q 460 282 460 335 q 567 169 460 169 l 567 171 z "},"५":{"ha":1158,"x_min":140,"x_max":1265,"o":"m 824 85 q 671 -15 764 -7 q 500 35 597 -15 q 333 155 403 85 q 263 279 263 225 q 316 353 263 325 q 472 382 369 382 q 629 365 539 382 q 639 621 639 472 q 594 618 611 618 q 390 662 496 618 q 212 779 283 706 q 140 939 140 853 l 140 1104 l 249 1104 l 418 1039 l 418 888 q 497 785 418 785 q 562 802 528 785 q 619 853 596 819 q 643 931 643 886 l 643 1104 l 751 1104 l 921 1039 l 921 597 q 872 192 921 344 l 1265 -125 l 1188 -210 l 824 85 z "},"६":{"ha":1347,"x_min":100,"x_max":1564,"o":"m 1015 296 q 845 227 935 253 q 674 201 756 201 q 445 245 561 201 q 253 367 329 289 q 178 543 178 444 q 196 633 178 590 q 247 711 214 676 q 141 803 182 746 q 100 936 100 861 q 156 1073 100 1026 q 306 1119 211 1119 q 372 1117 336 1119 l 618 989 l 618 881 q 542 890 578 890 q 442 876 483 890 q 400 839 400 863 q 417 806 400 817 q 460 796 433 796 l 706 668 l 706 560 q 613 567 663 567 q 513 535 547 567 q 478 460 478 503 q 510 397 478 424 q 576 369 542 369 q 730 419 668 369 q 840 557 792 469 q 818 711 818 642 q 846 846 818 797 q 921 894 874 894 q 1048 833 978 894 q 1167 685 1118 772 q 1215 525 1215 597 q 1188 445 1215 486 q 1113 364 1161 404 l 1564 0 l 1486 -85 l 1015 296 z "},"७":{"ha":1456,"x_min":124,"x_max":1319,"o":"m 886 1006 q 1102 942 1003 1006 q 1260 770 1201 878 q 1319 538 1319 663 q 1249 259 1319 386 q 1056 58 1178 132 q 788 -15 933 -15 q 457 86 610 -15 q 214 359 304 188 q 124 729 124 531 q 149 943 124 838 q 221 1135 174 1049 l 290 1225 l 522 1097 q 444 814 465 929 q 424 549 424 699 q 491 272 424 372 q 689 171 558 171 q 890 251 810 171 q 1003 476 971 331 q 822 542 906 493 q 687 657 738 590 q 636 793 636 724 q 669 901 636 851 q 760 978 703 950 q 888 1007 818 1007 l 886 1006 m 992 635 q 1019 638 1011 635 l 1019 663 q 1008 788 1019 744 q 976 832 997 832 q 947 801 958 832 q 935 725 935 771 q 992 635 935 635 z "},"८":{"ha":1208,"x_min":-132,"x_max":1197,"o":"m 669 856 q 532 806 588 856 q 476 672 476 757 q 517 577 476 614 q 617 519 557 540 q 779 472 678 497 q 965 416 896 442 q 1083 342 1035 390 q 1132 215 1132 293 q 1091 78 1132 135 q 978 -26 1050 21 l 746 101 l 746 210 q 809 231 786 210 q 832 285 832 251 q 786 338 832 317 q 633 392 740 360 q 406 470 499 431 q 244 586 313 510 q 176 781 176 663 q 188 856 176 818 l 114 856 l -132 983 l -132 1092 l 951 1092 l 1197 964 l 1197 856 l 669 856 z "},"९":{"ha":1069,"x_min":81,"x_max":990,"o":"m 990 150 q 576 -12 769 -12 q 348 35 464 -12 q 156 170 232 83 q 81 365 81 257 q 135 520 81 451 q 281 636 189 589 q 153 867 153 749 q 197 990 153 935 q 318 1076 240 1044 q 494 1107 396 1107 q 679 1069 588 1107 q 828 972 771 1032 q 886 851 886 913 q 853 776 886 810 q 760 724 819 743 q 628 704 701 704 q 608 706 614 704 l 521 778 l 521 886 q 556 878 544 878 q 578 885 569 878 q 586 904 586 893 q 539 933 586 933 q 476 906 499 933 q 453 828 453 878 q 482 723 453 767 q 551 651 511 679 q 658 588 590 624 l 690 571 l 690 463 q 597 469 647 469 q 491 442 542 469 q 410 369 440 414 q 379 279 379 325 q 402 228 379 249 q 464 208 425 208 q 607 258 535 208 q 743 385 679 308 l 990 258 l 990 150 z "},"Ⅰ":{"ha":714,"x_min":56,"x_max":658,"o":"m 603 0 l 83 0 l 83 99 l 218 204 l 218 660 l 56 699 l 111 810 l 631 810 l 631 711 l 496 606 l 496 150 l 658 111 l 603 0 z "},"Ⅱ":{"ha":1428,"x_min":56,"x_max":1372,"o":"m 603 0 l 83 0 l 83 99 l 218 204 l 218 660 l 56 699 l 111 810 l 631 810 l 631 711 l 496 606 l 496 150 l 658 111 l 603 0 m 1317 0 l 797 0 l 797 99 l 932 204 l 932 660 l 769 699 l 825 810 l 1344 810 l 1344 711 l 1210 606 l 1210 150 l 1372 111 l 1317 0 z "},"Ⅲ":{"ha":2142,"x_min":56,"x_max":2086,"o":"m 603 0 l 83 0 l 83 99 l 218 204 l 218 660 l 56 699 l 111 810 l 631 810 l 631 711 l 496 606 l 496 150 l 658 111 l 603 0 m 1317 0 l 797 0 l 797 99 l 932 204 l 932 660 l 769 699 l 825 810 l 1344 810 l 1344 711 l 1210 606 l 1210 150 l 1372 111 l 1317 0 m 2031 0 l 1511 0 l 1511 99 l 1646 204 l 1646 660 l 1483 699 l 1539 810 l 2058 810 l 2058 711 l 1924 606 l 1924 150 l 2086 111 l 2031 0 z "},"Ⅳ":{"ha":1926,"x_min":56,"x_max":1926,"o":"m 603 0 l 83 0 l 83 99 l 218 204 l 218 660 l 56 699 l 111 810 l 631 810 l 631 711 l 496 606 l 496 150 l 658 111 l 603 0 m 1743 576 l 1472 46 l 1175 -25 l 854 631 l 700 700 l 756 811 l 1331 811 l 1331 713 l 1169 628 l 1389 192 l 1596 596 l 1407 699 l 1463 810 l 1926 810 l 1926 713 l 1743 576 z "},"Ⅴ":{"ha":1213,"x_min":-14,"x_max":1213,"o":"m 1029 576 l 758 46 l 461 -25 l 140 631 l -14 700 l 42 811 l 617 811 l 617 713 l 456 628 l 675 192 l 882 596 l 693 699 l 749 810 l 1213 810 l 1213 713 l 1029 576 z "},"Ⅵ":{"ha":1926,"x_min":-14,"x_max":1871,"o":"m 1029 576 l 758 46 l 461 -25 l 140 631 l -14 700 l 42 811 l 617 811 l 617 713 l 456 628 l 675 192 l 882 596 l 693 699 l 749 810 l 1213 810 l 1213 713 l 1029 576 m 1815 0 l 1296 0 l 1296 99 l 1431 204 l 1431 660 l 1268 699 l 1324 810 l 1843 810 l 1843 711 l 1708 606 l 1708 150 l 1871 111 l 1815 0 z "},"Ⅶ":{"ha":2640,"x_min":-14,"x_max":2585,"o":"m 1029 576 l 758 46 l 461 -25 l 140 631 l -14 700 l 42 811 l 617 811 l 617 713 l 456 628 l 675 192 l 882 596 l 693 699 l 749 810 l 1213 810 l 1213 713 l 1029 576 m 1815 0 l 1296 0 l 1296 99 l 1431 204 l 1431 660 l 1268 699 l 1324 810 l 1843 810 l 1843 711 l 1708 606 l 1708 150 l 1871 111 l 1815 0 m 2529 0 l 2010 0 l 2010 99 l 2144 204 l 2144 660 l 1982 699 l 2038 810 l 2557 810 l 2557 711 l 2422 606 l 2422 150 l 2585 111 l 2529 0 z "},"Ⅷ":{"ha":3354,"x_min":-14,"x_max":3299,"o":"m 1029 576 l 758 46 l 461 -25 l 140 631 l -14 700 l 42 811 l 617 811 l 617 713 l 456 628 l 675 192 l 882 596 l 693 699 l 749 810 l 1213 810 l 1213 713 l 1029 576 m 1815 0 l 1296 0 l 1296 99 l 1431 204 l 1431 660 l 1268 699 l 1324 810 l 1843 810 l 1843 711 l 1708 606 l 1708 150 l 1871 111 l 1815 0 m 2529 0 l 2010 0 l 2010 99 l 2144 204 l 2144 660 l 1982 699 l 2038 810 l 2557 810 l 2557 711 l 2422 606 l 2422 150 l 2585 111 l 2529 0 m 3243 0 l 2724 0 l 2724 99 l 2858 204 l 2858 660 l 2696 699 l 2751 810 l 3271 810 l 3271 711 l 3136 606 l 3136 150 l 3299 111 l 3243 0 z "},"Ⅸ":{"ha":1954,"x_min":56,"x_max":1954,"o":"m 603 0 l 83 0 l 83 99 l 218 204 l 218 660 l 56 699 l 111 810 l 631 810 l 631 711 l 496 606 l 496 150 l 658 111 l 603 0 m 1899 1 l 1379 1 l 1379 100 l 1457 147 l 1279 294 l 1124 190 l 1261 111 l 1206 0 l 742 0 l 742 99 l 1163 383 l 942 568 l 714 699 l 769 810 l 1289 810 l 1289 711 l 1206 669 l 1385 524 l 1519 618 l 1379 699 l 1435 810 l 1899 810 l 1899 711 l 1504 432 l 1793 188 l 1954 113 l 1899 1 z "},"Ⅹ":{"ha":1240,"x_min":0,"x_max":1240,"o":"m 1185 1 l 665 1 l 665 100 l 743 147 l 565 294 l 410 190 l 547 111 l 492 0 l 28 0 l 28 99 l 449 383 l 228 568 l 0 699 l 56 810 l 575 810 l 575 711 l 492 669 l 671 524 l 806 618 l 665 699 l 721 810 l 1185 810 l 1185 711 l 790 432 l 1079 188 l 1240 113 l 1185 1 z "},"Ⅺ":{"ha":1926,"x_min":-14,"x_max":1871,"o":"m 1029 576 l 758 46 l 461 -25 l 140 631 l -14 700 l 42 811 l 617 811 l 617 713 l 456 628 l 675 192 l 882 596 l 693 699 l 749 810 l 1213 810 l 1213 713 l 1029 576 m 1815 0 l 1296 0 l 1296 99 l 1431 204 l 1431 660 l 1268 699 l 1324 810 l 1843 810 l 1843 711 l 1708 606 l 1708 150 l 1871 111 l 1815 0 z "},"Ⅻ":{"ha":2668,"x_min":0,"x_max":2613,"o":"m 1185 1 l 665 1 l 665 100 l 743 147 l 565 294 l 410 190 l 547 111 l 492 0 l 28 0 l 28 99 l 449 383 l 228 568 l 0 699 l 56 810 l 575 810 l 575 711 l 492 669 l 671 524 l 806 618 l 665 699 l 721 810 l 1185 810 l 1185 711 l 790 432 l 1079 188 l 1240 113 l 1185 1 m 1843 0 l 1324 0 l 1324 99 l 1458 204 l 1458 660 l 1296 699 l 1351 810 l 1871 810 l 1871 711 l 1736 606 l 1736 150 l 1899 111 l 1843 0 m 2557 0 l 2038 0 l 2038 99 l 2172 204 l 2172 660 l 2010 699 l 2065 810 l 2585 810 l 2585 711 l 2450 606 l 2450 150 l 2613 111 l 2557 0 z "},"Ⅼ":{"ha":1033,"x_min":28,"x_max":1006,"o":"m 890 -1 l 56 -1 l 56 97 l 186 200 l 186 661 l 28 699 l 83 810 l 617 810 l 617 711 l 485 608 l 485 132 l 688 132 l 908 447 l 1006 406 l 1006 -26 l 890 -1 z "},"Ⅽ":{"ha":1121,"x_min":69,"x_max":1079,"o":"m 681 824 q 873 803 763 824 q 1033 758 983 782 l 1033 447 l 856 447 q 742 592 808 546 q 600 638 676 638 q 499 610 546 638 q 424 538 451 583 q 396 440 396 492 q 463 260 396 333 q 657 188 529 188 q 1015 304 783 188 l 1079 201 l 824 3 q 703 -22 761 -15 q 579 -28 646 -28 q 315 25 431 -28 q 134 169 199 78 q 69 374 69 261 q 167 597 69 493 q 408 762 264 700 q 681 824 551 824 z "},"Ⅾ":{"ha":1249,"x_min":28,"x_max":1179,"o":"m 681 824 q 941 772 828 824 q 1117 631 1054 721 q 1179 429 1179 540 q 1085 209 1179 311 q 849 47 990 107 q 582 -14 708 -14 q 458 -7 521 -14 q 301 0 358 0 l 56 0 l 56 99 l 186 201 l 186 651 l 28 699 l 83 810 l 300 810 q 549 818 426 810 q 681 824 638 824 m 621 131 q 737 162 683 131 q 822 247 790 193 q 853 364 853 300 q 781 590 853 501 q 572 679 710 679 q 486 656 526 679 l 486 153 q 621 131 546 131 z "}}}
